<?xml version="1.0" encoding="UTF-8" standalone="no"?>
<svg width="90px" height="90px" viewBox="0 0 90 90" version="1.1" xmlns="http://www.w3.org/2000/svg" xmlns:xlink="http://www.w3.org/1999/xlink" xmlns:sketch="http://www.bohemiancoding.com/sketch/ns">
    <!-- Generator: Sketch 3.3.2 (12043) - http://www.bohemiancoding.com/sketch -->
    <title>1</title>
    <desc>Created with Sketch.</desc>
    <defs></defs>
    <g id="Page-1" stroke="none" stroke-width="1" fill="none" fill-rule="evenodd" sketch:type="MSPage">
        <g id="Artboard-3" sketch:type="MSArtboardGroup" transform="translate(-36.000000, -316.000000)">
            <g id="1" sketch:type="MSLayerGroup" transform="translate(36.000000, 316.000000)">
                <path d="M45,0 C69.8526,0 90,20.1474 90,45 C90,69.8526 69.8526,90 45,90 C20.1474,90 0,69.8526 0,45 C0,20.1474 20.1474,0 45,0 L45,0 Z" id="Shape" fill="#324D5B" sketch:type="MSShapeGroup"></path>
                <g id="icon-definisi-copy" transform="translate(12.600000, 30.600000)" sketch:type="MSShapeGroup">
                    <path d="M17.1,47.7 C17.1,48.1968 16.6968,48.6 16.2,48.6 C15.7032,48.6 15.3,48.1968 15.3,47.7 C15.3,47.2032 15.7032,46.8 16.2,46.8 C16.6968,46.8 17.1,47.2032 17.1,47.7" id="Fill-558" fill="#95A5A5"></path>
                    <path d="M24.3,47.7 C24.3,48.1968 23.8968,48.6 23.4,48.6 C22.9032,48.6 22.5,48.1968 22.5,47.7 C22.5,47.2032 22.9032,46.8 23.4,46.8 C23.8968,46.8 24.3,47.2032 24.3,47.7" id="Fill-559" fill="#95A5A5"></path>
                    <path d="M31.5,47.7 C31.5,48.1968 31.0968,48.6 30.6,48.6 C30.1032,48.6 29.7,48.1968 29.7,47.7 C29.7,47.2032 30.1032,46.8 30.6,46.8 C31.0968,46.8 31.5,47.2032 31.5,47.7" id="Fill-560" fill="#95A5A5"></path>
                    <path d="M45,30.6 C31.0824,30.6 19.8,19.3176 19.8,5.4 C19.8,3.717 19.9683,2.0736 20.2833,0.4833 C8.7201,2.7702 0,12.9654 0,25.2 C0,39.1176 11.2824,50.4 25.2,50.4 C37.4346,50.4 47.6298,41.6799 49.9167,30.1167 C48.3264,30.4317 46.683,30.6 45,30.6" id="Fill-561" fill="#313131"></path>
                    <path d="M13.5,8.1 C13.5,8.5968 13.0968,9 12.6,9 C12.1032,9 11.7,8.5968 11.7,8.1 C11.7,7.6032 12.1032,7.2 12.6,7.2 C13.0968,7.2 13.5,7.6032 13.5,8.1" id="Fill-768" fill-opacity="0.3" fill="#FFFFFF"></path>
                    <path d="M9.9,11.7 C9.9,12.1968 9.4968,12.6 9,12.6 C8.5032,12.6 8.1,12.1968 8.1,11.7 C8.1,11.2032 8.5032,10.8 9,10.8 C9.4968,10.8 9.9,11.2032 9.9,11.7" id="Fill-769" fill-opacity="0.3" fill="#FFFFFF"></path>
                    <path d="M6.3,15.3 C6.3,15.7968 5.8968,16.2 5.4,16.2 C4.9032,16.2 4.5,15.7968 4.5,15.3 C4.5,14.8032 4.9032,14.4 5.4,14.4 C5.8968,14.4 6.3,14.8032 6.3,15.3" id="Fill-770" fill-opacity="0.3" fill="#FFFFFF"></path>
                    <path d="M13.5,15.3 C13.5,15.7968 13.0968,16.2 12.6,16.2 C12.1032,16.2 11.7,15.7968 11.7,15.3 C11.7,14.8032 12.1032,14.4 12.6,14.4 C13.0968,14.4 13.5,14.8032 13.5,15.3" id="Fill-771" fill-opacity="0.3" fill="#FFFFFF"></path>
                    <path d="M2.7,18.9 C2.7,19.3968 2.2968,19.8 1.8,19.8 C1.3032,19.8 0.9,19.3968 0.9,18.9 C0.9,18.4032 1.3032,18 1.8,18 C2.2968,18 2.7,18.4032 2.7,18.9" id="Fill-772" fill-opacity="0.3" fill="#FFFFFF"></path>
                    <path d="M9.9,18.9 C9.9,19.3968 9.4968,19.8 9,19.8 C8.5032,19.8 8.1,19.3968 8.1,18.9 C8.1,18.4032 8.5032,18 9,18 C9.4968,18 9.9,18.4032 9.9,18.9" id="Fill-773" fill-opacity="0.3" fill="#FFFFFF"></path>
                    <path d="M6.3,22.5 C6.3,22.9968 5.8968,23.4 5.4,23.4 C4.9032,23.4 4.5,22.9968 4.5,22.5 C4.5,22.0032 4.9032,21.6 5.4,21.6 C5.8968,21.6 6.3,22.0032 6.3,22.5" id="Fill-774" fill-opacity="0.3" fill="#FFFFFF"></path>
                    <path d="M13.5,22.5 C13.5,22.9968 13.0968,23.4 12.6,23.4 C12.1032,23.4 11.7,22.9968 11.7,22.5 C11.7,22.0032 12.1032,21.6 12.6,21.6 C13.0968,21.6 13.5,22.0032 13.5,22.5" id="Fill-775" fill-opacity="0.3" fill="#FFFFFF"></path>
                    <path d="M2.7,26.1 C2.7,26.5968 2.2968,27 1.8,27 C1.3032,27 0.9,26.5968 0.9,26.1 C0.9,25.6032 1.3032,25.2 1.8,25.2 C2.2968,25.2 2.7,25.6032 2.7,26.1" id="Fill-776" fill-opacity="0.3" fill="#FFFFFF"></path>
                    <path d="M9.9,26.1 C9.9,26.5968 9.4968,27 9,27 C8.5032,27 8.1,26.5968 8.1,26.1 C8.1,25.6032 8.5032,25.2 9,25.2 C9.4968,25.2 9.9,25.6032 9.9,26.1" id="Fill-777" fill-opacity="0.3" fill="#FFFFFF"></path>
                    <path d="M6.3,29.7 C6.3,30.1968 5.8968,30.6 5.4,30.6 C4.9032,30.6 4.5,30.1968 4.5,29.7 C4.5,29.2032 4.9032,28.8 5.4,28.8 C5.8968,28.8 6.3,29.2032 6.3,29.7" id="Fill-778" fill-opacity="0.3" fill="#FFFFFF"></path>
                    <path d="M13.5,29.7 C13.5,30.1968 13.0968,30.6 12.6,30.6 C12.1032,30.6 11.7,30.1968 11.7,29.7 C11.7,29.2032 12.1032,28.8 12.6,28.8 C13.0968,28.8 13.5,29.2032 13.5,29.7" id="Fill-779" fill-opacity="0.3" fill="#FFFFFF"></path>
                    <path d="M9.9,33.3 C9.9,33.7968 9.4968,34.2 9,34.2 C8.5032,34.2 8.1,33.7968 8.1,33.3 C8.1,32.8032 8.5032,32.4 9,32.4 C9.4968,32.4 9.9,32.8032 9.9,33.3" id="Fill-780" fill-opacity="0.3" fill="#FFFFFF"></path>
                    <path d="M6.3,36.9 C6.3,37.3968 5.8968,37.8 5.4,37.8 C4.9032,37.8 4.5,37.3968 4.5,36.9 C4.5,36.4032 4.9032,36 5.4,36 C5.8968,36 6.3,36.4032 6.3,36.9" id="Fill-781" fill-opacity="0.3" fill="#FFFFFF"></path>
                    <path d="M13.5,36.9 C13.5,37.3968 13.0968,37.8 12.6,37.8 C12.1032,37.8 11.7,37.3968 11.7,36.9 C11.7,36.4032 12.1032,36 12.6,36 C13.0968,36 13.5,36.4032 13.5,36.9" id="Fill-782" fill-opacity="0.3" fill="#FFFFFF"></path>
                    <path d="M9.9,40.5 C9.9,40.9968 9.4968,41.4 9,41.4 C8.5032,41.4 8.1,40.9968 8.1,40.5 C8.1,40.0032 8.5032,39.6 9,39.6 C9.4968,39.6 9.9,40.0032 9.9,40.5" id="Fill-783" fill-opacity="0.3" fill="#FFFFFF"></path>
                    <path d="M13.5,44.1 C13.5,44.5968 13.0968,45 12.6,45 C12.1032,45 11.7,44.5968 11.7,44.1 C11.7,43.6032 12.1032,43.2 12.6,43.2 C13.0968,43.2 13.5,43.6032 13.5,44.1" id="Fill-784" fill-opacity="0.3" fill="#FFFFFF"></path>
                    <path d="M17.1,11.7 C17.1,12.1968 16.6968,12.6 16.2,12.6 C15.7032,12.6 15.3,12.1968 15.3,11.7 C15.3,11.2032 15.7032,10.8 16.2,10.8 C16.6968,10.8 17.1,11.2032 17.1,11.7" id="Fill-785" fill-opacity="0.3" fill="#FFFFFF"></path>
                    <path d="M17.1,4.5 C17.1,4.9968 16.6968,5.4 16.2,5.4 C15.7032,5.4 15.3,4.9968 15.3,4.5 C15.3,4.0032 15.7032,3.6 16.2,3.6 C16.6968,3.6 17.1,4.0032 17.1,4.5" id="Fill-786" fill-opacity="0.3" fill="#FFFFFF"></path>
                    <path d="M20.7,15.3 C20.7,15.7968 20.2968,16.2 19.8,16.2 C19.3032,16.2 18.9,15.7968 18.9,15.3 C18.9,14.8032 19.3032,14.4 19.8,14.4 C20.2968,14.4 20.7,14.8032 20.7,15.3" id="Fill-787" fill-opacity="0.3" fill="#FFFFFF"></path>
                    <path d="M17.1,18.9 C17.1,19.3968 16.6968,19.8 16.2,19.8 C15.7032,19.8 15.3,19.3968 15.3,18.9 C15.3,18.4032 15.7032,18 16.2,18 C16.6968,18 17.1,18.4032 17.1,18.9" id="Fill-788" fill-opacity="0.3" fill="#FFFFFF"></path>
                    <path d="M20.7,22.5 C20.7,22.9968 20.2968,23.4 19.8,23.4 C19.3032,23.4 18.9,22.9968 18.9,22.5 C18.9,22.0032 19.3032,21.6 19.8,21.6 C20.2968,21.6 20.7,22.0032 20.7,22.5" id="Fill-789" fill-opacity="0.3" fill="#FFFFFF"></path>
                    <path d="M17.1,26.1 C17.1,26.5968 16.6968,27 16.2,27 C15.7032,27 15.3,26.5968 15.3,26.1 C15.3,25.6032 15.7032,25.2 16.2,25.2 C16.6968,25.2 17.1,25.6032 17.1,26.1" id="Fill-790" fill-opacity="0.3" fill="#FFFFFF"></path>
                    <path d="M24.3,26.1 C24.3,26.5968 23.8968,27 23.4,27 C22.9032,27 22.5,26.5968 22.5,26.1 C22.5,25.6032 22.9032,25.2 23.4,25.2 C23.8968,25.2 24.3,25.6032 24.3,26.1" id="Fill-791" fill-opacity="0.3" fill="#FFFFFF"></path>
                    <path d="M20.7,29.7 C20.7,30.1968 20.2968,30.6 19.8,30.6 C19.3032,30.6 18.9,30.1968 18.9,29.7 C18.9,29.2032 19.3032,28.8 19.8,28.8 C20.2968,28.8 20.7,29.2032 20.7,29.7" id="Fill-792" fill-opacity="0.3" fill="#FFFFFF"></path>
                    <path d="M27.9,29.7 C27.9,30.1968 27.4968,30.6 27,30.6 C26.5032,30.6 26.1,30.1968 26.1,29.7 C26.1,29.2032 26.5032,28.8 27,28.8 C27.4968,28.8 27.9,29.2032 27.9,29.7" id="Fill-793" fill-opacity="0.3" fill="#FFFFFF"></path>
                    <path d="M17.1,33.3 C17.1,33.7968 16.6968,34.2 16.2,34.2 C15.7032,34.2 15.3,33.7968 15.3,33.3 C15.3,32.8032 15.7032,32.4 16.2,32.4 C16.6968,32.4 17.1,32.8032 17.1,33.3" id="Fill-794" fill-opacity="0.3" fill="#FFFFFF"></path>
                    <path d="M24.3,33.3 C24.3,33.7968 23.8968,34.2 23.4,34.2 C22.9032,34.2 22.5,33.7968 22.5,33.3 C22.5,32.8032 22.9032,32.4 23.4,32.4 C23.8968,32.4 24.3,32.8032 24.3,33.3" id="Fill-795" fill-opacity="0.3" fill="#FFFFFF"></path>
                    <path d="M20.7,36.9 C20.7,37.3968 20.2968,37.8 19.8,37.8 C19.3032,37.8 18.9,37.3968 18.9,36.9 C18.9,36.4032 19.3032,36 19.8,36 C20.2968,36 20.7,36.4032 20.7,36.9" id="Fill-796" fill-opacity="0.3" fill="#FFFFFF"></path>
                    <path d="M27.9,36.9 C27.9,37.3968 27.4968,37.8 27,37.8 C26.5032,37.8 26.1,37.3968 26.1,36.9 C26.1,36.4032 26.5032,36 27,36 C27.4968,36 27.9,36.4032 27.9,36.9" id="Fill-797" fill-opacity="0.3" fill="#FFFFFF"></path>
                    <path d="M17.1,40.5 C17.1,40.9968 16.6968,41.4 16.2,41.4 C15.7032,41.4 15.3,40.9968 15.3,40.5 C15.3,40.0032 15.7032,39.6 16.2,39.6 C16.6968,39.6 17.1,40.0032 17.1,40.5" id="Fill-798" fill-opacity="0.3" fill="#FFFFFF"></path>
                    <path d="M24.3,40.5 C24.3,40.9968 23.8968,41.4 23.4,41.4 C22.9032,41.4 22.5,40.9968 22.5,40.5 C22.5,40.0032 22.9032,39.6 23.4,39.6 C23.8968,39.6 24.3,40.0032 24.3,40.5" id="Fill-799" fill-opacity="0.3" fill="#FFFFFF"></path>
                    <path d="M20.7,44.1 C20.7,44.5968 20.2968,45 19.8,45 C19.3032,45 18.9,44.5968 18.9,44.1 C18.9,43.6032 19.3032,43.2 19.8,43.2 C20.2968,43.2 20.7,43.6032 20.7,44.1" id="Fill-800" fill-opacity="0.3" fill="#FFFFFF"></path>
                    <path d="M27.9,44.1 C27.9,44.5968 27.4968,45 27,45 C26.5032,45 26.1,44.5968 26.1,44.1 C26.1,43.6032 26.5032,43.2 27,43.2 C27.4968,43.2 27.9,43.6032 27.9,44.1" id="Fill-801" fill-opacity="0.3" fill="#FFFFFF"></path>
                    <path d="M35.1,29.7 C35.1,30.1968 34.6968,30.6 34.2,30.6 C33.7032,30.6 33.3,30.1968 33.3,29.7 C33.3,29.2032 33.7032,28.8 34.2,28.8 C34.6968,28.8 35.1,29.2032 35.1,29.7" id="Fill-802" fill-opacity="0.3" fill="#FFFFFF"></path>
                    <path d="M31.5,33.3 C31.5,33.7968 31.0968,34.2 30.6,34.2 C30.1032,34.2 29.7,33.7968 29.7,33.3 C29.7,32.8032 30.1032,32.4 30.6,32.4 C31.0968,32.4 31.5,32.8032 31.5,33.3" id="Fill-803" fill-opacity="0.3" fill="#FFFFFF"></path>
                    <path d="M35.1,36.9 C35.1,37.3968 34.6968,37.8 34.2,37.8 C33.7032,37.8 33.3,37.3968 33.3,36.9 C33.3,36.4032 33.7032,36 34.2,36 C34.6968,36 35.1,36.4032 35.1,36.9" id="Fill-804" fill-opacity="0.3" fill="#FFFFFF"></path>
                    <path d="M31.5,40.5 C31.5,40.9968 31.0968,41.4 30.6,41.4 C30.1032,41.4 29.7,40.9968 29.7,40.5 C29.7,40.0032 30.1032,39.6 30.6,39.6 C31.0968,39.6 31.5,40.0032 31.5,40.5" id="Fill-805" fill-opacity="0.3" fill="#FFFFFF"></path>
                    <path d="M35.1,44.1 C35.1,44.5968 34.6968,45 34.2,45 C33.7032,45 33.3,44.5968 33.3,44.1 C33.3,43.6032 33.7032,43.2 34.2,43.2 C34.6968,43.2 35.1,43.6032 35.1,44.1" id="Fill-806" fill-opacity="0.3" fill="#FFFFFF"></path>
                    <path d="M38.7,33.3 C38.7,33.7968 38.2968,34.2 37.8,34.2 C37.3032,34.2 36.9,33.7968 36.9,33.3 C36.9,32.8032 37.3032,32.4 37.8,32.4 C38.2968,32.4 38.7,32.8032 38.7,33.3" id="Fill-807" fill-opacity="0.3" fill="#FFFFFF"></path>
                    <path d="M42.3,36.9 C42.3,37.3968 41.8968,37.8 41.4,37.8 C40.9032,37.8 40.5,37.3968 40.5,36.9 C40.5,36.4032 40.9032,36 41.4,36 C41.8968,36 42.3,36.4032 42.3,36.9" id="Fill-808" fill-opacity="0.3" fill="#FFFFFF"></path>
                    <path d="M38.7,40.5 C38.7,40.9968 38.2968,41.4 37.8,41.4 C37.3032,41.4 36.9,40.9968 36.9,40.5 C36.9,40.0032 37.3032,39.6 37.8,39.6 C38.2968,39.6 38.7,40.0032 38.7,40.5" id="Fill-809" fill-opacity="0.3" fill="#FFFFFF"></path>
                    <path d="M45.9,33.3 C45.9,33.7968 45.4968,34.2 45,34.2 C44.5032,34.2 44.1,33.7968 44.1,33.3 C44.1,32.8032 44.5032,32.4 45,32.4 C45.4968,32.4 45.9,32.8032 45.9,33.3" id="Fill-810" fill-opacity="0.3" fill="#FFFFFF"></path>
                </g>
                <path d="M17.1009,1.8027 C16.5609,6.6609 13.8609,9.3627 9.0009,9.9027 C13.8609,10.4427 16.5618,13.1436 17.1009,18.0027 C17.6409,13.1436 20.3418,10.4427 25.2018,9.9027 C20.3418,9.3627 17.6409,6.6609 17.1009,1.8027 L17.1009,1.8027 Z M54.0009,37.8027 C53.5806,41.5809 51.4809,43.6815 47.7,44.1027 C51.4809,44.5221 53.5806,46.6227 54.0009,50.4027 C54.4212,46.6227 56.5209,44.5221 60.3018,44.1027 C56.5209,43.6815 54.4212,41.5809 54.0009,37.8027 L54.0009,37.8027 Z" id="Shape" fill="#EFC75E" sketch:type="MSShapeGroup"></path>
                <path d="M79.2009,32.4018 C78.9012,35.1009 77.4,36.6021 74.7,36.9027 C77.4,37.2015 78.9012,38.7027 79.2009,41.4027 C79.5006,38.7027 81.0009,37.2015 83.7009,36.9027 C81.0009,36.6021 79.5006,35.1009 79.2009,32.4018 L79.2009,32.4018 Z M15.3,28.8009 C15.0597,30.96 13.86,32.1615 11.7,32.4018 C13.86,32.6421 15.0597,33.8427 15.3,36.0018 C15.5403,33.8427 16.74,32.6421 18.9,32.4018 C16.7409,32.1615 15.5403,30.96 15.3,28.8009 L15.3,28.8009 Z M42.3,8.1018 C42.0003,10.8009 40.5,12.3021 37.8,12.6018 C40.5,12.9015 42.0003,14.4036 42.3,17.1027 C42.5997,14.4036 44.1,12.9015 46.8,12.6018 C44.1009,12.3021 42.6006,10.8009 42.3,8.1018 L42.3,8.1018 Z" id="Shape" fill="#5B717C" sketch:type="MSShapeGroup"></path>
            </g>
        </g>
    </g>
</svg>