<?xml version="1.0" encoding="UTF-8" standalone="no"?>
<svg width="90px" height="90px" viewBox="0 0 90 90" version="1.1" xmlns="http://www.w3.org/2000/svg" xmlns:xlink="http://www.w3.org/1999/xlink" xmlns:sketch="http://www.bohemiancoding.com/sketch/ns">
    <!-- Generator: Sketch 3.3.2 (12043) - http://www.bohemiancoding.com/sketch -->
    <title>2</title>
    <desc>Created with Sketch.</desc>
    <defs></defs>
    <g id="Page-1" stroke="none" stroke-width="1" fill="none" fill-rule="evenodd" sketch:type="MSPage">
        <g id="Artboard-3" sketch:type="MSArtboardGroup" transform="translate(-242.000000, -371.000000)">
            <g id="2" sketch:type="MSLayerGroup" transform="translate(242.000000, 371.000000)">
                <path d="M45,0 C69.8526562,0 90,20.1473438 90,45 C90,69.8526562 69.8526562,90 45,90 C20.1473438,90 0,69.8533594 0,45 C0,20.1466406 20.1473438,0 45,0 L45,0 Z" id="Shape" fill="#EFC84A" sketch:type="MSShapeGroup"></path>
                <path d="M23.90625,19.6875 L64.6875,19.6875 C65.851875,19.6875 66.796875,20.6317969 66.796875,21.796875 L66.796875,69.609375 C66.796875,70.77375 65.851875,71.71875 64.6875,71.71875 L23.90625,71.71875 C22.7411719,71.71875 21.796875,70.77375 21.796875,69.609375 L21.796875,21.796875 C21.796875,20.6317969 22.7411719,19.6875 23.90625,19.6875 L23.90625,19.6875 Z" id="Shape" fill="#DF5A48" sketch:type="MSShapeGroup"></path>
                <path d="M28.125,24.609375 L60.46875,24.609375 C61.245,24.609375 61.875,25.239375 61.875,26.015625 L61.875,65.390625 C61.875,66.1675781 61.245,66.796875 60.46875,66.796875 L28.125,66.796875 C27.34875,66.796875 26.71875,66.1675781 26.71875,65.390625 L26.71875,26.015625 C26.71875,25.239375 27.34875,24.609375 28.125,24.609375 L28.125,24.609375 Z" id="Shape" fill="#FFFFFF" sketch:type="MSShapeGroup"></path>
                <path d="M54.84375,21.796875 L51.328125,21.796875 C0.0703125,7.10542736e-14 49.2025781,20.6071875 49.21875,19.6875 C49.1969531,18.7748438 48.58875,18.28125 47.8125,18.28125 L40.78125,18.28125 C40.005,18.28125 39.3855469,18.6982031 39.375,19.6875 L37.265625,21.796875 L33.75,21.796875 C32.5849219,21.796875 31.640625,22.741875 31.640625,23.90625 L31.640625,25.3125 C31.640625,26.4775781 32.5849219,27.421875 33.75,27.421875 L54.84375,27.421875 C56.0088281,27.421875 56.953125,26.4775781 56.953125,25.3125 L56.953125,23.90625 C56.953125,22.741875 56.0088281,21.796875 54.84375,21.796875 L54.84375,21.796875 Z" id="Shape" fill="#E4E7E8" sketch:type="MSShapeGroup"></path>
                <path d="M31.640625,26.015625 L56.953125,26.015625 L56.953125,27.421875 L31.640625,27.421875 L31.640625,26.015625 L31.640625,26.015625 Z" id="Shape" fill="#CED0D0" sketch:type="MSShapeGroup"></path>
                <path d="M30.9375,36.5625 L35.859375,36.5625 L35.859375,31.640625 L30.9375,31.640625 L30.9375,36.5625 L30.9375,36.5625 Z M37.96875,31.640625 L37.96875,33.046875 L57.65625,33.046875 L57.65625,31.640625 L37.96875,31.640625 L37.96875,31.640625 Z M37.96875,35.15625 L50.625,35.15625 L50.625,33.75 L37.96875,33.75 L37.96875,35.15625 L37.96875,35.15625 Z" id="Shape" fill="#ECECEC" sketch:type="MSShapeGroup"></path>
                <path d="M30.9375,45 L35.859375,45 L35.859375,40.078125 L30.9375,40.078125 L30.9375,45 L30.9375,45 Z M37.96875,40.078125 L37.96875,41.484375 L57.65625,41.484375 L57.65625,40.078125 L37.96875,40.078125 L37.96875,40.078125 Z M37.96875,43.59375 L54.140625,43.59375 L54.140625,42.1875 L37.96875,42.1875 L37.96875,43.59375 L37.96875,43.59375 Z" id="Shape" fill="#45B39C" sketch:type="MSShapeGroup"></path>
                <path d="M30.9375,53.4375 L35.859375,53.4375 L35.859375,48.515625 L30.9375,48.515625 L30.9375,53.4375 L30.9375,53.4375 Z M37.96875,48.515625 L37.96875,49.921875 L57.65625,49.921875 L57.65625,48.515625 L37.96875,48.515625 L37.96875,48.515625 Z M37.96875,52.03125 L50.625,52.03125 L50.625,50.625 L37.96875,50.625 L37.96875,52.03125 L37.96875,52.03125 Z" id="Shape" fill="#ECECEC" sketch:type="MSShapeGroup"></path>
                <path d="M30.9375,61.875 L35.859375,61.875 L35.859375,56.953125 L30.9375,56.953125 L30.9375,61.875 L30.9375,61.875 Z M37.96875,56.953125 L37.96875,58.359375 L57.65625,58.359375 L57.65625,56.953125 L37.96875,56.953125 L37.96875,56.953125 Z M37.96875,60.46875 L54.140625,60.46875 L54.140625,59.0625 L37.96875,59.0625 L37.96875,60.46875 L37.96875,60.46875 Z" id="Shape" fill="#ECECEC" sketch:type="MSShapeGroup"></path>
            </g>
        </g>
    </g>
</svg>