<?xml version="1.0" encoding="UTF-8" standalone="no"?>
<svg width="90px" height="90px" viewBox="0 0 90 90" version="1.1" xmlns="http://www.w3.org/2000/svg" xmlns:xlink="http://www.w3.org/1999/xlink" xmlns:sketch="http://www.bohemiancoding.com/sketch/ns">
    <!-- Generator: Sketch 3.3.2 (12043) - http://www.bohemiancoding.com/sketch -->
    <title>3</title>
    <desc>Created with Sketch.</desc>
    <defs></defs>
    <g id="Page-1" stroke="none" stroke-width="1" fill="none" fill-rule="evenodd" sketch:type="MSPage">
        <g id="Artboard-3" sketch:type="MSArtboardGroup" transform="translate(-332.000000, -125.000000)">
            <g id="3" sketch:type="MSLayerGroup" transform="translate(332.000000, 125.000000)">
                <path d="M44.9885294,0.886764706 C20.6232353,0.886764706 0.870882353,20.6382353 0.870882353,45.0035294 C0.870882353,69.3697059 20.6232353,89.1220588 44.9885294,89.1220588 C69.3538235,89.1220588 89.1061765,69.3688235 89.1061765,45.0035294 C89.1061765,20.6391176 69.3547059,0.886764706 44.9885294,0.886764706 L44.9885294,0.886764706 Z" id="Shape" fill="#2EA9D3" sketch:type="MSShapeGroup"></path>
                <path d="M46.2547059,43.7761765 C45.555,43.0764706 44.4194118,43.0764706 43.7197059,43.7761765 C43.0191176,44.4758824 43.0191176,45.6097059 43.7197059,46.3102941 L74.8773529,77.4458824 C75.7561765,76.6358824 76.6014706,75.7905882 77.4123529,74.9126471 L46.2547059,43.7761765 L46.2547059,43.7761765 Z" id="Shape" fill="#2998BD" sketch:type="MSShapeGroup"></path>
                <path d="M44.9885294,27.3573529 C35.2420588,27.3573529 27.3414706,35.2579412 27.3414706,45.0044118 C27.3414706,54.7508824 35.2420588,62.6514706 44.9885294,62.6514706 C54.735,62.6514706 62.6355882,54.7508824 62.6355882,45.0044118 C62.6355882,35.2579412 54.735,27.3573529 44.9885294,27.3573529 L44.9885294,27.3573529 Z M44.9885294,53.8270588 C40.1161765,53.8270588 36.165,49.8767647 36.165,45.0035294 C36.165,40.1311765 40.1161765,36.18 44.9885294,36.18 C49.8608824,36.18 53.8120588,40.1311765 53.8120588,45.0035294 C53.8120588,49.8767647 49.8617647,53.8270588 44.9885294,53.8270588 L44.9885294,53.8270588 Z M44.9885294,9.70941176 C25.4955882,9.70941176 9.69441176,25.5114706 9.69441176,45.0035294 C9.69441176,64.4955882 25.4955882,80.2976471 44.9885294,80.2976471 C64.4814706,80.2976471 80.2826471,64.4955882 80.2826471,45.0035294 C80.2826471,25.5114706 64.4814706,9.70941176 44.9885294,9.70941176 L44.9885294,9.70941176 Z M44.9885294,71.475 C30.3697059,71.475 18.5179412,59.6232353 18.5179412,45.0044118 C18.5179412,30.3855882 30.3697059,18.5338235 44.9885294,18.5338235 C59.6073529,18.5338235 71.4591176,30.3855882 71.4591176,45.0044118 C71.4591176,59.6232353 59.6082353,71.475 44.9885294,71.475 L44.9885294,71.475 Z" id="Shape" fill="#4ABEE5" sketch:type="MSShapeGroup"></path>
                <path d="M80.6144118,9.375 C84.1182353,12.8717647 91.7320588,10.9429412 88.2282353,14.4414706 L78.8197059,23.8244118 C75.3511765,27.2929412 69.6344118,27.3202941 66.1305882,23.8244118 C62.6258824,20.3276471 62.6258824,14.6576471 66.1305882,11.16 L75.5382353,1.77705882 C79.0429412,-1.72058824 77.1105882,5.87823529 80.6144118,9.375 L80.6144118,9.375 Z" id="Shape" fill="#EFC75E" sketch:type="MSShapeGroup"></path>
                <g id="Group" transform="translate(49.411765, 49.411765)" fill="#42ABCE" sketch:type="MSShapeGroup">
                    <path d="M15.5002941,13.0094118 C14.7123529,13.9102941 13.8652941,14.7555882 12.9644118,15.5417647 L19.2202941,21.7932353 C20.1079412,20.9920588 20.9541176,20.1476471 21.7561765,19.2608824 L15.5002941,13.0094118 L15.5002941,13.0094118 Z M2.93647059,0.454411765 C2.27029412,1.46117647 1.40382353,2.31970588 0.392647059,2.97970588 L6.70147059,9.28411765 C7.63058824,8.52882353 8.48294118,7.68264706 9.24088235,6.75529412 L2.93647059,0.454411765 L2.93647059,0.454411765 Z" id="Shape"></path>
                </g>
                <path d="M80.6144118,9.375 C79.6473529,8.41058824 79.095,7.13294118 78.7279412,5.86323529 L64.0482353,20.5438235 C64.4814706,21.7394118 65.1697059,22.8652941 66.1305882,23.8244118 C67.1055882,24.7976471 68.2552941,25.4876471 69.4773529,25.9164706 L84.135,11.2579412 C82.8617647,10.8908824 81.5814706,10.3402941 80.6144118,9.375 L80.6144118,9.375 Z" id="Shape" fill="#E3BD59" sketch:type="MSShapeGroup"></path>
                <path d="M84.1729412,5.80676471 C84.8726471,6.50647059 84.8726471,7.64029412 84.1729412,8.34 L46.2547059,46.2317647 C45.555,46.9314706 44.4194118,46.9314706 43.7197059,46.2317647 C43.0191176,45.5329412 43.0191176,44.3982353 43.7197059,43.6976471 L81.6370588,5.80676471 C82.3367647,5.10617647 83.4723529,5.10617647 84.1729412,5.80676471 L84.1729412,5.80676471 Z" id="Shape" fill="#EDEEEF" sketch:type="MSShapeGroup"></path>
            </g>
        </g>
    </g>
</svg>