<?xml version="1.0" encoding="UTF-8" standalone="no"?>
<svg width="100px" height="50px" viewBox="0 0 100 50" version="1.1" xmlns="http://www.w3.org/2000/svg" xmlns:xlink="http://www.w3.org/1999/xlink" xmlns:sketch="http://www.bohemiancoding.com/sketch/ns">
    <!-- Generator: Sketch 3.3.2 (12043) - http://www.bohemiancoding.com/sketch -->
    <title>flag-sabah</title>
    <desc>Created with Sketch.</desc>
    <defs></defs>
    <g id="Page-1" stroke="none" stroke-width="1" fill="none" fill-rule="evenodd" sketch:type="MSPage">
        <g id="Artboard-6" sketch:type="MSArtboardGroup" transform="translate(-23.000000, -280.000000)">
            <g id="flag-sabah" sketch:type="MSLayerGroup" transform="translate(23.000000, 280.000000)">
                <rect id="Rectangle-path" fill="#77CCFF" sketch:type="MSShapeGroup" x="0.166389351" y="0" width="99.8336106" height="50"></rect>
                <path d="M54.0049917,24.935 L0.0831946755,24.935 L0.0831946755,19.3953333 C2.08103161,19.0891167 3.92079867,18.3181333 4.69051581,17.0878333 C6.38269551,17.0878333 7.91663894,15.2396667 9.60349418,13.2438333 C9.9146589,12.6259333 10.3731947,12.47285 11.1429285,13.0907283 C11.7543261,13.856245 11.9071714,13.2438333 12.2183361,12.1666283 C12.3711864,11.854945 12.6768719,11.5487283 12.982579,11.854945 C13.446589,12.472845 13.5994509,12.013515 14.0579867,11.70184 C14.8276872,11.548735 15.9030782,11.548735 16.6727953,11.854945 C17.1313478,11.5487283 17.9010649,11.5487283 18.6653078,11.5487283 C19.2821797,11.854945 19.8935607,11.854945 20.5103993,11.5487283 C20.8161065,11.3956233 21.2800998,11.2425117 21.8915141,11.2425117 C22.8140765,10.4715283 23.5836938,9.70601167 24.1951747,10.0122117 C24.8120466,10.1653167 25.5817471,10.3184283 26.3460899,10.3184283 C28.0382696,10.3184283 28.9608985,10.1653233 29.4194676,10.0122117 C29.7251747,10.783195 29.8780033,10.783195 30.0308652,10.0122117 C30.1891714,9.54742833 30.1891714,9.24122833 30.9534276,9.08811167 C30.9534276,8.31712833 31.2645923,8.16401167 31.87599,8.781895 C32.7985524,9.54741167 33.873827,9.705995 34.9493677,9.54741167 C34.9493677,10.4715117 35.102218,10.4715117 35.5607654,9.54741167 C35.713614,8.62877833 36.3304659,8.934995 37.2529451,10.318395 C37.4057953,10.6246117 37.5586522,10.936295 37.5586522,11.242495 C40.9378536,16.628495 44.4696339,18.6243283 48.1543261,19.859995 C48.771198,20.0130983 49.3880366,20.0130983 49.9994176,20.4724117 L54.0049917,24.935 Z" id="Shape" fill="#002B7F" sketch:type="MSShapeGroup"></path>
                <path d="M50.0831947,16.6666667 L50.0831947,50 L100,50 L100,0 L50.0831947,16.6666667 Z" id="Shape" fill="#FFFFFF" sketch:type="MSShapeGroup"></path>
                <rect id="Rectangle-path" fill="#0484D6" sketch:type="MSShapeGroup" x="50.0831947" y="0" width="49.9168053" height="16.6666667"></rect>
                <rect id="Rectangle-path" fill="#F5362F" sketch:type="MSShapeGroup" x="0.166389351" y="33.3333333" width="99.8336106" height="16.6666667"></rect>
            </g>
        </g>
    </g>
</svg>