<?xml version="1.0" encoding="UTF-8" standalone="no"?>
<svg width="30px" height="15px" viewBox="0 0 30 15" version="1.1" xmlns="http://www.w3.org/2000/svg" xmlns:xlink="http://www.w3.org/1999/xlink" xmlns:sketch="http://www.bohemiancoding.com/sketch/ns">
    <!-- Generator: Sketch 3.3.2 (12043) - http://www.bohemiancoding.com/sketch -->
    <title>flag-sarawak</title>
    <desc>Created with Sketch.</desc>
    <defs></defs>
    <g id="Page-1" stroke="none" stroke-width="1" fill="none" fill-rule="evenodd" sketch:type="MSPage">
        <g id="Artboard-6" sketch:type="MSArtboardGroup" transform="translate(-184.000000, -373.000000)">
            <g id="flag-sarawak" sketch:type="MSLayerGroup" transform="translate(184.000000, 372.000000)">
                <rect id="Rectangle-path" fill="#FCD116" sketch:type="MSShapeGroup" x="0" y="1" width="30" height="15"></rect>
                <path d="M0,1 L10,1 L30,11 L30,16 L25,16 L0,1 Z" id="Shape" fill="#000000" sketch:type="MSShapeGroup"></path>
                <path d="M0,1 L0,6 L20,16 L30,16 L0,1 Z" id="Shape" fill="#CE1126" sketch:type="MSShapeGroup"></path>
                <g id="Group" transform="translate(14.776393, 8.947214) rotate(-63.434949) translate(-14.776393, -8.947214) translate(8.276393, 1.947214)" fill="#FCD116" sketch:type="MSShapeGroup">
                    <g id="c3" transform="translate(4.000000, 2.000000)">
                        <g id="c1" transform="translate(0.000000, 1.000000)">
                            <path d="M3.37617667,0.420918055 L3.37617667,4.17091806 L4.62617667,4.17091806 L3.37617667,0.420918055 Z" id="t" transform="translate(4.001177, 2.295918) rotate(12.000000) translate(-4.001177, -2.295918) "></path>
                            <g id="t-link" transform="translate(1.500000, 2.500000) scale(-1, 1) translate(-1.500000, -2.500000) ">
                                <path d="M0.376176671,0.420918055 L0.376176671,4.17091806 L1.62617667,4.17091806 L0.376176671,0.420918055 Z" id="t" transform="translate(1.001177, 2.295918) rotate(12.000000) translate(-1.001177, -2.295918) "></path>
                            </g>
                        </g>
                        <g id="c1-link" transform="translate(3.964181, 3.850933) rotate(40.000000) translate(-3.964181, -3.850933) translate(0.964181, 1.350933)">
                            <g id="c1">
                                <path d="M3.37617667,0.420918055 L3.37617667,4.17091806 L4.62617667,4.17091806 L3.37617667,0.420918055 Z" id="t" transform="translate(4.001177, 2.295918) rotate(12.000000) translate(-4.001177, -2.295918) "></path>
                                <g id="t-link" transform="translate(1.500000, 2.500000) scale(-1, 1) translate(-1.500000, -2.500000) ">
                                    <path d="M0.376176671,0.420918055 L0.376176671,4.17091806 L1.62617667,4.17091806 L0.376176671,0.420918055 Z" id="t" transform="translate(1.001177, 2.295918) rotate(12.000000) translate(-1.001177, -2.295918) "></path>
                                </g>
                            </g>
                        </g>
                        <g id="c1-link" transform="translate(4.477212, 4.739528) rotate(80.000000) translate(-4.477212, -4.739528) translate(1.477212, 2.239528)">
                            <g id="c1">
                                <path d="M3.37617667,0.420918055 L3.37617667,4.17091806 L4.62617667,4.17091806 L3.37617667,0.420918055 Z" id="t" transform="translate(4.001177, 2.295918) rotate(12.000000) translate(-4.001177, -2.295918) "></path>
                                <g id="t-link" transform="translate(1.500000, 2.500000) scale(-1, 1) translate(-1.500000, -2.500000) ">
                                    <path d="M0.376176671,0.420918055 L0.376176671,4.17091806 L1.62617667,4.17091806 L0.376176671,0.420918055 Z" id="t" transform="translate(1.001177, 2.295918) rotate(12.000000) translate(-1.001177, -2.295918) "></path>
                                </g>
                            </g>
                        </g>
                    </g>
                    <g id="c3-link" transform="translate(6.933013, 8.116025) rotate(120.000000) translate(-6.933013, -8.116025) translate(2.933013, 3.616025)">
                        <g id="c3">
                            <g id="c1" transform="translate(0.000000, 1.000000)">
                                <path d="M3.37617667,0.420918055 L3.37617667,4.17091806 L4.62617667,4.17091806 L3.37617667,0.420918055 Z" id="t" transform="translate(4.001177, 2.295918) rotate(12.000000) translate(-4.001177, -2.295918) "></path>
                                <g id="t-link" transform="translate(1.500000, 2.500000) scale(-1, 1) translate(-1.500000, -2.500000) ">
                                    <path d="M0.376176671,0.420918055 L0.376176671,4.17091806 L1.62617667,4.17091806 L0.376176671,0.420918055 Z" id="t" transform="translate(1.001177, 2.295918) rotate(12.000000) translate(-1.001177, -2.295918) "></path>
                                </g>
                            </g>
                            <g id="c1-link" transform="translate(3.964181, 3.850933) rotate(40.000000) translate(-3.964181, -3.850933) translate(0.964181, 1.350933)">
                                <g id="c1">
                                    <path d="M3.37617667,0.420918055 L3.37617667,4.17091806 L4.62617667,4.17091806 L3.37617667,0.420918055 Z" id="t" transform="translate(4.001177, 2.295918) rotate(12.000000) translate(-4.001177, -2.295918) "></path>
                                    <g id="t-link" transform="translate(1.500000, 2.500000) scale(-1, 1) translate(-1.500000, -2.500000) ">
                                        <path d="M0.376176671,0.420918055 L0.376176671,4.17091806 L1.62617667,4.17091806 L0.376176671,0.420918055 Z" id="t" transform="translate(1.001177, 2.295918) rotate(12.000000) translate(-1.001177, -2.295918) "></path>
                                    </g>
                                </g>
                            </g>
                            <g id="c1-link" transform="translate(4.477212, 4.739528) rotate(80.000000) translate(-4.477212, -4.739528) translate(1.477212, 2.239528)">
                                <g id="c1">
                                    <path d="M3.37617667,0.420918055 L3.37617667,4.17091806 L4.62617667,4.17091806 L3.37617667,0.420918055 Z" id="t" transform="translate(4.001177, 2.295918) rotate(12.000000) translate(-4.001177, -2.295918) "></path>
                                    <g id="t-link" transform="translate(1.500000, 2.500000) scale(-1, 1) translate(-1.500000, -2.500000) ">
                                        <path d="M0.376176671,0.420918055 L0.376176671,4.17091806 L1.62617667,4.17091806 L0.376176671,0.420918055 Z" id="t" transform="translate(1.001177, 2.295918) rotate(12.000000) translate(-1.001177, -2.295918) "></path>
                                    </g>
                                </g>
                            </g>
                        </g>
                    </g>
                    <g id="c3-link" transform="translate(6.066987, 6.383975) rotate(240.000000) translate(-6.066987, -6.383975) translate(2.066987, 1.883975)">
                        <g id="c3">
                            <g id="c1" transform="translate(0.000000, 1.000000)">
                                <path d="M3.37617667,0.420918055 L3.37617667,4.17091806 L4.62617667,4.17091806 L3.37617667,0.420918055 Z" id="t" transform="translate(4.001177, 2.295918) rotate(12.000000) translate(-4.001177, -2.295918) "></path>
                                <g id="t-link" transform="translate(1.500000, 2.500000) scale(-1, 1) translate(-1.500000, -2.500000) ">
                                    <path d="M0.376176671,0.420918055 L0.376176671,4.17091806 L1.62617667,4.17091806 L0.376176671,0.420918055 Z" id="t" transform="translate(1.001177, 2.295918) rotate(12.000000) translate(-1.001177, -2.295918) "></path>
                                </g>
                            </g>
                            <g id="c1-link" transform="translate(3.964181, 3.850933) rotate(40.000000) translate(-3.964181, -3.850933) translate(0.964181, 1.350933)">
                                <g id="c1">
                                    <path d="M3.37617667,0.420918055 L3.37617667,4.17091806 L4.62617667,4.17091806 L3.37617667,0.420918055 Z" id="t" transform="translate(4.001177, 2.295918) rotate(12.000000) translate(-4.001177, -2.295918) "></path>
                                    <g id="t-link" transform="translate(1.500000, 2.500000) scale(-1, 1) translate(-1.500000, -2.500000) ">
                                        <path d="M0.376176671,0.420918055 L0.376176671,4.17091806 L1.62617667,4.17091806 L0.376176671,0.420918055 Z" id="t" transform="translate(1.001177, 2.295918) rotate(12.000000) translate(-1.001177, -2.295918) "></path>
                                    </g>
                                </g>
                            </g>
                            <g id="c1-link" transform="translate(4.477212, 4.739528) rotate(80.000000) translate(-4.477212, -4.739528) translate(1.477212, 2.239528)">
                                <g id="c1">
                                    <path d="M3.37617667,0.420918055 L3.37617667,4.17091806 L4.62617667,4.17091806 L3.37617667,0.420918055 Z" id="t" transform="translate(4.001177, 2.295918) rotate(12.000000) translate(-4.001177, -2.295918) "></path>
                                    <g id="t-link" transform="translate(1.500000, 2.500000) scale(-1, 1) translate(-1.500000, -2.500000) ">
                                        <path d="M0.376176671,0.420918055 L0.376176671,4.17091806 L1.62617667,4.17091806 L0.376176671,0.420918055 Z" id="t" transform="translate(1.001177, 2.295918) rotate(12.000000) translate(-1.001177, -2.295918) "></path>
                                    </g>
                                </g>
                            </g>
                        </g>
                    </g>
                </g>
            </g>
        </g>
    </g>
</svg>