<?xml version="1.0" encoding="UTF-8" standalone="no"?>
<svg width="100px" height="50px" viewBox="0 0 100 50" version="1.1" xmlns="http://www.w3.org/2000/svg" xmlns:xlink="http://www.w3.org/1999/xlink" xmlns:sketch="http://www.bohemiancoding.com/sketch/ns">
    <!-- Generator: Sketch 3.3.2 (12043) - http://www.bohemiancoding.com/sketch -->
    <title>flag-kelantan</title>
    <desc>Created with Sketch.</desc>
    <defs></defs>
    <g id="Page-1" stroke="none" stroke-width="1" fill="none" fill-rule="evenodd" sketch:type="MSPage">
        <g id="Artboard-6" sketch:type="MSArtboardGroup" transform="translate(-23.000000, -99.000000)">
            <g id="flag-kelantan" sketch:type="MSLayerGroup" transform="translate(23.000000, 99.000000)">
                <g id="g2986" sketch:type="MSShapeGroup">
                    <path d="M0.107973141,25.0050574 L0.107973141,0.0674011945 L50.0455506,0.0674011945 L99.9831286,0.0674011945 L99.9831286,25.0050574 L99.9831286,49.9427132 L50.0455506,49.9427132 L0.107973141,49.9427132 L0.107973141,25.0050574 L0.107973141,25.0050574 Z" id="path3503" fill="#DA251D"></path>
                    <g id="g2985" transform="translate(31.835206, 8.478805)" fill="#FFFFFF">
                        <path d="M16.8037528,32.5488117 C16.2852996,32.4949988 15.8329513,32.4225337 15.7985343,32.3877805 C15.7641211,32.3530274 15.58096,32.3243603 15.3915144,32.3240748 C15.2020712,32.3238254 14.9383421,32.2669214 14.8054532,32.197702 C14.6725655,32.1284825 14.47599,32.0718479 14.3686205,32.0718479 C14.2612534,32.0718479 14.1164644,32.01498 14.0468727,31.9454738 C13.9772784,31.8759688 13.8760375,31.819101 13.8218876,31.819101 C13.7677403,31.819101 13.6226804,31.7666234 13.4995356,31.702485 C13.3763895,31.6383479 13.06499,31.4892556 12.8075356,31.3711746 C12.5500824,31.2530923 12.1419925,31.0237781 11.9006742,30.8615848 C11.6593533,30.6993928 11.3860187,30.5426297 11.2932597,30.5132257 C11.2005006,30.4838204 11.124608,30.4244077 11.124608,30.3811933 C11.124608,30.3379788 11.0835468,30.3026222 11.033362,30.3026222 C10.9383358,30.3026222 10.1755993,29.718086 10.1264182,29.6075686 C10.1109513,29.5728167 10.0515481,29.5443828 9.99440449,29.5443828 C9.88302871,29.5443828 8.76269538,28.4358778 8.76269538,28.3256796 C8.76269538,28.3041085 8.65830712,28.176985 8.5307216,28.043182 C8.40313608,27.9093815 8.24180899,27.7141259 8.17221723,27.609283 C8.10262547,27.5044426 7.98576155,27.3377456 7.91252185,27.2388516 C7.42210737,26.5766584 6.99126092,25.9040574 6.99126092,25.8006633 C6.99126092,25.7336833 6.95723346,25.6578753 6.91564295,25.6322045 C6.79475531,25.5575835 6.48513733,24.9206783 6.48513733,24.7466247 C6.48513733,24.6592382 6.45392135,24.5751047 6.41576779,24.5596596 C6.3491598,24.5326958 6.01002996,23.5120885 5.80455306,22.7202269 C5.59127466,21.8983055 5.52454307,21.1837631 5.52522971,19.7293928 C5.52610362,17.9673554 5.61476654,17.2556222 5.97256554,16.1401035 C6.11529463,15.6951097 6.23207491,15.2684638 6.23207491,15.1919988 C6.23207491,15.1155349 6.30799376,14.9115012 6.40078277,14.738591 C6.49357179,14.5656833 6.56949064,14.3762594 6.56949064,14.3176521 C6.56949064,14.2590461 6.60745069,14.2110935 6.65384519,14.2110935 C6.7002397,14.2110935 6.7381985,14.1379776 6.7381985,14.0486147 C6.7381985,13.9592494 6.79513733,13.8292668 6.86473034,13.7597606 C6.9343221,13.6902569 6.99126092,13.5877643 6.99126092,13.5320025 C6.99126092,13.4762431 7.06656929,13.308919 7.15861298,13.1601746 L7.3259638,12.8897307 L6.95502497,12.6236771 C6.75100999,12.4773441 6.52252934,12.3576197 6.44729089,12.3576197 C6.37205243,12.3576197 6.21840824,12.2973579 6.10585893,12.2237045 C5.73815106,11.9830736 3.83901373,12.137995 2.716397,12.5001995 C2.35485144,12.6168504 2.25680275,12.6221845 2.14700749,12.5311758 C2.07406117,12.4707082 2.01437453,12.3857095 2.01437453,12.3422868 C2.01437453,12.2467469 2.62366916,11.694687 4.0430824,10.5041446 C4.66245318,9.98464589 4.79805618,9.84611097 4.79805618,9.73286035 C4.79805618,9.57055611 4.17365668,9.03055736 3.73482522,8.81335037 C3.40169663,8.64846259 3.1913995,8.60890773 2.64702871,8.60874564 C1.98371411,8.60849626 1.60336454,8.72499127 1.06045069,9.09446509 C0.845163546,9.24097631 0.664709114,8.97748753 0.664709114,8.5166197 C0.664709114,8.22370324 0.613357054,8.1107394 0.369470662,7.86715586 C0.206990012,7.70487781 0.0742309613,7.48703616 0.0742309613,7.38270324 C0.0742309613,7.14545262 0.766438202,6.4757288 1.07512484,6.41431983 C1.19735456,6.39000299 1.41393758,6.33351085 1.55641573,6.28878142 C1.90795755,6.17841708 2.82035331,6.18607706 3.18934082,6.30248791 C3.89916854,6.52642968 4.97886891,7.15718329 5.50924719,7.6577606 C5.6052372,7.74835661 5.7835618,7.87472943 5.90552559,7.93858853 C6.02748564,8.00244763 6.14966542,8.11296633 6.17702747,8.18418579 C6.25629463,8.39048753 6.4396392,8.33763342 6.89685019,7.97667955 C7.13162297,7.79133292 7.36279026,7.63968454 7.41054931,7.63968454 C7.45830836,7.63968454 7.49738452,7.60177307 7.49738452,7.55543516 C7.49738452,7.43811222 7.77970662,7.44986035 7.90228464,7.57228554 C7.96459426,7.63451621 8.00350936,7.93959102 8.00350936,8.3658217 C8.00350936,8.7937419 8.04904869,9.14937406 8.1227191,9.29677182 C8.18828464,9.42795387 8.31165293,9.68294264 8.39687016,9.86341272 C8.48208739,10.043884 8.66998876,10.3185549 8.81442821,10.4737905 L9.07704619,10.7560387 L9.36272909,10.4142706 C9.51985518,10.2262993 9.75751935,10.0145648 9.89087266,9.94374938 C10.1098065,9.82748753 10.146417,9.82806234 10.2681723,9.9496596 C10.3917241,10.0730574 10.3892921,10.1097756 10.2391448,10.3882332 C10.1490212,10.5553803 10.0266829,10.7107606 9.96728839,10.7335249 C9.90789263,10.756288 9.85929713,10.8289152 9.85929713,10.8949165 C9.85929713,10.9609177 9.8023583,11.0367419 9.73276654,11.063414 C9.66317478,11.090086 9.60623596,11.1431035 9.60623596,11.1812307 C9.60623596,11.3004002 11.9641298,13.6117481 12.01003,13.5375736 C12.0339613,13.498899 12.0282285,11.8010287 11.9972871,9.76453117 C11.9443283,6.27899726 11.9322722,6.06409539 11.7917166,6.10080511 C11.709593,6.12225399 11.6219875,6.19293541 11.5970375,6.25787444 C11.5341635,6.4215101 11.0712297,6.4095889 11.0071024,6.2426818 C10.9789401,6.16938703 10.9559001,5.73532855 10.9559001,5.27810761 L10.9559001,4.44679738 L11.2675156,4.21082643 C12.002422,3.65432494 12.0613159,3.57358092 11.949025,3.27646222 C11.8928027,3.12770399 11.8212846,3.00599227 11.7900911,3.00599227 C11.7588989,3.00599227 11.708407,2.90663254 11.6778889,2.78519289 C11.6473733,2.66375249 11.5673383,2.50939763 11.5000362,2.44217968 C11.3357878,2.27813628 11.3459576,2.06393529 11.5361448,1.68166708 C11.6233084,1.50647756 11.822593,1.09034564 11.9790037,0.756929925 C12.3528177,-0.039911596 12.5713408,-0.130195137 12.8025218,0.416691895 C12.8658639,0.566542768 13.0456816,0.956677182 13.2021086,1.28365536 C13.5015381,1.90955686 13.5738964,2.47727444 13.3810774,2.68788554 C13.2090836,2.8757495 12.9803958,3.34503915 12.9803958,3.51012045 C12.9803958,3.60255748 13.1634382,3.78494352 13.440628,3.96870212 C13.6937566,4.13650973 13.9245393,4.31207332 13.9534831,4.35884663 C14.0156305,4.4592813 14.0664007,6.11756471 14.0120125,6.27063479 C13.9549026,6.43136721 13.5810524,6.39617145 13.3408302,6.20744813 C13.2228664,6.11477444 13.0935119,6.03895037 13.0533745,6.03895037 C12.966166,6.03895037 12.959593,8.38694638 13.0365169,12.0642843 L13.0926355,14.7471434 L13.5586005,15.3005411 C13.8148764,15.6049102 14.0743171,15.8842581 14.1351323,15.921313 C14.1959501,15.9583691 14.2457066,16.0234065 14.2457066,16.0658429 C14.2457066,16.1082818 14.3500949,16.2548367 14.4776804,16.3915237 C15.1526142,17.1146072 15.5953708,17.6362594 15.5953708,17.7083778 C15.5953708,17.731015 15.661799,17.8188641 15.74299,17.903596 C15.9054906,18.073182 16.0605805,18.2579252 16.5655693,18.8834476 C16.7510762,19.1132357 16.9672684,19.3671247 17.0459913,19.4476471 C17.4100762,19.8200549 17.5421748,20.4478753 17.2556779,20.4442332 C16.8962122,20.4396571 16.170985,20.0203853 15.3954632,19.3687843 C15.1903196,19.1964202 14.897819,18.960616 14.7454607,18.8447743 C14.5931024,18.7289314 14.3386255,18.5204152 14.1799538,18.3814052 C14.0212821,18.242394 13.7908589,18.0426384 13.6679014,17.9375025 C13.5449426,17.8323678 13.3779139,17.6835648 13.2967241,17.6068292 C13.156779,17.4745648 13.148839,17.5042107 13.1439888,18.1771047 C13.1411798,18.56749 13.1313708,19.9294776 13.1221998,21.2037406 C13.1130362,22.478005 13.0733109,23.5869302 13.0339351,23.66802 C12.9821074,23.7747569 12.8614295,23.8154551 12.5967566,23.8154551 C12.3956816,23.8154551 12.2066592,23.7758504 12.1767054,23.7274451 C12.1467528,23.6790387 12.1272946,23.0629701 12.1334669,22.3584015 C12.1396342,21.6538317 12.1180874,20.0727007 12.0855743,18.8447743 L12.0264607,16.6121796 L11.7575718,16.3594327 C11.3976829,16.0211459 11.0364257,15.7275673 10.9800462,15.7275673 C10.954814,15.7275673 10.7930849,15.6043529 10.6206479,15.4537581 C10.2062909,15.0918853 9.82345069,14.7784676 9.66873283,14.6744564 C9.59980524,14.6281197 9.32342572,14.4197257 9.05455056,14.2113579 C8.73656804,13.9649364 8.55325843,13.8697519 8.53012984,13.9390536 C8.51057179,13.9976546 8.44101998,14.0990823 8.37557054,14.1644501 C8.3101211,14.2298167 8.25657179,14.3902805 8.25657179,14.5210337 C8.25657179,14.6517868 8.20029089,15.0241384 8.13150437,15.3484776 C8.06272035,15.6728192 8.0064382,16.2983529 8.0064382,16.7385524 C8.0064382,17.1787531 8.06271785,17.8042868 8.13150437,18.1286272 C8.20029338,18.4529676 8.25657179,18.8182756 8.25657179,18.9404227 C8.25657179,19.0625711 8.31327591,19.2710998 8.38258302,19.4038229 C8.45188889,19.5365474 8.51003496,19.7399177 8.5117965,19.8557594 C8.5135568,19.9716022 8.57073034,20.1399738 8.63884644,20.2299202 C8.7069638,20.3198653 8.76269538,20.4382606 8.76269538,20.4930187 C8.76269538,20.5907107 9.03106367,21.207606 9.18183396,21.4564875 C9.22393883,21.5259925 9.34614357,21.7724202 9.45340075,22.0041047 C9.56065793,22.2357893 9.69174157,22.4632618 9.74469913,22.5095985 C9.79765543,22.5559352 9.9358377,22.745495 10.0517678,22.9308429 C10.4757029,23.6086185 12.0294694,25.0256658 13.0271074,25.6443716 C13.3158901,25.8234688 14.0634345,26.1744227 14.1561286,26.1744227 C14.2053983,26.1744227 14.2457066,26.2074888 14.2457066,26.247904 C14.2457066,26.288318 14.3880537,26.3448329 14.5620337,26.3734913 C14.7360137,26.4021509 14.9876142,26.483091 15.1211436,26.5533616 C15.2546779,26.6236309 15.7481461,26.7599389 16.2177466,26.8562656 C17.38096,27.0948728 19.9416292,27.050687 20.8674969,26.7760337 C21.7392959,26.5174227 22.2701273,26.3404863 22.5545768,26.2137045 C22.6937615,26.1516708 22.864578,26.0791234 22.9341698,26.0524913 C23.0037628,26.0258579 23.1745793,25.9282219 23.3137628,25.8355187 C23.4529476,25.742813 23.6332534,25.6440312 23.7144444,25.6159975 C23.7956355,25.5879663 23.8620649,25.5315387 23.8620649,25.490606 C23.8620649,25.4496746 23.9131236,25.4161833 23.9755206,25.4161833 C24.0379251,25.4161833 24.1576829,25.3403591 24.2416579,25.2476858 C24.3256317,25.1550112 24.4257179,25.0791883 24.4640824,25.0791883 C24.5024382,25.0791883 24.6640175,24.9559738 24.8231436,24.8053791 C24.9822684,24.6547843 25.3056142,24.3531334 25.5416879,24.1350449 C25.7777603,23.9169564 25.9709151,23.7195661 25.9709151,23.6964002 C25.9709151,23.6732344 26.1218152,23.4915062 26.3062472,23.2925611 C26.4906879,23.0936147 26.6850899,22.8265848 26.7382584,22.6991584 C26.7914182,22.5717319 26.8638527,22.4674738 26.899206,22.4674738 C26.9345493,22.4674738 26.9857953,22.4011272 27.0130499,22.3200387 C27.0403208,22.2389489 27.1076692,22.0967793 27.1627278,22.0041047 C27.4725431,21.4826135 27.7093745,20.9493092 27.9109813,20.3191284 C28.0147453,19.9947706 28.150015,19.5777382 28.2115768,19.3923915 C28.2731298,19.2070436 28.3685506,18.5246284 28.4236255,17.8759115 C28.5336155,16.5802519 28.4373845,15.2108317 28.1741149,14.3250873 L28.0372934,13.8647319 L27.851166,14.0379077 C27.7488027,14.1331571 27.6426679,14.2110873 27.6153208,14.2110873 C27.5879638,14.2110873 27.477638,14.3058678 27.3701448,14.4217095 C27.2626529,14.5375524 27.1410986,14.6325125 27.1000187,14.6327344 C27.0589463,14.6329838 26.8808839,14.7656484 26.7043134,14.927606 C26.5277528,15.0895623 26.3474457,15.2220736 26.3036317,15.2220736 C26.2598277,15.2220736 26.2239763,15.25098 26.2239763,15.2863117 C26.2239763,15.3216421 25.8844345,15.5965037 25.4694307,15.897116 L24.7148839,16.443682 L24.7033109,17.7916633 C24.6969438,18.5330536 24.6969813,20.114409 24.703387,21.3057893 C24.7110524,22.7311322 24.6835643,23.5306746 24.6229975,23.6436945 C24.5544757,23.7715711 24.4467141,23.8154613 24.2012934,23.8154613 C23.6054082,23.8154613 23.6090025,23.8355112 23.6090025,20.5090686 L23.6090025,17.5771621 L23.3770287,17.7253828 C23.2494432,17.8069027 23.1070961,17.9153915 23.0607016,17.9664676 C23.0143059,18.0175449 22.7315768,18.2455387 22.4324157,18.4731209 C22.1332459,18.7007007 21.8265855,18.9437718 21.7509538,19.0132781 C21.159834,19.5564526 20.201829,20.2188105 19.7975356,20.3638541 C19.5424507,20.4553678 19.4630924,20.4557269 19.3546779,20.3658616 C19.1767953,20.218419 19.1883858,20.0888566 19.4010287,19.8475935 C19.4991685,19.7362444 19.6412172,19.5503628 19.7166941,19.43452 C19.9146067,19.1307594 19.9404632,19.0986122 20.3602497,18.6343379 C20.5696429,18.4027531 20.7409663,18.1874589 20.7409663,18.1559052 C20.7409663,18.1243516 20.8643333,17.9632743 21.0151161,17.7979526 C21.1658989,17.6326322 21.327226,17.4493429 21.3736205,17.3906446 C21.4611386,17.2799227 22.1560462,16.4456833 22.6965705,15.8024414 C22.8674544,15.599086 23.1426255,15.2810524 23.3080699,15.0957057 L23.6088677,14.7587095 L23.6089263,10.4014751 C23.6090025,6.28661334 23.600799,6.04734913 23.4613833,6.10007207 C23.3801923,6.13077743 23.2636067,6.20541172 23.2022984,6.26592594 C23.0456866,6.42050411 22.6260587,6.40523741 22.563603,6.24268678 C22.497588,6.07086883 22.4990886,4.70704027 22.565563,4.45928978 C22.5935356,4.3550318 22.6594494,4.26938017 22.7120275,4.26895312 C22.8449613,4.26786833 23.6119164,3.57517319 23.6103046,3.45764601 C23.6095556,3.40486247 23.4571598,3.10216895 23.2715818,2.78499239 C23.0860025,2.46781484 22.9341648,2.18140761 22.9341648,2.1485303 C22.9341648,2.11565387 23.0811685,1.77384364 23.260834,1.38895374 C23.4405006,1.00406372 23.6284157,0.58723591 23.6784207,0.46266808 C23.9088764,-0.111386658 24.2993333,0.0265607232 24.5856729,0.783191895 C24.6713258,1.00949364 24.7902747,1.24474501 24.8500225,1.30597618 C24.9097703,1.36720574 24.9586617,1.472799 24.9586617,1.54062444 C24.9586617,1.6084515 25.0210162,1.75898728 25.097221,1.87515037 C25.2307703,2.07872344 25.2231448,2.11183491 24.8860499,2.79127481 C24.574226,3.41976434 24.50897,3.76423678 24.7017191,3.76423678 C24.7661486,3.76423678 24.9982747,3.94932893 25.4015206,4.32223703 C25.6231685,4.52721022 25.6334931,4.57231621 25.6334931,5.33552057 C25.6334931,6.24589077 25.5592709,6.46688978 25.2760936,6.3997207 C25.1710986,6.37481683 25.0472335,6.30954077 25.000839,6.25466359 C24.9544444,6.19978728 24.8500562,6.12999214 24.7688652,6.09956484 C24.6296305,6.04738454 24.6212459,6.26155175 24.6212459,9.87080923 L24.6212459,13.6973741 L25.4659838,12.8379352 C25.9305805,12.3652456 26.462593,11.8268504 26.6482297,11.6415025 L26.9857566,11.3045075 L26.5989089,10.8628728 C26.335226,10.5618404 26.2206742,10.3606708 26.2391049,10.231005 C26.2810624,9.93586783 26.5705905,9.95183915 26.9219588,10.2686708 C27.4192097,10.7170324 27.4755655,10.7568903 27.6122534,10.7568903 C27.6838027,10.7568903 27.7423446,10.7058978 27.7423446,10.6435748 C27.7423446,10.5812506 27.8147703,10.4647993 27.9032834,10.384793 C27.9917878,10.304788 28.1815918,9.99391272 28.3250537,9.69396135 C28.5531211,9.21707731 28.5858839,9.05892394 28.5858839,8.43445761 C28.5858839,7.75610723 28.5963583,7.71555237 28.7949725,7.62517332 C28.9744107,7.54351496 29.0551286,7.56404613 29.364362,7.77001621 C29.5625181,7.90200998 29.7649675,8.0568616 29.814231,8.11412968 C30.0062547,8.33737032 30.3241174,8.3359389 30.5781074,8.11068828 C31.1789101,7.57787032 31.768814,7.13418953 31.8764245,7.13418953 C31.9224145,7.13418953 31.9600449,7.09533915 31.9600449,7.04785536 C31.9600449,7.00037157 32.0454532,6.92414401 32.1498414,6.87846097 C32.2542297,6.83277868 32.4914757,6.7026682 32.6770537,6.58932905 C32.862633,6.47599165 33.1183096,6.38161359 33.2452285,6.37960337 C33.3721561,6.37759464 33.6433383,6.33124788 33.8478627,6.27661334 C34.2799151,6.16119925 35.3376804,6.30720411 35.5410587,6.5103298 C35.6062472,6.57543217 35.7001336,6.62869601 35.7497079,6.62869601 C35.9339376,6.62869601 36.5151623,7.23853616 36.5151623,7.43184289 C36.5151623,7.53843267 36.4866929,7.63827805 36.4518964,7.65372444 C36.4170999,7.66916958 36.2842422,7.80792893 36.1566567,7.9620798 C35.9823059,8.17273067 35.9246841,8.33321197 35.9246841,8.60811721 C35.9246841,9.02884165 35.8606255,9.24041022 35.7332509,9.24041022 C35.6842834,9.24041022 35.4700749,9.13104863 35.2572322,8.99738279 C34.4992447,8.52135536 33.6714694,8.46579676 32.8879388,8.8383616 C32.4577591,9.04291022 31.8756904,9.61058229 31.8756904,9.82557107 C31.8756904,9.90427307 32.0317453,10.0986247 32.2224707,10.2574651 C32.4132035,10.4163055 32.6385543,10.6054988 32.7232547,10.677894 C32.8079551,10.7502893 32.9805431,10.8829813 33.1067878,10.9727643 C33.2330225,11.0625499 33.56402,11.3540025 33.8423283,11.6204401 C34.120638,11.8868766 34.3856779,12.1048703 34.4312971,12.1048703 C34.5570524,12.1048703 34.7305518,12.3781397 34.6831448,12.5015237 C34.6285256,12.6436434 34.2383208,12.6402132 33.8386255,12.4941047 C33.4666841,12.3581347 31.8189963,12.1028167 31.3213246,12.1040324 C30.7205468,12.1055037 29.8895668,12.4267344 29.4614532,12.8230037 L29.244824,13.0235112 L29.4424906,13.4277419 C29.551206,13.6500698 29.6687541,13.8532257 29.7037104,13.8792007 C29.8135805,13.9608441 30.5355081,15.8041022 30.5858002,16.1313853 C30.6121948,16.3031521 30.6631186,16.4815998 30.6989613,16.5279364 C30.7348202,16.5742743 30.8041423,16.8396571 30.8530424,17.1176783 C31.1135605,18.5988878 31.1875905,20.2672294 31.0357865,21.2361584 C30.9913908,21.5195224 30.9121323,22.0736172 30.8596467,22.46748 C30.8071698,22.8613429 30.7374432,23.2215075 30.7047141,23.2678441 C30.6719763,23.3141808 30.5753571,23.5606085 30.4899988,23.8154613 C30.4046417,24.0703142 30.2880899,24.3925661 30.23099,24.5315761 C30.1738914,24.6705873 30.0579551,24.9549264 29.9733558,25.1634426 C29.8887578,25.3719589 29.7697253,25.6024152 29.708839,25.6755698 C29.6479526,25.7487232 29.5981323,25.8377893 29.5981323,25.8734925 C29.5981323,25.988798 28.9860849,26.9326683 28.9113134,26.9326683 C28.8715069,26.9326683 28.8389463,26.9721147 28.8389463,27.0203279 C28.8389463,27.1035399 28.5588739,27.5353042 28.3727728,27.7389975 C28.3251548,27.7911147 28.1370537,28.0290885 27.954764,28.2678254 C27.7724669,28.5065636 27.5931635,28.701894 27.5563009,28.701894 C27.5194307,28.701894 27.4892821,28.7587618 27.4892821,28.8282668 C27.4892821,28.8977731 27.4608127,28.9551758 27.4260162,28.9558304 C27.391221,28.9564539 27.1919338,29.1122294 26.9831586,29.3019314 C26.774382,29.4916359 26.4707079,29.7467893 26.3083258,29.8689439 C26.1459438,29.991096 25.9941074,30.1102132 25.9709101,30.1336446 C25.8466392,30.2591708 25.3750749,30.5553678 25.2994944,30.5553678 C25.2512185,30.5553678 25.2117241,30.5838666 25.2117241,30.6186995 C25.2117241,30.6535324 25.031417,30.775818 24.8110424,30.8904476 C24.5906667,31.0050773 24.3913808,31.1233703 24.3681835,31.1533254 C24.3449863,31.1832781 24.1362097,31.2900262 23.904236,31.3905411 C23.6722622,31.4910574 23.3817141,31.6286022 23.2585655,31.6961983 C23.135417,31.7637955 22.9740899,31.819101 22.9000612,31.819101 C22.8260312,31.819101 22.7654569,31.8552955 22.7654569,31.8995324 C22.7654569,31.9437668 22.6231099,32.0030511 22.4491298,32.0312693 C22.2751498,32.059485 22.0379039,32.1240262 21.9219164,32.1746883 C21.1461211,32.5135524 18.3987828,32.7143766 16.8037491,32.548813 L16.8037478,32.5488117 L16.8037528,32.5488117 Z" id="path2606"></path>
                        <path d="M18.2212185,5.66152182 L19.3699326,9.07837406 L22.8160749,9.07837406 L19.9442896,11.158197 L21.0930037,14.5750499 L18.2212185,12.4952269 L15.4930212,14.5750499 L16.6417353,11.158197 L13.7699501,9.07837406 L17.2160924,9.07837406 L18.2212185,5.66152182 L18.2212185,5.66152182 Z" id="path8787"></path>
                    </g>
                </g>
            </g>
        </g>
    </g>
</svg>