<?xml version="1.0" encoding="UTF-8" standalone="no"?>
<svg width="100px" height="51px" viewBox="0 0 100 51" version="1.1" xmlns="http://www.w3.org/2000/svg" xmlns:xlink="http://www.w3.org/1999/xlink" xmlns:sketch="http://www.bohemiancoding.com/sketch/ns">
    <!-- Generator: Sketch 3.3.2 (12043) - http://www.bohemiancoding.com/sketch -->
    <title>flag-melaka</title>
    <desc>Created with Sketch.</desc>
    <defs></defs>
    <g id="Page-1" stroke="none" stroke-width="1" fill="none" fill-rule="evenodd" sketch:type="MSPage">
        <g id="Artboard-6" sketch:type="MSArtboardGroup" transform="translate(-133.000000, -159.000000)">
            <g id="flag-melaka" sketch:type="MSLayerGroup" transform="translate(133.000000, 159.200000)">
                <path d="M0,0 L100,0 L100,50 L0,50 L0,0 L0,0 Z" id="path8" fill="#FFFFFF" sketch:type="MSShapeGroup"></path>
                <g id="Layer-1" sketch:type="MSShapeGroup">
                    <rect id="rect11" fill="#002B7F" x="0" y="0" width="50" height="25"></rect>
                    <rect id="rect13" fill="#C30000" x="49.8466258" y="0" width="50.1533742" height="25"></rect>
                    <path d="M19.4785276,21.9879518 C11.3496933,18.0722892 11.3496933,6.62650602 19.4785276,2.71084337 C13.9570552,2.40963855 9.20245399,6.92771084 9.20245399,12.3493976 C9.20245399,17.7710843 13.9570552,22.1385542 19.4785276,21.9879518 L19.4785276,21.9879518 Z" id="path15" fill="#FCD116"></path>
                    <path d="M24.2331288,6.02409639 L25.1533742,10.6927711 L29.601227,11.1445783 L25.7668712,13.5542169 L26.5337423,18.2228916 L23.3128834,15.060241 L19.3251534,17.4698795 L21.3190184,13.1024096 L17.9447853,9.93975904 L22.392638,10.3915663 L24.2331288,6.02409639 L24.2331288,6.02409639 Z" id="path17" fill="#FCD116"></path>
                </g>
            </g>
        </g>
    </g>
</svg>