<?xml version="1.0" encoding="UTF-8" standalone="no"?>
<svg width="100px" height="50px" viewBox="0 0 100 50" version="1.1" xmlns="http://www.w3.org/2000/svg" xmlns:xlink="http://www.w3.org/1999/xlink" xmlns:sketch="http://www.bohemiancoding.com/sketch/ns">
    <!-- Generator: Sketch 3.3.2 (12043) - http://www.bohemiancoding.com/sketch -->
    <title>flag-selangor</title>
    <desc>Created with Sketch.</desc>
    <defs></defs>
    <g id="Page-1" stroke="none" stroke-width="1" fill="none" fill-rule="evenodd" sketch:type="MSPage">
        <g id="Artboard-6" sketch:type="MSArtboardGroup" transform="translate(-243.000000, -279.000000)">
            <g id="flag-selangor" sketch:type="MSLayerGroup" transform="translate(243.000000, 279.000000)">
                <path d="M0,0 L100,0 L100,50 L0,50 L0,0 L0,0 Z" id="Shape" fill="#FCD116" sketch:type="MSShapeGroup"></path>
                <g id="Layer-1" sketch:type="MSShapeGroup">
                    <path d="M0,0 L50,0 L50,25 L0,25 L0,0 L0,0 Z M50,25 L100,25 L100,50 L50,50 L50,25 L50,25 Z" id="Shape" fill="#DA251D"></path>
                    <g id="Group" transform="translate(11.166667, 1.166667)" fill="#FFFFFF">
                        <path d="M20.3333333,4.66666667 L19.8333333,9.66666667 L24.3333333,12 L19.3333333,13 L18.8333333,18 L16.3333333,13.5 L11.1666667,14.5 L14.6666667,10.8333333 L12.1666667,6.16666667 L16.8333333,8.33333333 L20.3333333,4.66666667 L20.3333333,4.66666667 Z" id="Shape"></path>
                        <path d="M13.3333333,22.1666667 C8.16666667,21.3333333 4.16666667,16.8333333 4.16666667,11.1666667 C4.16666667,5.66666667 8.33333333,1 13.8333333,0.166666667 C13.5,0.166666667 11.8333333,0 11.3333333,0 C5,0 0,5 0,11.1666667 C0,17.3333333 5,22.3333333 11.3333333,22.3333333 C12,22.3333333 12.6666667,22.3333333 13.3333333,22.1666667 L13.3333333,22.1666667 L13.3333333,22.1666667 Z" id="Shape"></path>
                    </g>
                </g>
            </g>
        </g>
    </g>
</svg>