<?xml version="1.0" encoding="UTF-8" standalone="no"?>
<svg width="100px" height="50px" viewBox="0 0 100 50" version="1.1" xmlns="http://www.w3.org/2000/svg" xmlns:xlink="http://www.w3.org/1999/xlink" xmlns:sketch="http://www.bohemiancoding.com/sketch/ns">
    <!-- Generator: Sketch 3.3.2 (12043) - http://www.bohemiancoding.com/sketch -->
    <title>flag-terengganu</title>
    <desc>Created with Sketch.</desc>
    <defs></defs>
    <g id="Page-1" stroke="none" stroke-width="1" fill="none" fill-rule="evenodd" sketch:type="MSPage">
        <g id="Artboard-6" sketch:type="MSArtboardGroup" transform="translate(-23.000000, -340.000000)">
            <g id="flag-terengganu" sketch:type="MSLayerGroup" transform="translate(23.000000, 340.000000)">
                <rect id="Rectangle-path" fill="#FFFFFF" sketch:type="MSShapeGroup" x="0" y="0" width="100" height="50"></rect>
                <rect id="Rectangle-path" fill="#000000" sketch:type="MSShapeGroup" x="8.33333333" y="8.33333333" width="83.3333333" height="33.3333333"></rect>
                <path d="M59.5,17.5 L58.8333333,23.3333333 L64,25.8333333 L58.3333333,27 L57.6666667,32.6666667 L54.8333333,27.6666667 L49,28.6666667 L53,24.5 L50.1666667,19.3333333 L55.5,21.8333333 L59.5,17.5 L59.5,17.5 Z M51.5,37.5 C45.5,36.5 41,31.3333333 41,25 C41,18.6666667 45.8333333,13.3333333 52,12.5 C51.6666667,12.5 49.6666667,12.3333333 49.1666667,12.3333333 C42,12.3333333 36.3333333,18 36.3333333,25 C36.3333333,32 42,37.6666667 49.1666667,37.6666667 C49.8333333,37.6666667 50.6666667,37.6666667 51.5,37.5 L51.5,37.5 Z" id="Shape" fill="#FFFFFF" sketch:type="MSShapeGroup"></path>
            </g>
        </g>
    </g>
</svg>