<?xml version="1.0" encoding="UTF-8" standalone="no"?>
<svg width="99px" height="49px" viewBox="0 0 99 49" version="1.1" xmlns="http://www.w3.org/2000/svg" xmlns:xlink="http://www.w3.org/1999/xlink" xmlns:sketch="http://www.bohemiancoding.com/sketch/ns">
    <!-- Generator: Sketch 3.3.2 (12043) - http://www.bohemiancoding.com/sketch -->
    <title>flag-kedah</title>
    <desc>Created with Sketch.</desc>
    <defs>
        <path id="path-1" d="M0,0 L24.9653259,0 L24.9653259,24.9654126 L0,24.9654126 L0,0 L0,0 Z"></path>
        <path id="path-3" d="M4.35265257,10.9312673 C-0.981059293,7.9473561 0.16087292,0.123008842 0.16087292,0.123008842 C2.43534154,1.21325416 4.30566921,0.125930132 4.30566921,0.125930132 C4.30566921,0.125930132 6.2559206,1.24144417 8.45978675,0.0854221567 C8.45978675,0.0854221567 9.70977809,7.8862344 4.35265257,10.9312673 L4.35265257,10.9312673 Z"></path>
        <path id="path-5" d="M4.35265257,10.9312673 C-0.981059293,7.9473561 0.16087292,0.123008842 0.16087292,0.123008842 C2.43534154,1.21325416 4.30566921,0.125930132 4.30566921,0.125930132 C4.30566921,0.125930132 6.2559206,1.24144417 8.45978675,0.0854221567 C8.45978675,0.0854221567 9.70977809,7.8862344 4.35265257,10.9312673 L4.35265257,10.9312673 Z"></path>
    </defs>
    <g id="Page-1" stroke="none" stroke-width="1" fill="none" fill-rule="evenodd" sketch:type="MSPage">
        <g id="Artboard-6" sketch:type="MSArtboardGroup" transform="translate(-133.000000, -39.000000)">
            <g id="flag-kedah" sketch:type="MSLayerGroup" transform="translate(133.000000, 39.000000)">
                <g id="g4164">
                    <g id="g4409" transform="translate(0.068858, 0.053666)" fill="#D7111B" sketch:type="MSShapeGroup">
                        <rect id="rect3438" x="0.505344598" y="0.263948897" width="97.5909431" height="48.6562829"></rect>
                    </g>
                    <g id="1" transform="translate(7.270972, 1.328512)">
                        <g id="Group3-Clipped">
                            <mask id="mask-2" sketch:name="path3091" fill="white">
                                <use xlink:href="#path-1"></use>
                            </mask>
                            <g id="path3091"></g>
                            <g id="Group3" mask="url(#mask-2)">
                                <path d="M20.5976162,16.5358096 C20.2944782,16.8740551 19.9702757,16.923379 19.9702757,16.923379 C20.3156293,16.5568741 20.9923804,15.104811 20.9923804,15.104811 C21.1756328,14.731198 22.0849601,14.2729802 22.0849601,14.2729802 C23.5688367,13.4835385 23.1353242,11.8552098 23.1353242,11.8552098 C21.9122833,12.5284414 21.8099948,13.546992 21.8099948,13.546992 C21.7043256,14.3998873 21.1474601,14.64668 21.1474601,14.64668 C21.3447555,14.3153693 21.5422243,12.9548457 21.5422243,12.9548457 C21.6902826,12.55306 22.3175364,11.8904733 22.3175364,11.8904733 C22.5430912,11.6719834 22.8603589,11.3054352 22.8603589,11.3054352 C23.5793256,10.4806952 22.9096827,9.06385229 22.9096827,9.06385229 C21.7113471,10.114147 21.9651612,11.7071949 21.9651612,11.7071949 C21.9580531,12.0667216 21.5915482,12.539017 21.5915482,12.539017 C21.7466279,11.6719834 21.5140517,10.1775919 21.5140517,10.1775919 L21.6126994,9.86039355 C21.6126994,9.86039355 21.6126994,9.86039355 21.7536494,9.48678051 C21.8945995,9.11320215 21.9792909,9.04975728 21.9792909,9.04975728 C23.0365898,7.93600902 21.8664268,6.48394591 21.8664268,6.48394591 C21.5069435,6.91394764 21.3236911,7.70342406 21.3236911,7.70342406 C21.196784,8.33782074 21.5492458,9.25419556 21.5492458,9.25419556 C21.6055912,9.48678051 21.4434899,9.85332871 21.4434899,9.85332871 C21.253216,8.58454404 20.5059899,7.37213072 20.5059899,7.37213072 C20.5130981,7.13243759 20.6399185,6.99148752 20.6399185,6.99148752 C21.3483096,5.74382802 20.0619019,4.30581657 20.0619019,4.30581657 C19.5191661,6.02576283 20.2944782,6.85050277 20.2944782,6.85050277 C20.5412708,7.14653259 20.4566661,7.31571602 20.4566661,7.31571602 C19.7305912,6.07511269 18.9129768,5.4759362 18.9129768,5.4759362 C18.5886876,3.74896845 17.0731709,3.98861824 17.0731709,3.98861824 C17.1895024,5.54645458 18.8072209,5.715638 18.8072209,5.715638 C19.70944,6.50511442 20.1888089,7.4073509 20.1888089,7.4073509 C19.9772972,7.32278086 19.8645198,7.19588245 19.8645198,7.19588245 C18.9869192,5.77201803 17.517259,6.01166782 17.517259,6.01166782 C18.1128727,7.62237344 19.8856709,7.61178918 19.8856709,7.61178918 C20.3756155,7.63646845 20.5059899,7.97127254 20.5059899,7.97127254 C20.9147972,8.6479889 21.196784,9.92384709 21.196784,9.92384709 C21.0840066,9.81104369 20.936035,9.63128467 20.936035,9.63128467 C20.2522625,7.7668776 18.8072209,7.83734397 18.8072209,7.83734397 C19.2513089,9.69121879 20.6963506,9.80397885 20.6963506,9.80397885 C20.9642077,9.86039355 21.253216,10.2551318 21.253216,10.2551318 C21.4153173,11.3618065 21.3447555,12.2640863 21.3447555,12.2640863 C21.337734,12.1935766 21.2249567,11.9891817 21.2249567,11.9891817 C21.1192874,11.7918083 21.0628554,11.3618065 21.0628554,11.3618065 C20.8091279,10.057767 19.6036841,9.83220354 19.6036841,9.83220354 C19.3676404,11.5168949 21.1192874,12.1477722 21.1192874,12.1477722 C21.6126994,12.5848734 20.9147972,14.5056432 20.9147972,14.5056432 C20.9007542,14.4351682 20.8724948,14.1743325 20.8724948,14.1743325 C21.0241071,12.1548024 19.4839719,11.8693481 19.4839719,11.8693481 C19.4733096,12.8350468 19.6319435,13.1663575 19.6319435,13.1663575 C19.7835558,13.6034241 20.5553138,14.167311 20.5553138,14.167311 C20.7456744,14.3505635 20.8091279,14.6678311 20.8091279,14.6678311 C20.6893291,15.4783374 19.5543603,17.0221134 19.5543603,17.0221134 C19.5403173,16.6767597 19.6672243,16.4440967 19.6672243,16.4440967 C20.4777306,14.977904 19.462734,14.0192528 19.462734,14.0192528 C18.4759102,15.3233443 19.335827,16.3242979 19.335827,16.3242979 C19.4697555,16.5710038 19.4134102,17.2053658 19.4134102,17.2053658 C19.0892077,17.6918429 17.9543256,18.6362777 17.9543256,18.6362777 L17.9613471,18.5940621 C18.1022972,18.164017 18.2362257,18.0090239 18.2362257,18.0090239 C19.1807472,16.9023145 18.2573769,15.5840933 18.2573769,15.5840933 C17.3833304,16.5674497 17.7569435,17.7622313 17.7569435,17.7622313 C17.9965413,18.3296723 17.7357923,18.7279906 17.7357923,18.7279906 C17.3022798,19.2424671 15.9523318,19.8204837 15.9523318,19.8204837 C16.1849948,19.5456051 16.4669816,19.2848561 16.4669816,19.2848561 C17.4820648,18.4777306 16.967415,17.0291349 16.967415,17.0291349 C15.6457264,17.7728069 15.973483,19.3130288 15.973483,19.3130288 C15.9312673,19.8698942 15.5365031,20.010931 15.5365031,20.010931 C14.9584865,20.2645718 14.1267424,20.4408894 14.1267424,20.4408894 C14.2112604,20.2858096 14.3593187,20.2363991 14.3593187,20.2363991 C15.7973388,19.4258062 15.3743152,18.1711252 15.3743152,18.1711252 C14.013965,18.6927965 14.0491592,20.2152479 14.0491592,20.2152479 C14.0350295,20.5254074 13.7742805,20.5395371 13.7742805,20.5395371 L13.3160628,20.6029906 C13.8835038,20.2505288 13.837734,19.8770024 13.837734,19.8770024 C13.7742805,18.9499913 12.5759449,19.2495752 12.5759449,19.2495752 C12.5759449,19.2495752 11.3776092,18.9499913 11.3141557,19.8770024 C11.3141557,19.8770024 11.2683859,20.2505288 11.8357403,20.6029906 L11.3776092,20.5395371 C11.3776092,20.5395371 11.1167736,20.5254074 11.1026439,20.2152479 C11.1026439,20.2152479 11.1379248,18.6927965 9.77752254,18.1711252 C9.77752254,18.1711252 9.35455097,19.4258062 10.7925711,20.2363991 C10.7925711,20.2363991 10.9405426,20.2858096 11.0251474,20.4408894 C11.0251474,20.4408894 10.1933773,20.2645718 9.61536928,20.010931 C9.61536928,20.010931 9.22063107,19.8698942 9.17834605,19.3130288 C9.17834605,19.3130288 9.50611997,17.7728069 8.18442268,17.0291349 C8.18442268,17.0291349 7.66985957,18.4777306 8.68489945,19.2848561 C8.68489945,19.2848561 8.9668776,19.5456051 9.19950589,19.8204837 C9.19950589,19.8204837 7.84961859,19.2424671 7.41611477,18.7279906 C7.41611477,18.7279906 7.15529646,18.3296723 7.39494626,17.7622313 C7.39494626,17.7622313 7.76856796,16.5674497 6.89447816,15.5840933 C6.89447816,15.5840933 5.97107316,16.9023145 6.915638,18.0090239 C6.915638,18.0090239 7.04956657,18.164017 7.19055132,18.5940621 L7.19758148,18.6362777 C7.19758148,18.6362777 6.06271671,17.6918429 5.73845354,17.2053658 C5.73845354,17.2053658 5.68207351,16.5710038 5.81599341,16.3242979 C5.81599341,16.3242979 6.67598821,15.3233443 5.68913835,14.0192528 C5.68913835,14.0192528 4.67405513,14.977904 5.48470007,16.4440967 C5.48470007,16.4440967 5.61159847,16.6767597 5.59750347,17.0221134 C5.59750347,17.0221134 4.46259535,15.4783374 4.34277046,14.6678311 C4.34277046,14.6678311 4.40621533,14.3505635 4.59651526,14.167311 C4.59651526,14.167311 5.36838592,13.6034241 5.51995492,13.1663575 C5.51995492,13.1663575 5.67855409,12.8350468 5.6679785,11.8693481 C5.6679785,11.8693481 4.12779126,12.1548024 4.27931692,14.1743325 C4.27931692,14.1743325 4.25112691,14.4351682 4.2370319,14.5056432 C4.2370319,14.5056432 3.53919036,12.5848734 4.03263696,12.1477722 C4.03263696,12.1477722 5.78429265,11.5168949 5.54814494,9.83220354 C5.54814494,9.83220354 4.34277046,10.057767 4.08901699,11.3618065 C4.08901699,11.3618065 4.03263696,11.7918083 3.92690707,11.9891817 C3.92690707,11.9891817 3.81410368,12.1935766 3.80703883,12.2640863 C3.80703883,12.2640863 3.7365638,11.3618065 3.89867372,10.2551318 C3.89867372,10.2551318 4.18768204,9.86039355 4.45556519,9.80397885 C4.45556519,9.80397885 5.9006068,9.69121879 6.34465153,7.83734397 C6.34465153,7.83734397 4.89966193,7.7668776 4.2159154,9.63128467 C4.2159154,9.63128467 4.06785714,9.81104369 3.95509709,9.92384709 C3.95509709,9.92384709 4.2370319,8.6479889 4.64586512,7.97127254 C4.64586512,7.97127254 4.77627427,7.63646845 5.26616678,7.61178918 C5.26616678,7.61178918 7.03898232,7.62237344 7.63464806,6.01166782 C7.63464806,6.01166782 6.16493585,5.77201803 5.2873353,7.19588245 C5.2873353,7.19588245 5.1745319,7.32278086 4.96306345,7.4073509 C4.96306345,7.4073509 5.44241505,6.50511442 6.34465153,5.715638 C6.34465153,5.715638 7.96242198,5.54645458 8.07869279,3.98861824 C8.07869279,3.98861824 6.56318481,3.74896845 6.23892164,5.4759362 C6.23892164,5.4759362 5.4212552,6.07511269 4.69522365,7.31571602 C4.69522365,7.31571602 4.61065361,7.14653259 4.85733356,6.85050277 C4.85733356,6.85050277 5.63271498,6.02576283 5.08996186,4.30581657 C5.08996186,4.30581657 3.80352809,5.74382802 4.51194521,6.99148752 C4.51194521,6.99148752 4.63884362,7.13243759 4.64586512,7.37213072 C4.64586512,7.37213072 3.89867372,8.58454404 3.70837379,9.85332871 C3.70837379,9.85332871 3.54626387,9.48678051 3.6026439,9.25419556 C3.6026439,9.25419556 3.95509709,8.33782074 3.82819868,7.70342406 C3.82819868,7.70342406 3.64492892,6.91394764 3.28544556,6.48394591 C3.28544556,6.48394591 2.11532594,7.93600902 3.17264216,9.04975728 C3.17264216,9.04975728 3.25725555,9.11320215 3.39820562,9.48678051 L3.53919036,9.86039355 L3.63789875,10.1775919 C3.63789875,10.1775919 3.40527046,11.6719834 3.56035888,12.539017 C3.56035888,12.539017 3.19381068,12.0667216 3.18673717,11.7071949 C3.18673717,11.7071949 3.44053398,10.114147 2.24217233,9.06385229 C2.24217233,9.06385229 1.57256415,10.4806952 2.29153086,11.3054352 C2.29153086,11.3054352 2.6087292,11.6719834 2.83428398,11.8904733 C2.83428398,11.8904733 3.46165049,12.55306 3.6096654,12.9548457 C3.6096654,12.9548457 3.80703883,14.3153693 4.00440361,14.64668 C4.00440361,14.64668 3.44755548,14.3998873 3.34182559,13.546992 C3.34182559,13.546992 3.23960645,12.5284414 2.01661755,11.8552098 C2.01661755,11.8552098 1.58310506,13.4835385 3.06691227,14.2729802 C3.06691227,14.2729802 3.97622226,14.731198 4.15949202,15.104811 C4.15949202,15.104811 4.83620839,16.5568741 5.18159674,16.923379 C5.18159674,16.923379 4.85733356,16.8740551 4.55423024,16.5358096 C4.55423024,16.5358096 3.83527219,14.7594574 2.40433426,14.6185073 C2.40433426,14.6185073 2.37614424,16.4089026 4.35686546,16.8811633 C4.35686546,16.8811633 4.99832698,16.9375954 5.30849515,17.0996966 C5.30849515,17.0996966 6.07681172,18.0794123 6.73938974,18.6152132 C6.73938974,18.6152132 5.99926318,18.6081051 5.82305825,18.2415135 C5.82305825,18.2415135 5.26616678,17.0573076 3.46165049,17.0996966 C3.46165049,17.0996966 3.75065881,18.699818 5.83715326,18.7068395 C5.83715326,18.7068395 6.76762309,18.6574289 7.00020804,18.8195302 C7.00020804,18.8195302 8.15624133,19.7006848 8.86816921,19.968542 C8.86816921,19.968542 8.42412448,20.024974 8.1068828,19.8910454 C8.1068828,19.8910454 6.4221914,18.713861 5.16750173,19.5456051 C5.16750173,19.5456051 5.79486824,20.8215239 8.1068828,20.2435073 C8.1068828,20.2435073 9.07260749,20.0813193 9.25588592,20.1518811 C9.25588592,20.1518811 10.6303831,20.6804872 11.0604282,20.7440274 C11.0604282,20.7440274 10.6163402,21.018906 9.89734743,20.7086598 C9.89734743,20.7086598 8.94571775,20.1660107 7.853138,21.0400572 C7.853138,21.0400572 8.74834431,22.1748526 10.5246273,21.2303311 C10.5246273,21.2303311 11.229551,20.7862431 11.5608617,20.8425884 L12.0613818,20.9272798 C12.0613818,20.9272798 11.1237951,21.8857576 10.2567701,22.3862777 C10.2567701,22.3862777 10.0664875,22.4637743 10.2285974,22.5342493 C10.2285974,22.5342493 10.9342146,22.8586252 11.5333825,22.8867979 C11.5333825,22.8867979 12.3856709,22.0287015 12.5759449,21.0330357 C12.826465,22.1170336 13.6686113,22.8797764 13.6686113,22.8797764 C14.2676924,22.8516037 14.9584865,22.520293 14.9584865,22.520293 C15.1206744,22.4497313 14.9303138,22.3723214 14.9303138,22.3723214 C14.0632888,21.8717146 13.0905947,20.9272798 13.0905947,20.9272798 L13.5910281,20.8425884 C13.9222521,20.7862431 14.6271758,21.2303311 14.6271758,21.2303311 C16.4035281,22.1748526 17.2987257,21.0400572 17.2987257,21.0400572 C16.206146,20.1660107 15.2545163,20.7086598 15.2545163,20.7086598 C14.5355496,21.018906 14.0914615,20.7440274 14.0914615,20.7440274 C14.5214199,20.6804872 15.8959865,20.1518811 15.8959865,20.1518811 C16.0792389,20.0813193 17.0449983,20.2435073 17.0449983,20.2435073 C19.3570648,20.8215239 19.9844053,19.5456051 19.9844053,19.5456051 C18.7296377,18.713861 17.0449983,19.8910454 17.0449983,19.8910454 C16.7278173,20.024974 16.2837292,19.968542 16.2837292,19.968542 C16.9955877,19.7006848 18.151621,18.8195302 18.151621,18.8195302 C18.384284,18.6574289 19.3146758,18.7068395 19.3146758,18.7068395 C21.4012743,18.699818 21.6902826,17.0996966 21.6902826,17.0996966 C19.8856709,17.0573076 19.3288055,18.2415135 19.3288055,18.2415135 C19.1525745,18.6081051 18.4124567,18.6152132 18.4124567,18.6152132 C19.075078,18.0794123 19.8433686,17.0996966 19.8433686,17.0996966 C20.1535281,16.9375954 20.795085,16.8811633 20.795085,16.8811633 C22.7757542,16.4089026 22.7475815,14.6185073 22.7475815,14.6185073 C21.3165829,14.7594574 20.5976162,16.5358096 20.5976162,16.5358096 L20.5976162,16.5358096 Z M11.6806605,20.0813193 C11.6806605,20.0813193 11.5890343,19.6865551 11.7159414,19.707793 C11.7159414,19.707793 11.8005461,19.6936633 11.8005461,19.8628727 C11.8005461,19.8628727 11.782949,20.0778519 11.8710212,20.2363991 C11.8710212,20.2363991 12.0049497,20.4267597 12.0119712,20.5042562 C12.0119712,20.5042562 11.8288055,20.5113644 11.6806605,20.0813193 L11.6806605,20.0813193 Z M12.5759449,21.0191661 C12.4314407,21.0191661 12.3143291,20.9401959 12.3143291,20.8428485 C12.3143291,20.7453277 12.4314407,20.6664442 12.5759449,20.6664442 C12.7203623,20.6664442 12.837474,20.7453277 12.837474,20.8428485 C12.837474,20.9401959 12.7203623,21.0191661 12.5759449,21.0191661 L12.5759449,21.0191661 Z M12.5761182,20.45944 C12.415404,20.45944 12.2852028,20.3962465 12.2852028,20.3183166 C12.2852028,20.2403866 12.415404,20.1772798 12.5761182,20.1772798 C12.7368325,20.1772798 12.8669469,20.2403866 12.8669469,20.3183166 C12.8669469,20.3962465 12.7368325,20.45944 12.5761182,20.45944 L12.5761182,20.45944 Z M12.5759449,19.8068741 C12.3828103,19.8068741 12.2262569,19.743854 12.2262569,19.6659241 C12.2262569,19.5879941 12.3828103,19.5248006 12.5759449,19.5248006 C12.7690794,19.5248006 12.9256328,19.5879941 12.9256328,19.6659241 C12.9256328,19.743854 12.7690794,19.8068741 12.5759449,19.8068741 L12.5759449,19.8068741 Z M13.1398318,20.5042562 C13.14694,20.4267597 13.2808686,20.2363991 13.2808686,20.2363991 C13.3689407,20.0778519 13.3513436,19.8628727 13.3513436,19.8628727 C13.3513436,19.6936633 13.4359483,19.707793 13.4359483,19.707793 C13.5628554,19.6865551 13.4711425,20.0813193 13.4711425,20.0813193 C13.3230843,20.5113644 13.1398318,20.5042562 13.1398318,20.5042562 L13.1398318,20.5042562 Z" id="path3101" fill="#FFF2B6" sketch:type="MSShapeGroup"></path>
                                <path d="M24.9653259,12.482663 C24.9653259,19.376647 19.3765603,24.9654126 12.482663,24.9654126 C5.58865291,24.9654126 0,19.376647 0,12.482663 C0,5.58869626 5.58865291,0 12.482663,0 C19.3765603,0 24.9653259,5.58869626 24.9653259,12.482663 L24.9653259,12.482663 Z" id="path3103" fill-opacity="0" fill="#E20010" sketch:type="MSShapeGroup"></path>
                                <path d="M20.5976162,16.5358096 C20.2944782,16.8740551 19.9702757,16.923379 19.9702757,16.923379 C20.3156293,16.5568741 20.9923804,15.104811 20.9923804,15.104811 C21.1756328,14.731198 22.0849601,14.2729802 22.0849601,14.2729802 C23.5688367,13.4835385 23.1353242,11.8552098 23.1353242,11.8552098 C21.9122833,12.5284414 21.8099948,13.546992 21.8099948,13.546992 C21.7043256,14.3998873 21.1474601,14.64668 21.1474601,14.64668 C21.3447555,14.3153693 21.5422243,12.9548457 21.5422243,12.9548457 C21.6902826,12.55306 22.3175364,11.8904733 22.3175364,11.8904733 C22.5430912,11.6719834 22.8603589,11.3054352 22.8603589,11.3054352 C23.5793256,10.4806952 22.9096827,9.06385229 22.9096827,9.06385229 C21.7113471,10.114147 21.9651612,11.7071949 21.9651612,11.7071949 C21.9580531,12.0667216 21.5915482,12.539017 21.5915482,12.539017 C21.7466279,11.6719834 21.5140517,10.1775919 21.5140517,10.1775919 L21.6126994,9.86039355 C21.6126994,9.86039355 21.6126994,9.86039355 21.7536494,9.48678051 C21.8945995,9.11320215 21.9792909,9.04975728 21.9792909,9.04975728 C23.0365898,7.93600902 21.8664268,6.48394591 21.8664268,6.48394591 C21.5069435,6.91394764 21.3236911,7.70342406 21.3236911,7.70342406 C21.196784,8.33782074 21.5492458,9.25419556 21.5492458,9.25419556 C21.6055912,9.48678051 21.4434899,9.85332871 21.4434899,9.85332871 C21.253216,8.58454404 20.5059899,7.37213072 20.5059899,7.37213072 C20.5130981,7.13243759 20.6399185,6.99148752 20.6399185,6.99148752 C21.3483096,5.74382802 20.0619019,4.30581657 20.0619019,4.30581657 C19.5191661,6.02576283 20.2944782,6.85050277 20.2944782,6.85050277 C20.5412708,7.14653259 20.4566661,7.31571602 20.4566661,7.31571602 C19.7305912,6.07511269 18.9129768,5.4759362 18.9129768,5.4759362 C18.5886876,3.74896845 17.0731709,3.98861824 17.0731709,3.98861824 C17.1895024,5.54645458 18.8072209,5.715638 18.8072209,5.715638 C19.70944,6.50511442 20.1888089,7.4073509 20.1888089,7.4073509 C19.9772972,7.32278086 19.8645198,7.19588245 19.8645198,7.19588245 C18.9869192,5.77201803 17.517259,6.01166782 17.517259,6.01166782 C18.1128727,7.62237344 19.8856709,7.61178918 19.8856709,7.61178918 C20.3756155,7.63646845 20.5059899,7.97127254 20.5059899,7.97127254 C20.9147972,8.6479889 21.196784,9.92384709 21.196784,9.92384709 C21.0840066,9.81104369 20.936035,9.63128467 20.936035,9.63128467 C20.2522625,7.7668776 18.8072209,7.83734397 18.8072209,7.83734397 C19.2513089,9.69121879 20.6963506,9.80397885 20.6963506,9.80397885 C20.9642077,9.86039355 21.253216,10.2551318 21.253216,10.2551318 C21.4153173,11.3618065 21.3447555,12.2640863 21.3447555,12.2640863 C21.337734,12.1935766 21.2249567,11.9891817 21.2249567,11.9891817 C21.1192874,11.7918083 21.0628554,11.3618065 21.0628554,11.3618065 C20.8091279,10.057767 19.6036841,9.83220354 19.6036841,9.83220354 C19.3676404,11.5168949 21.1192874,12.1477722 21.1192874,12.1477722 C21.6126994,12.5848734 20.9147972,14.5056432 20.9147972,14.5056432 C20.9007542,14.4351682 20.8724948,14.1743325 20.8724948,14.1743325 C21.0241071,12.1548024 19.4839719,11.8693481 19.4839719,11.8693481 C19.4733096,12.8350468 19.6319435,13.1663575 19.6319435,13.1663575 C19.7835558,13.6034241 20.5553138,14.167311 20.5553138,14.167311 C20.7456744,14.3505635 20.8091279,14.6678311 20.8091279,14.6678311 C20.6893291,15.4783374 19.5543603,17.0221134 19.5543603,17.0221134 C19.5403173,16.6767597 19.6672243,16.4440967 19.6672243,16.4440967 C20.4777306,14.977904 19.462734,14.0192528 19.462734,14.0192528 C18.4759102,15.3233443 19.335827,16.3242979 19.335827,16.3242979 C19.4697555,16.5710038 19.4134102,17.2053658 19.4134102,17.2053658 C19.0892077,17.6918429 17.9543256,18.6362777 17.9543256,18.6362777 L17.9613471,18.5940621 C18.1022972,18.164017 18.2362257,18.0090239 18.2362257,18.0090239 C19.1807472,16.9023145 18.2573769,15.5840933 18.2573769,15.5840933 C17.3833304,16.5674497 17.7569435,17.7622313 17.7569435,17.7622313 C17.9965413,18.3296723 17.7357923,18.7279906 17.7357923,18.7279906 C17.3022798,19.2424671 15.9523318,19.8204837 15.9523318,19.8204837 C16.1849948,19.5456051 16.4669816,19.2848561 16.4669816,19.2848561 C17.4820648,18.4777306 16.967415,17.0291349 16.967415,17.0291349 C15.6457264,17.7728069 15.973483,19.3130288 15.973483,19.3130288 C15.9312673,19.8698942 15.5365031,20.010931 15.5365031,20.010931 C14.9584865,20.2645718 14.1267424,20.4408894 14.1267424,20.4408894 C14.2112604,20.2858096 14.3593187,20.2363991 14.3593187,20.2363991 C15.7973388,19.4258062 15.3743152,18.1711252 15.3743152,18.1711252 C14.013965,18.6927965 14.0491592,20.2152479 14.0491592,20.2152479 C14.0350295,20.5254074 13.7742805,20.5395371 13.7742805,20.5395371 L13.3160628,20.6029906 C13.8835038,20.2505288 13.837734,19.8770024 13.837734,19.8770024 C13.7742805,18.9499913 12.5759449,19.2495752 12.5759449,19.2495752 C12.5759449,19.2495752 11.3776092,18.9499913 11.3141557,19.8770024 C11.3141557,19.8770024 11.2683859,20.2505288 11.8357403,20.6029906 L11.3776092,20.5395371 C11.3776092,20.5395371 11.1167736,20.5254074 11.1026439,20.2152479 C11.1026439,20.2152479 11.1379248,18.6927965 9.77752254,18.1711252 C9.77752254,18.1711252 9.35455097,19.4258062 10.7925711,20.2363991 C10.7925711,20.2363991 10.9405426,20.2858096 11.0251474,20.4408894 C11.0251474,20.4408894 10.1933773,20.2645718 9.61536928,20.010931 C9.61536928,20.010931 9.22063107,19.8698942 9.17834605,19.3130288 C9.17834605,19.3130288 9.50611997,17.7728069 8.18442268,17.0291349 C8.18442268,17.0291349 7.66985957,18.4777306 8.68489945,19.2848561 C8.68489945,19.2848561 8.9668776,19.5456051 9.19950589,19.8204837 C9.19950589,19.8204837 7.84961859,19.2424671 7.41611477,18.7279906 C7.41611477,18.7279906 7.15529646,18.3296723 7.39494626,17.7622313 C7.39494626,17.7622313 7.76856796,16.5674497 6.89447816,15.5840933 C6.89447816,15.5840933 5.97107316,16.9023145 6.915638,18.0090239 C6.915638,18.0090239 7.04956657,18.164017 7.19055132,18.5940621 L7.19758148,18.6362777 C7.19758148,18.6362777 6.06271671,17.6918429 5.73845354,17.2053658 C5.73845354,17.2053658 5.68207351,16.5710038 5.81599341,16.3242979 C5.81599341,16.3242979 6.67598821,15.3233443 5.68913835,14.0192528 C5.68913835,14.0192528 4.67405513,14.977904 5.48470007,16.4440967 C5.48470007,16.4440967 5.61159847,16.6767597 5.59750347,17.0221134 C5.59750347,17.0221134 4.46259535,15.4783374 4.34277046,14.6678311 C4.34277046,14.6678311 4.40621533,14.3505635 4.59651526,14.167311 C4.59651526,14.167311 5.36838592,13.6034241 5.51995492,13.1663575 C5.51995492,13.1663575 5.67855409,12.8350468 5.6679785,11.8693481 C5.6679785,11.8693481 4.12779126,12.1548024 4.27931692,14.1743325 C4.27931692,14.1743325 4.25112691,14.4351682 4.2370319,14.5056432 C4.2370319,14.5056432 3.53919036,12.5848734 4.03263696,12.1477722 C4.03263696,12.1477722 5.78429265,11.5168949 5.54814494,9.83220354 C5.54814494,9.83220354 4.34277046,10.057767 4.08901699,11.3618065 C4.08901699,11.3618065 4.03263696,11.7918083 3.92690707,11.9891817 C3.92690707,11.9891817 3.81410368,12.1935766 3.80703883,12.2640863 C3.80703883,12.2640863 3.7365638,11.3618065 3.89867372,10.2551318 C3.89867372,10.2551318 4.18768204,9.86039355 4.45556519,9.80397885 C4.45556519,9.80397885 5.9006068,9.69121879 6.34465153,7.83734397 C6.34465153,7.83734397 4.89966193,7.7668776 4.2159154,9.63128467 C4.2159154,9.63128467 4.06785714,9.81104369 3.95509709,9.92384709 C3.95509709,9.92384709 4.2370319,8.6479889 4.64586512,7.97127254 C4.64586512,7.97127254 4.77627427,7.63646845 5.26616678,7.61178918 C5.26616678,7.61178918 7.03898232,7.62237344 7.63464806,6.01166782 C7.63464806,6.01166782 6.16493585,5.77201803 5.2873353,7.19588245 C5.2873353,7.19588245 5.1745319,7.32278086 4.96306345,7.4073509 C4.96306345,7.4073509 5.44241505,6.50511442 6.34465153,5.715638 C6.34465153,5.715638 7.96242198,5.54645458 8.07869279,3.98861824 C8.07869279,3.98861824 6.56318481,3.74896845 6.23892164,5.4759362 C6.23892164,5.4759362 5.4212552,6.07511269 4.69522365,7.31571602 C4.69522365,7.31571602 4.61065361,7.14653259 4.85733356,6.85050277 C4.85733356,6.85050277 5.63271498,6.02576283 5.08996186,4.30581657 C5.08996186,4.30581657 3.80352809,5.74382802 4.51194521,6.99148752 C4.51194521,6.99148752 4.63884362,7.13243759 4.64586512,7.37213072 C4.64586512,7.37213072 3.89867372,8.58454404 3.70837379,9.85332871 C3.70837379,9.85332871 3.54626387,9.48678051 3.6026439,9.25419556 C3.6026439,9.25419556 3.95509709,8.33782074 3.82819868,7.70342406 C3.82819868,7.70342406 3.64492892,6.91394764 3.28544556,6.48394591 C3.28544556,6.48394591 2.11532594,7.93600902 3.17264216,9.04975728 C3.17264216,9.04975728 3.25725555,9.11320215 3.39820562,9.48678051 L3.53919036,9.86039355 L3.63789875,10.1775919 C3.63789875,10.1775919 3.40527046,11.6719834 3.56035888,12.539017 C3.56035888,12.539017 3.19381068,12.0667216 3.18673717,11.7071949 C3.18673717,11.7071949 3.44053398,10.114147 2.24217233,9.06385229 C2.24217233,9.06385229 1.57256415,10.4806952 2.29153086,11.3054352 C2.29153086,11.3054352 2.6087292,11.6719834 2.83428398,11.8904733 C2.83428398,11.8904733 3.46165049,12.55306 3.6096654,12.9548457 C3.6096654,12.9548457 3.80703883,14.3153693 4.00440361,14.64668 C4.00440361,14.64668 3.44755548,14.3998873 3.34182559,13.546992 C3.34182559,13.546992 3.23960645,12.5284414 2.01661755,11.8552098 C2.01661755,11.8552098 1.58310506,13.4835385 3.06691227,14.2729802 C3.06691227,14.2729802 3.97622226,14.731198 4.15949202,15.104811 C4.15949202,15.104811 4.83620839,16.5568741 5.18159674,16.923379 C5.18159674,16.923379 4.85733356,16.8740551 4.55423024,16.5358096 C4.55423024,16.5358096 3.83527219,14.7594574 2.40433426,14.6185073 C2.40433426,14.6185073 2.37614424,16.4089026 4.35686546,16.8811633 C4.35686546,16.8811633 4.99832698,16.9375954 5.30849515,17.0996966 C5.30849515,17.0996966 6.07681172,18.0794123 6.73938974,18.6152132 C6.73938974,18.6152132 5.99926318,18.6081051 5.82305825,18.2415135 C5.82305825,18.2415135 5.26616678,17.0573076 3.46165049,17.0996966 C3.46165049,17.0996966 3.75065881,18.699818 5.83715326,18.7068395 C5.83715326,18.7068395 6.76762309,18.6574289 7.00020804,18.8195302 C7.00020804,18.8195302 8.15624133,19.7006848 8.86816921,19.968542 C8.86816921,19.968542 8.42412448,20.024974 8.1068828,19.8910454 C8.1068828,19.8910454 6.4221914,18.713861 5.16750173,19.5456051 C5.16750173,19.5456051 5.79486824,20.8215239 8.1068828,20.2435073 C8.1068828,20.2435073 9.07260749,20.0813193 9.25588592,20.1518811 C9.25588592,20.1518811 10.6303831,20.6804872 11.0604282,20.7440274 C11.0604282,20.7440274 10.6163402,21.018906 9.89734743,20.7086598 C9.89734743,20.7086598 8.94571775,20.1660107 7.853138,21.0400572 C7.853138,21.0400572 8.74834431,22.1748526 10.5246273,21.2303311 C10.5246273,21.2303311 11.229551,20.7862431 11.5608617,20.8425884 L12.0613818,20.9272798 C12.0613818,20.9272798 11.1237951,21.8857576 10.2567701,22.3862777 C10.2567701,22.3862777 10.0664875,22.4637743 10.2285974,22.5342493 C10.2285974,22.5342493 10.9342146,22.8586252 11.5333825,22.8867979 C11.5333825,22.8867979 12.3856709,22.0287015 12.5759449,21.0330357 C12.826465,22.1170336 13.6686113,22.8797764 13.6686113,22.8797764 C14.2676924,22.8516037 14.9584865,22.520293 14.9584865,22.520293 C15.1206744,22.4497313 14.9303138,22.3723214 14.9303138,22.3723214 C14.0632888,21.8717146 13.0905947,20.9272798 13.0905947,20.9272798 L13.5910281,20.8425884 C13.9222521,20.7862431 14.6271758,21.2303311 14.6271758,21.2303311 C16.4035281,22.1748526 17.2987257,21.0400572 17.2987257,21.0400572 C16.206146,20.1660107 15.2545163,20.7086598 15.2545163,20.7086598 C14.5355496,21.018906 14.0914615,20.7440274 14.0914615,20.7440274 C14.5214199,20.6804872 15.8959865,20.1518811 15.8959865,20.1518811 C16.0792389,20.0813193 17.0449983,20.2435073 17.0449983,20.2435073 C19.3570648,20.8215239 19.9844053,19.5456051 19.9844053,19.5456051 C18.7296377,18.713861 17.0449983,19.8910454 17.0449983,19.8910454 C16.7278173,20.024974 16.2837292,19.968542 16.2837292,19.968542 C16.9955877,19.7006848 18.151621,18.8195302 18.151621,18.8195302 C18.384284,18.6574289 19.3146758,18.7068395 19.3146758,18.7068395 C21.4012743,18.699818 21.6902826,17.0996966 21.6902826,17.0996966 C19.8856709,17.0573076 19.3288055,18.2415135 19.3288055,18.2415135 C19.1525745,18.6081051 18.4124567,18.6152132 18.4124567,18.6152132 C19.075078,18.0794123 19.8433686,17.0996966 19.8433686,17.0996966 C20.1535281,16.9375954 20.795085,16.8811633 20.795085,16.8811633 C22.7757542,16.4089026 22.7475815,14.6185073 22.7475815,14.6185073 C21.3165829,14.7594574 20.5976162,16.5358096 20.5976162,16.5358096 L20.5976162,16.5358096 Z M11.6806605,20.0813193 C11.6806605,20.0813193 11.5890343,19.6865551 11.7159414,19.707793 C11.7159414,19.707793 11.8005461,19.6936633 11.8005461,19.8628727 C11.8005461,19.8628727 11.782949,20.0778519 11.8710212,20.2363991 C11.8710212,20.2363991 12.0049497,20.4267597 12.0119712,20.5042562 C12.0119712,20.5042562 11.8288055,20.5113644 11.6806605,20.0813193 L11.6806605,20.0813193 Z M12.5759449,21.0191661 C12.4314407,21.0191661 12.3143291,20.9401959 12.3143291,20.8428485 C12.3143291,20.7453277 12.4314407,20.6664442 12.5759449,20.6664442 C12.7203623,20.6664442 12.837474,20.7453277 12.837474,20.8428485 C12.837474,20.9401959 12.7203623,21.0191661 12.5759449,21.0191661 L12.5759449,21.0191661 Z M12.5761182,20.45944 C12.415404,20.45944 12.2852028,20.3962465 12.2852028,20.3183166 C12.2852028,20.2403866 12.415404,20.1772798 12.5761182,20.1772798 C12.7368325,20.1772798 12.8669469,20.2403866 12.8669469,20.3183166 C12.8669469,20.3962465 12.7368325,20.45944 12.5761182,20.45944 L12.5761182,20.45944 Z M12.5759449,19.8068741 C12.3828103,19.8068741 12.2262569,19.743854 12.2262569,19.6659241 C12.2262569,19.5879941 12.3828103,19.5248006 12.5759449,19.5248006 C12.7690794,19.5248006 12.9256328,19.5879941 12.9256328,19.6659241 C12.9256328,19.743854 12.7690794,19.8068741 12.5759449,19.8068741 L12.5759449,19.8068741 Z M13.1398318,20.5042562 C13.14694,20.4267597 13.2808686,20.2363991 13.2808686,20.2363991 C13.3689407,20.0778519 13.3513436,19.8628727 13.3513436,19.8628727 C13.3513436,19.6936633 13.4359483,19.707793 13.4359483,19.707793 C13.5628554,19.6865551 13.4711425,20.0813193 13.4711425,20.0813193 C13.3230843,20.5113644 13.1398318,20.5042562 13.1398318,20.5042562 L13.1398318,20.5042562 Z" id="path3105" fill="#FFEC00" sketch:type="MSShapeGroup"></path>
                                <path d="M12.5877167,15.612292 C7.25400485,12.6283547 8.39593447,4.80400485 8.39593447,4.80400485 C10.6704057,5.89425277 12.5407334,4.80692614 12.5407334,4.80692614 C12.5407334,4.80692614 14.4909847,5.92244279 16.6948856,4.76641817 C16.6948856,4.76641817 17.9448856,12.567233 12.5877167,15.612292 L12.5877167,15.612292 Z" id="path3107" fill="#FFEC00" sketch:type="MSShapeGroup"></path>
                                <g id="Group1-Clipped" transform="translate(8.235090, 4.680999)">
                                    <mask id="mask-4" sketch:name="path3094" fill="white">
                                        <use xlink:href="#path-3"></use>
                                    </mask>
                                    <g id="path3094"></g>
                                    <g id="Group1" mask="url(#mask-4)" stroke="#FFFFFF" sketch:type="MSShapeGroup">
                                        <g transform="translate(0.433426, 0.173370)">
                                            <path id="path3110" stroke-width="1.62632495" d="M0.0680478502,0.0642510402 L0.0680478502,5.62331831"></path>
                                            <path id="path3112" stroke-width="1.62632495" d="M0.578536755,0.25070215 L0.578536755,6.9523405"></path>
                                            <path id="path3114" stroke-width="1.62632495" d="M1.08911234,0.358893897 L1.08911234,7.92051838"></path>
                                            <path id="path3116" stroke-width="1.62632495" d="M1.59951456,0.416071429 L1.59951456,8.74791956"></path>
                                            <path id="path3118" stroke-width="1.62632495" d="M2.1139043,0.416071429 L2.1139043,9.40705617"></path>
                                            <path id="path3120" stroke-width="1.67260006" d="M2.620319,0.359821429 L2.620319,9.9295163"></path>
                                            <path id="path3122" stroke-width="1.72788754" d="M3.15074549,0.16693828 L3.15074549,10.379577"></path>
                                            <path id="path3124" stroke-width="1.62632495" d="M3.61693828,0.0142683773 L3.61693828,10.6689147"></path>
                                            <path id="path3126" stroke-width="1.67308747" d="M7.63956311,0.0642510402 L7.63956311,5.9477982"></path>
                                            <path id="path3128" stroke-width="1.62632495" d="M7.12898752,0.25070215 L7.12898752,7.20045943"></path>
                                            <path id="path3130" stroke-width="1.62632495" d="M6.6185853,0.358893897 L6.6185853,8.2163835"></path>
                                            <path id="path3132" stroke-width="1.62632495" d="M6.12716713,0.42564147 L6.12716713,8.94837899"></path>
                                            <path id="path3134" stroke-width="1.62632495" d="M5.62231276,0.416071429 L5.62231276,9.40705617"></path>
                                            <path id="path3136" stroke-width="1.67260006" d="M5.10168169,0.345518377 L5.10168169,9.91521325"></path>
                                            <path id="path3138" stroke-width="1.72788754" d="M4.6045423,0.16693828 L4.6045423,10.379577"></path>
                                        </g>
                                    </g>
                                </g>
                                <g id="Group2-Clipped" transform="translate(8.235090, 4.680999)">
                                    <mask id="mask-6" sketch:name="path3097" fill="white">
                                        <use xlink:href="#path-5"></use>
                                    </mask>
                                    <g id="path3097"></g>
                                    <g id="Group2" mask="url(#mask-6)" stroke="#FFFFFF" sketch:type="MSShapeGroup">
                                        <g transform="translate(0.433426, 0.173370)">
                                            <path id="path3141" stroke-width="1.62632495" d="M0.0680478502,0.0642510402 L0.0680478502,5.62331831"></path>
                                            <path id="path3143" stroke-width="1.62632495" d="M0.578536755,0.25070215 L0.578536755,6.9523405"></path>
                                            <path id="path3145" stroke-width="1.62632495" d="M1.08911234,0.358893897 L1.08911234,7.92051838"></path>
                                            <path id="path3147" stroke-width="1.62632495" d="M1.59951456,0.416071429 L1.59951456,8.74791956"></path>
                                            <path id="path3149" stroke-width="1.62632495" d="M2.1139043,0.416071429 L2.1139043,9.40705617"></path>
                                            <path id="path3151" stroke-width="1.67260006" d="M2.620319,0.359821429 L2.620319,9.9295163"></path>
                                            <path id="path3153" stroke-width="1.72788754" d="M3.15074549,0.16693828 L3.15074549,10.379577"></path>
                                            <path id="path3155" stroke-width="1.62632495" d="M3.61693828,0.0142683773 L3.61693828,10.6689147"></path>
                                            <path id="path3157" stroke-width="1.67308747" d="M7.63956311,0.0642510402 L7.63956311,5.9477982"></path>
                                            <path id="path3159" stroke-width="1.62632495" d="M7.12898752,0.25070215 L7.12898752,7.20045943"></path>
                                            <path id="path3161" stroke-width="1.62632495" d="M6.6185853,0.358893897 L6.6185853,8.2163835"></path>
                                            <path id="path3163" stroke-width="1.62632495" d="M6.12716713,0.42564147 L6.12716713,8.94837899"></path>
                                            <path id="path3165" stroke-width="1.62632495" d="M5.62231276,0.416071429 L5.62231276,9.40705617"></path>
                                            <path id="path3167" stroke-width="1.67260006" d="M5.10168169,0.345518377 L5.10168169,9.91521325"></path>
                                            <path id="path3169" stroke-width="1.72788754" d="M4.6045423,0.16693828 L4.6045423,10.379577"></path>
                                            <path id="path3171" stroke-width="1.62632495" d="M4.14831831,0.0142683773 L4.14831831,10.6689147"></path>
                                        </g>
                                    </g>
                                </g>
                                <path d="M8.87864078,10.7477375 L16.8144417,6.40039875 C16.8144417,6.40039875 16.8551578,7.6973301 16.6971134,8.70508842 L9.80339806,12.8705444 C9.80339806,12.8705444 9.30902393,12.1494279 8.87864078,10.7477375 L8.87864078,10.7477375 Z" id="path3173" fill="#FFFFFF" sketch:type="MSShapeGroup"></path>
                                <path d="M16.5431259,10.8884362 C16.5928831,11.1410021 16.6197555,11.4018984 16.6197555,11.6691141 C16.6197555,13.886061 14.8195215,15.6831657 12.5990638,15.6831657 C10.3785194,15.6831657 8.57845007,13.886061 8.57845007,11.6691141 C8.57845007,11.3681692 8.56710298,11.0731103 8.63000173,10.7910888 C8.04580444,11.579551 7.74570908,12.5534414 7.74570908,13.6052618 C7.74570908,16.2387483 9.91182386,18.3647365 12.575104,18.3735437 C15.2982403,18.3825936 17.4045163,16.2387483 17.4045163,13.6052618 C17.4045163,12.5952583 17.0856016,11.6594227 16.5431259,10.8884362 L16.5431259,10.8884362 Z" id="path3175" fill="#369D27" sketch:type="MSShapeGroup"></path>
                                <path d="M15.2967926,8.19453883 C15.2791869,8.2967233 15.2721567,8.35665742 15.2721567,8.35665742 C15.2228069,8.34607316 15.1417909,8.3213939 15.1417909,8.3213939 L15.1558426,8.16631415 C15.2333825,8.1804525 15.2967926,8.19453883 15.2967926,8.19453883 L15.2967926,8.19453883 Z M14.5531987,7.76454577 L14.5496359,7.90553918 L14.690586,7.91963419 L14.6941401,7.76805652 L14.5531987,7.76454577 L14.5531987,7.76454577 Z M12.3116158,9.67128121 L12.3327323,9.51971221 L12.4843533,9.52677705 L12.5019591,9.31179785 L12.2940101,9.30121359 L12.2834258,9.46333218 L12.1071775,9.45981276 L12.1142424,9.6571862 L12.3116158,9.67128121 L12.3116158,9.67128121 Z M13.5628381,10.0060853 L13.7108096,10.0977202 L13.753138,9.94619452 L13.8729196,10.0060853 L13.9152479,9.84397538 L13.7671897,9.7770111 L13.7319695,9.91445042 L13.6192181,9.87923024 L13.5628381,10.0060853 L13.5628381,10.0060853 Z M11.0392684,10.8754334 C10.5599601,11.8587725 11.4040482,11.7142684 11.4040482,11.7142684 C11.9521325,11.5979542 11.9238991,11.2243759 11.9238991,11.2243759 C11.3511789,11.6772278 11.1379768,11.4499307 11.1379768,11.4499307 C10.7978415,11.1238904 11.4128901,10.6181259 11.4128901,10.6181259 L11.3000867,10.4419209 C11.2437067,10.6146151 10.9723128,10.692155 10.9723128,10.692155 C10.6833044,10.7573422 10.6234137,10.8472434 10.6234137,10.8472434 C10.4559639,11.0534154 10.7537795,11.160931 10.7537795,11.160931 C10.6269244,10.9106883 11.0392684,10.8754334 11.0392684,10.8754334 L11.0392684,10.8754334 Z M12.6570388,10.5277219 C12.2305565,10.792051 12.0261182,10.6687067 12.0261182,10.6687067 C12.0342926,10.9235177 11.6913141,10.9929352 11.6913141,10.9929352 C11.5802098,11.0164702 11.5397451,10.8378901 11.5397451,10.8378901 C12.207871,10.7289008 11.7018984,10.3585385 11.7018984,10.3585385 L11.7723734,10.2140343 C11.7723734,10.2140343 11.788835,10.2345267 11.9979282,10.4501734 C12.2410541,10.7009622 12.7776699,10.1994365 12.7776699,10.1994365 C12.9529906,10.0188714 12.8085732,9.99199029 12.8085732,9.99199029 C12.6041349,10.3585385 12.4173457,10.2034587 12.4173457,10.2034587 C12.1988124,10.0237344 12.4173457,9.79817961 12.4173457,9.79817961 C12.6654213,9.56478849 12.9495232,9.9039095 12.9495232,9.9039095 C13.1825676,10.2047243 12.6570388,10.5277219 12.6570388,10.5277219 L12.6570388,10.5277219 Z M12.6583998,9.90319001 C12.6583998,9.90319001 12.5777219,9.84355062 12.5199029,9.91893204 C12.5199029,9.91893204 12.4427878,10.0223821 12.5374307,10.0346567 C12.5374307,10.0346567 12.6356276,10.0347001 12.6583998,9.90319001 L12.6583998,9.90319001 Z M13.9479196,8.90258322 C13.9479196,8.90258322 14.0095527,8.74606449 13.831354,8.71469313 C13.831354,8.71469313 13.6275139,8.6729629 13.5317701,8.93128467 C13.5317701,8.93128467 13.3649965,9.32229542 13.6369886,9.30917129 C13.6369886,9.30917129 14.01556,9.25681345 13.7900485,9.4431432 C13.7900485,9.4431432 13.1399098,9.91762309 13.0417042,9.35709085 C13.0417042,9.35709085 12.9066834,10.1590153 13.66569,9.75403086 C13.66569,9.75403086 14.0627167,9.58662448 13.9239684,9.25177705 C13.9239684,9.25177705 13.8809639,9.12259882 13.7709951,9.13694521 C13.7709951,9.13694521 13.5352375,9.19510229 13.6226855,8.97910888 C13.6226855,8.97910888 13.6753381,8.81649619 13.809258,8.93606103 C13.809258,8.93606103 13.9009449,9.0235957 13.9479196,8.90258322 L13.9479196,8.90258322 Z M15.6304958,8.30967406 L15.557611,8.48824549 C15.557611,8.48824549 15.7082958,8.61015083 15.6281293,8.67152393 C15.6281293,8.67152393 15.5106276,8.7490638 15.2333825,8.65035541 C15.2333825,8.65035541 14.9749393,8.54462552 14.6695128,8.46005548 C14.6695128,8.46005548 14.5215326,8.42246879 14.6225295,8.34726075 L15.1652393,7.89846567 C15.1652393,7.89846567 15.1793776,7.7081224 15.1864078,7.66113904 C15.1864078,7.66113904 14.4579577,8.18040915 14.4697295,8.30260055 L14.4744712,8.35665742 L14.4979196,8.48587899 C14.4979196,8.48587899 14.5238211,8.58454404 14.6977028,8.63859223 L14.8714893,8.69264043 C14.8714893,8.69264043 15.007871,8.72557212 14.9397191,8.77018897 C14.9397191,8.77018897 14.4527132,8.91177184 14.4227462,9.49858703 C14.4227462,9.49858703 14.4103849,9.57434986 14.3405426,9.57612691 C14.3405426,9.57612691 14.2156813,9.6009362 14.2183079,9.36699029 C14.2183079,9.36699029 14.2206744,9.32000693 14.2066227,9.32470527 C14.2066227,9.32470527 14.0809119,9.51738037 14.2160194,9.6865638 C14.2160194,9.6865638 14.3998873,9.9039095 14.5602202,9.63250693 C14.5602202,9.63250693 14.6042389,9.55319001 14.6095787,9.36995492 C14.6095787,9.36995492 14.606016,9.10033807 14.9179698,8.91177184 C14.9179698,8.91177184 15.0077843,8.86241331 15.0547677,8.78190881 C15.0547677,8.78190881 15.073561,8.7607923 15.1676144,8.78428398 C15.1676144,8.78428398 15.5477028,8.8987344 15.6891644,8.77958564 C15.6891644,8.77958564 15.8646498,8.65565187 15.6304958,8.30967406 L15.6304958,8.30967406 Z M15.1558426,8.16631415 L15.1417909,8.3213939 C15.1417909,8.3213939 15.2228069,8.34607316 15.2721567,8.35665742 C15.2721567,8.35665742 15.2791869,8.2967233 15.2967926,8.19453883 C15.2967926,8.19453883 15.2333825,8.1804525 15.1558426,8.16631415 L15.1558426,8.16631415 Z M14.5531987,7.76454577 L14.5496359,7.90553918 L14.690586,7.91963419 L14.6941401,7.76805652 L14.5531987,7.76454577 L14.5531987,7.76454577 Z M12.3116158,9.67128121 L12.3327323,9.51971221 L12.4843533,9.52677705 L12.5019591,9.31179785 L12.2940101,9.30121359 L12.2834258,9.46333218 L12.1071775,9.45981276 L12.1142424,9.6571862 L12.3116158,9.67128121 L12.3116158,9.67128121 Z M13.5628381,10.0060853 L13.7108096,10.0977202 L13.753138,9.94619452 L13.8729196,10.0060853 L13.9152479,9.84397538 L13.7671897,9.7770111 L13.7319695,9.91445042 L13.6192181,9.87923024 L13.5628381,10.0060853 L13.5628381,10.0060853 Z M11.0392684,10.8754334 C10.5599601,11.8587725 11.4040482,11.7142684 11.4040482,11.7142684 C11.9521325,11.5979542 11.9238991,11.2243759 11.9238991,11.2243759 C11.3511789,11.6772278 11.1379768,11.4499307 11.1379768,11.4499307 C10.7978415,11.1238904 11.4128901,10.6181259 11.4128901,10.6181259 L11.3000867,10.4419209 C11.2437067,10.6146151 10.9723128,10.692155 10.9723128,10.692155 C10.6833044,10.7573422 10.6234137,10.8472434 10.6234137,10.8472434 C10.4559639,11.0534154 10.7537795,11.160931 10.7537795,11.160931 C10.6269244,10.9106883 11.0392684,10.8754334 11.0392684,10.8754334 L11.0392684,10.8754334 Z M12.6570388,10.5277219 C12.2305565,10.792051 12.0261182,10.6687067 12.0261182,10.6687067 C12.0342926,10.9235177 11.6913141,10.9929352 11.6913141,10.9929352 C11.5802098,11.0164702 11.5397451,10.8378901 11.5397451,10.8378901 C12.207871,10.7289008 11.7018984,10.3585385 11.7018984,10.3585385 L11.7723734,10.2140343 C11.7723734,10.2140343 11.788835,10.2345267 11.9979282,10.4501734 C12.2410541,10.7009622 12.7776699,10.1994365 12.7776699,10.1994365 C12.9529906,10.0188714 12.8085732,9.99199029 12.8085732,9.99199029 C12.6041349,10.3585385 12.4173457,10.2034587 12.4173457,10.2034587 C12.1988124,10.0237344 12.4173457,9.79817961 12.4173457,9.79817961 C12.6654213,9.56478849 12.9495232,9.9039095 12.9495232,9.9039095 C13.1825676,10.2047243 12.6570388,10.5277219 12.6570388,10.5277219 L12.6570388,10.5277219 Z M12.6583998,9.90319001 C12.6583998,9.90319001 12.5777219,9.84355062 12.5199029,9.91893204 C12.5199029,9.91893204 12.4427878,10.0223821 12.5374307,10.0346567 C12.5374307,10.0346567 12.6356276,10.0347001 12.6583998,9.90319001 L12.6583998,9.90319001 Z M13.9479196,8.90258322 C13.9479196,8.90258322 14.0095527,8.74606449 13.831354,8.71469313 C13.831354,8.71469313 13.6275139,8.6729629 13.5317701,8.93128467 C13.5317701,8.93128467 13.3649965,9.32229542 13.6369886,9.30917129 C13.6369886,9.30917129 14.01556,9.25681345 13.7900485,9.4431432 C13.7900485,9.4431432 13.1399098,9.91762309 13.0417042,9.35709085 C13.0417042,9.35709085 12.9066834,10.1590153 13.66569,9.75403086 C13.66569,9.75403086 14.0627167,9.58662448 13.9239684,9.25177705 C13.9239684,9.25177705 13.8809639,9.12259882 13.7709951,9.13694521 C13.7709951,9.13694521 13.5352375,9.19510229 13.6226855,8.97910888 C13.6226855,8.97910888 13.6753381,8.81649619 13.809258,8.93606103 C13.809258,8.93606103 13.9009449,9.0235957 13.9479196,8.90258322 L13.9479196,8.90258322 Z M15.6304958,8.30967406 L15.557611,8.48824549 C15.557611,8.48824549 15.7082958,8.61015083 15.6281293,8.67152393 C15.6281293,8.67152393 15.5106276,8.7490638 15.2333825,8.65035541 C15.2333825,8.65035541 14.9749393,8.54462552 14.6695128,8.46005548 C14.6695128,8.46005548 14.5215326,8.42246879 14.6225295,8.34726075 L15.1652393,7.89846567 C15.1652393,7.89846567 15.1793776,7.7081224 15.1864078,7.66113904 C15.1864078,7.66113904 14.4579577,8.18040915 14.4697295,8.30260055 L14.4744712,8.35665742 L14.4979196,8.48587899 C14.4979196,8.48587899 14.5238211,8.58454404 14.6977028,8.63859223 L14.8714893,8.69264043 C14.8714893,8.69264043 15.007871,8.72557212 14.9397191,8.77018897 C14.9397191,8.77018897 14.4527132,8.91177184 14.4227462,9.49858703 C14.4227462,9.49858703 14.4103849,9.57434986 14.3405426,9.57612691 C14.3405426,9.57612691 14.2156813,9.6009362 14.2183079,9.36699029 C14.2183079,9.36699029 14.2206744,9.32000693 14.2066227,9.32470527 C14.2066227,9.32470527 14.0809119,9.51738037 14.2160194,9.6865638 C14.2160194,9.6865638 14.3998873,9.9039095 14.5602202,9.63250693 C14.5602202,9.63250693 14.6042389,9.55319001 14.6095787,9.36995492 C14.6095787,9.36995492 14.606016,9.10033807 14.9179698,8.91177184 C14.9179698,8.91177184 15.0077843,8.86241331 15.0547677,8.78190881 C15.0547677,8.78190881 15.073561,8.7607923 15.1676144,8.78428398 C15.1676144,8.78428398 15.5477028,8.8987344 15.6891644,8.77958564 C15.6891644,8.77958564 15.8646498,8.65565187 15.6304958,8.30967406 L15.6304958,8.30967406 Z" id="path3177" fill="#FFEC00" sketch:type="MSShapeGroup"></path>
                            </g>
                        </g>
                    </g>
                </g>
            </g>
        </g>
    </g>
</svg>