<?xml version="1.0" encoding="UTF-8" standalone="no"?>
<svg width="48px" height="43px" viewBox="0 0 48 43" version="1.1" xmlns="http://www.w3.org/2000/svg" xmlns:xlink="http://www.w3.org/1999/xlink" xmlns:sketch="http://www.bohemiancoding.com/sketch/ns">
    <!-- Generator: Sketch 3.3.2 (12043) - http://www.bohemiancoding.com/sketch -->
    <title>icon-hukum</title>
    <desc>Created with Sketch.</desc>
    <defs></defs>
    <g id="Page-1" stroke="none" stroke-width="1" fill="none" fill-rule="evenodd" sketch:type="MSPage">
        <g id="Artboard-4" sketch:type="MSArtboardGroup" transform="translate(-429.000000, -60.000000)" fill="#222222">
            <path d="M472.713505,95.9993572 L459.3886,95.9993572 L453.644988,102.564097 C453.482134,102.749237 453.247281,102.856378 452.999571,102.856378 C452.752719,102.856378 452.517866,102.749237 452.355012,102.564097 L446.6114,95.9993572 L433.285638,95.9993572 C430.922537,95.9993572 429,94.0768201 429,91.7137194 L429,64.2856378 C429,61.9225371 430.922537,60 433.285638,60 L472.713505,60 C475.076606,60 477,61.9225371 477,64.2856378 L477,91.7137194 C477,94.0768201 475.076606,95.9993572 472.713505,95.9993572 L472.713505,95.9993572 Z M475.284888,64.2856378 C475.284888,62.8679488 474.132051,61.7142551 472.713505,61.7142551 L433.285638,61.7142551 C431.867949,61.7142551 430.714255,62.8679488 430.714255,64.2856378 L430.714255,91.7137194 C430.714255,93.1314084 431.867949,94.2851021 433.285638,94.2851021 L447.000536,94.2851021 C447.247388,94.2851021 447.482241,94.3913859 447.645096,94.5773825 L452.999571,100.697273 L458.354904,94.5773825 C458.517759,94.3913859 458.752612,94.2851021 458.999464,94.2851021 L472.713505,94.2851021 C474.132051,94.2851021 475.284888,93.1314084 475.284888,91.7137194 L475.284888,64.2856378 L475.284888,64.2856378 Z M453.818128,79.9693577 C453.706702,80.327637 453.374993,80.5710612 452.999571,80.5710612 C452.625007,80.5710612 452.293298,80.327637 452.181872,79.9693577 L449.174211,70.3463867 C448.790218,69.1164086 449.007071,67.815289 449.770772,66.7764504 C450.533615,65.738469 451.710452,65.1427653 452.999571,65.1427653 C454.288691,65.1427653 455.465527,65.738469 456.229228,66.7764504 C456.992929,67.815289 457.209782,69.1164086 456.825789,70.3463867 L453.818128,79.9693577 L453.818128,79.9693577 Z M454.848396,67.7921466 C454.411261,67.1981572 453.737558,66.8570204 452.999571,66.8570204 C452.262442,66.8570204 451.588739,67.1981572 451.151604,67.7921466 C450.714469,68.386136 450.591043,69.1309798 450.810468,69.8346815 L452.999571,76.8408421 L455.189532,69.8346815 C455.408957,69.1309798 455.284673,68.386136 454.848396,67.7921466 L454.848396,67.7921466 Z M452.999571,82.2853163 C454.890395,82.2853163 456.428082,83.8230032 456.428082,85.7138265 C456.428082,87.6046499 454.890395,89.1423367 452.999571,89.1423367 C451.109605,89.1423367 449.571061,87.6046499 449.571061,85.7138265 C449.571061,83.8230032 451.109605,82.2853163 452.999571,82.2853163 L452.999571,82.2853163 Z M452.999571,87.4280816 C453.944983,87.4280816 454.714684,86.6592382 454.714684,85.7138265 C454.714684,84.7684148 453.944983,83.9995714 452.999571,83.9995714 C452.055017,83.9995714 451.285316,84.7684148 451.285316,85.7138265 C451.285316,86.6592382 452.055017,87.4280816 452.999571,87.4280816 L452.999571,87.4280816 Z" id="icon-hukum" sketch:type="MSShapeGroup"></path>
        </g>
    </g>
</svg>