<?xml version="1.0" encoding="UTF-8" standalone="no"?>
<svg width="21px" height="48px" viewBox="0 0 21 48" version="1.1" xmlns="http://www.w3.org/2000/svg" xmlns:xlink="http://www.w3.org/1999/xlink" xmlns:sketch="http://www.bohemiancoding.com/sketch/ns">
    <!-- Generator: Sketch 3.3.2 (12043) - http://www.bohemiancoding.com/sketch -->
    <title>icon-keuzuran</title>
    <desc>Created with Sketch.</desc>
    <defs></defs>
    <g id="Page-1" stroke="none" stroke-width="1" fill="none" fill-rule="evenodd" sketch:type="MSPage">
        <g id="Artboard-4" sketch:type="MSArtboardGroup" transform="translate(-85.000000, -235.000000)" fill="#222222">
            <path d="M105.055458,261.599 C104.572258,265.791 101.259458,270.167 100.141058,270.3918 C99.2434576,270.5718 98.3578576,270.6918 97.4906576,270.783 C97.4202576,272.143 97.1994576,275.6134 96.6610576,278.463 C97.4290576,279.2526 97.9866576,280.6286 97.6746576,281.6566 C97.5530576,282.0574 97.1066576,282.9894 95.5914576,282.9894 L93.4426576,282.999 C90.8346576,282.999 90.6514576,280.811 90.5642576,279.759 C90.3250576,276.903 90.4194576,272.5038 90.4682576,270.8198 C89.5106576,270.7318 88.8242576,270.631 88.5258576,270.583 C87.7146576,270.4518 86.5554576,269.947 85.9610576,268.955 C85.6658576,268.4622 85.3930576,267.6454 85.7690576,266.547 L85.9338576,266.0694 C87.0250576,262.8974 88.1530576,259.6174 88.4378576,254.1246 C88.4410576,254.0654 88.4650576,254.0142 88.4802576,253.9598 C88.1538576,251.259 88.2442576,248.5718 89.3114576,246.9662 C89.5914576,246.5454 89.9306576,246.2046 90.3226576,245.9494 C90.0938576,245.8222 89.8890576,245.6662 89.7074576,245.4838 C88.6642576,244.4326 88.6770576,242.8046 88.6882576,241.3678 L88.6898576,240.9542 C88.6898576,237.6702 91.2074576,234.999 94.3018576,234.999 C97.9666576,234.999 100.429058,237.3926 100.429058,240.9542 C100.429058,243.7774 98.2522576,245.6742 96.7346576,246.223 C96.7514576,247.427 97.6178576,248.0982 98.6194576,248.875 C99.8530576,249.831 101.497058,251.1158 100.677858,253.6678 C104.773058,255.8358 105.338658,259.1438 105.055458,261.599 L105.055458,261.599 Z M92.1586576,279.6262 C92.2866576,281.1662 92.5626576,281.399 93.4426576,281.399 L95.5914576,281.3894 C95.9178576,281.3894 96.1034576,281.323 96.1434576,281.1918 C96.2866576,280.7198 95.7802576,279.723 95.3410576,279.4286 C95.0698576,279.2478 94.9362576,278.9214 95.0018576,278.6022 C95.5514576,275.9494 95.7946576,272.4454 95.8802576,270.9142 C95.1938576,270.9518 94.5226576,270.9766 93.8954576,270.9766 C93.2434576,270.9766 92.6322576,270.9582 92.0666576,270.931 C92.0194576,272.627 91.9314576,276.9158 92.1586576,279.6262 L92.1586576,279.6262 Z M103.506658,260.1454 C103.378658,257.9046 102.091458,256.171 99.7050576,254.9742 C99.2762576,255.1942 98.5698576,255.4486 97.5770576,255.4486 C97.1354576,255.4486 96.7778576,255.091 96.7778576,254.6486 C96.7778576,254.207 97.1354576,253.8486 97.5770576,253.8486 C98.3370576,253.8486 98.8146576,253.6438 99.0306576,253.523 C99.7562576,251.7878 98.9506576,251.1558 97.6386576,250.139 C96.5234576,249.2742 95.1346576,248.1974 95.1346576,246.187 L95.1346576,245.5878 C95.1346576,245.1462 95.4930576,244.7878 95.9346576,244.7878 C96.4850576,244.7654 98.8290576,243.4326 98.8290576,240.9542 C98.8290576,238.3086 97.0522576,236.599 94.3018576,236.599 C92.1274576,236.599 90.2898576,238.5934 90.2898576,240.9542 L90.2874576,241.3806 C90.2794576,242.5046 90.2690576,243.779 90.8434576,244.3574 C91.1306576,244.647 91.5874576,244.7878 92.2394576,244.7878 C92.6818576,244.7878 93.0394576,245.1462 93.0394576,245.5878 L93.0394576,246.1902 C93.0394576,246.6254 92.6922576,246.9806 92.2570576,246.9902 C91.5370576,247.0062 91.0242576,247.2798 90.6442576,247.8518 C88.9866576,250.3454 90.4786576,257.4822 91.7794576,260.7774 C91.9082576,261.103 92.2474576,261.2934 92.5898576,261.2302 L93.1458576,261.127 C93.4498576,261.071 93.6514576,260.7902 93.6050576,260.4878 C93.1938576,257.8166 92.6090576,252.9358 93.3138576,250.2566 C93.4258576,249.8294 93.8626576,249.5734 94.2906576,249.6862 C94.7178576,249.7982 94.9730576,250.2358 94.8610576,250.6638 C94.2066576,253.1526 94.8706576,258.1934 95.1858576,260.2446 C95.3650576,261.407 94.5970576,262.4854 93.4370576,262.7006 L92.8818576,262.8038 C92.7410576,262.8302 92.5994576,262.8422 92.4602576,262.8422 C91.5194576,262.8422 90.6474576,262.267 90.2914576,261.3646 C90.0458576,260.7438 89.7722576,259.9254 89.5082576,258.995 C88.9794576,262.0934 88.1826576,264.4494 87.4466576,266.5902 L87.2826576,267.0654 C87.1386576,267.4862 87.1546576,267.835 87.3330576,268.1318 C87.6434576,268.6494 88.3690576,268.9366 88.7810576,269.003 C91.3538576,269.419 95.7522576,269.6238 99.7306576,268.8422 C100.477858,268.3006 103.729858,264.0382 103.506658,260.1454 L103.506658,260.1454 Z" id="icon-keuzuran" sketch:type="MSShapeGroup"></path>
        </g>
    </g>
</svg>