<?xml version="1.0" encoding="UTF-8" standalone="no"?>
<svg width="48px" height="42px" viewBox="0 0 48 42" version="1.1" xmlns="http://www.w3.org/2000/svg" xmlns:xlink="http://www.w3.org/1999/xlink" xmlns:sketch="http://www.bohemiancoding.com/sketch/ns">
    <!-- Generator: Sketch 3.3.2 (12043) - http://www.bohemiancoding.com/sketch -->
    <title>icon-fidyah</title>
    <desc>Created with Sketch.</desc>
    <defs></defs>
    <g id="Page-1" stroke="none" stroke-width="1" fill="none" fill-rule="evenodd" sketch:type="MSPage">
        <g id="Artboard-4" sketch:type="MSArtboardGroup" transform="translate(-285.000000, -241.000000)" fill="#222222">
            <path d="M326.599787,279.40048 C324.822127,279.40048 323.033268,279.056469 321.799627,278.386046 L321.799627,279.40048 C321.799627,281.50135 318.580319,282.600587 315.400213,282.600587 C312.502517,282.600587 309.580819,281.685356 309.082403,279.934098 C307.850362,280.638121 306.021501,281.000533 304.19984,281.000533 C301.019734,281.000533 297.800427,279.901297 297.800427,277.800427 L297.800427,274.60032 L297.800427,271.400213 L297.800427,268.200107 C297.800427,266.100037 301.019734,265.0008 304.19984,265.0008 C305.977499,265.0008 307.767159,265.344811 309,266.014434 L309,263.400747 C309,261.299877 312.219307,260.20064 315.400213,260.20064 C318.580319,260.20064 321.799627,261.299877 321.799627,263.400747 L321.799627,266.600853 L321.799627,269.80016 L321.799627,270.814594 C323.033268,270.144971 324.822127,269.80016 326.599787,269.80016 C329.780693,269.80016 333,270.899397 333,273.000267 L333,276.200373 C333,278.301243 329.780693,279.40048 326.599787,279.40048 L326.599787,279.40048 Z M304.19984,266.600853 C301.222141,266.600853 299.39968,267.636088 299.39968,268.200107 C299.39968,268.764925 301.222141,269.80016 304.19984,269.80016 C307.177539,269.80016 309,268.764925 309,268.200107 C309,267.636088 307.177539,266.600853 304.19984,266.600853 L304.19984,266.600853 Z M309,270.38658 C307.767159,271.056202 305.977499,271.400213 304.19984,271.400213 C302.422181,271.400213 300.633321,271.056202 299.39968,270.38658 L299.39968,271.400213 C299.39968,271.964232 301.222141,273.000267 304.19984,273.000267 C307.177539,273.000267 309,271.964232 309,271.400213 L309,270.38658 L309,270.38658 Z M309,273.586686 C307.767159,274.256309 305.977499,274.60032 304.19984,274.60032 C302.422181,274.60032 300.633321,274.256309 299.39968,273.586686 L299.39968,274.60032 C299.39968,275.164339 301.222141,276.200373 304.19984,276.200373 C307.177539,276.200373 309,275.164339 309,274.60032 L309,273.586686 L309,273.586686 Z M309,276.775593 C307.767159,277.449215 305.982299,277.800427 304.19984,277.800427 C302.422181,277.800427 300.633321,277.456415 299.39968,276.786793 L299.39968,277.800427 C299.39968,278.364445 301.222141,279.40048 304.19984,279.40048 C307.177539,279.40048 309,278.364445 309,277.800427 L309,276.775593 L309,276.775593 Z M315.400213,261.800693 C312.422514,261.800693 310.600053,262.836728 310.600053,263.400747 C310.600053,263.964765 312.422514,265.0008 315.400213,265.0008 C318.377913,265.0008 320.200373,263.964765 320.200373,263.400747 C320.200373,262.836728 318.377913,261.800693 315.400213,261.800693 L315.400213,261.800693 Z M320.200373,265.58642 C318.966732,266.256042 317.177873,266.600853 315.400213,266.600853 C313.621754,266.600853 311.832894,266.256042 310.600053,265.58642 L310.600053,266.600853 C310.600053,267.164872 312.422514,268.200107 315.400213,268.200107 C318.377913,268.200107 320.200373,267.164872 320.200373,266.600853 L320.200373,265.58642 L320.200373,265.58642 Z M320.200373,268.786526 C318.966732,269.456149 317.177873,269.80016 315.400213,269.80016 C313.621754,269.80016 311.832894,269.456149 310.600053,268.786526 L310.600053,269.80016 C310.600053,270.364979 312.422514,271.400213 315.400213,271.400213 C318.377913,271.400213 320.200373,270.364979 320.200373,269.80016 L320.200373,268.786526 L320.200373,268.786526 Z M320.200373,271.986633 C318.966732,272.656255 317.177873,273.000267 315.400213,273.000267 C313.621754,273.000267 311.832894,272.656255 310.600053,271.986633 L310.600053,273.000267 C310.600053,273.564285 312.422514,274.60032 315.400213,274.60032 C318.377913,274.60032 320.200373,273.564285 320.200373,273.000267 L320.200373,271.986633 L320.200373,271.986633 Z M320.200373,275.18674 C318.966732,275.856362 317.177873,276.200373 315.400213,276.200373 C313.621754,276.200373 311.832894,275.856362 310.600053,275.18674 L310.600053,276.200373 C310.600053,276.764392 312.422514,277.800427 315.400213,277.800427 C318.377913,277.800427 320.200373,276.764392 320.200373,276.200373 L320.200373,275.18674 L320.200373,275.18674 Z M320.200373,278.386046 C318.966732,279.056469 317.177873,279.40048 315.400213,279.40048 C313.615354,279.40048 311.831294,279.047668 310.600053,278.371646 L310.600053,279.40048 C310.600053,279.964499 312.422514,281.000533 315.400213,281.000533 C318.377913,281.000533 320.200373,279.964499 320.200373,279.40048 L320.200373,278.386046 L320.200373,278.386046 Z M326.599787,271.400213 C323.622087,271.400213 321.799627,272.436248 321.799627,273.000267 C321.799627,273.564285 323.622087,274.60032 326.599787,274.60032 C329.577486,274.60032 331.399947,273.564285 331.399947,273.000267 C331.399947,272.436248 329.577486,271.400213 326.599787,271.400213 L326.599787,271.400213 Z M331.399947,275.18674 C330.167106,275.856362 328.377446,276.200373 326.599787,276.200373 C324.822127,276.200373 323.033268,275.856362 321.799627,275.18674 L321.799627,276.200373 C321.799627,276.764392 323.622087,277.800427 326.599787,277.800427 C329.577486,277.800427 331.399947,276.764392 331.399947,276.200373 L331.399947,275.18674 L331.399947,275.18674 Z M324.999733,254.600453 C324.999733,255.923697 323.923697,257.000533 322.599653,257.000533 C321.276409,257.000533 320.200373,255.923697 320.200373,254.600453 C320.200373,253.277209 321.276409,252.200373 322.599653,252.200373 C323.923697,252.200373 324.999733,253.277209 324.999733,254.600453 L324.999733,254.600453 Z M321.799627,254.600453 C321.799627,255.041268 322.158839,255.40048 322.599653,255.40048 C323.041268,255.40048 323.39968,255.041268 323.39968,254.600453 C323.39968,254.159639 323.041268,253.800427 322.599653,253.800427 C322.158839,253.800427 321.799627,254.159639 321.799627,254.600453 L321.799627,254.600453 Z M293.000267,254.600453 C293.000267,253.277209 294.076303,252.200373 295.400347,252.200373 C296.723591,252.200373 297.800427,253.277209 297.800427,254.600453 C297.800427,255.923697 296.723591,257.000533 295.400347,257.000533 C294.076303,257.000533 293.000267,255.923697 293.000267,254.600453 L293.000267,254.600453 Z M296.200373,254.600453 C296.200373,254.159639 295.841161,253.800427 295.400347,253.800427 C294.958732,253.800427 294.59952,254.159639 294.59952,254.600453 C294.59952,255.041268 294.958732,255.40048 295.400347,255.40048 C295.841161,255.40048 296.200373,255.041268 296.200373,254.600453 L296.200373,254.600453 Z M298.605254,264.200773 C298.605254,264.642388 298.247642,265.0008 297.805227,265.0008 L292.20024,265.0008 C291.757825,265.0008 291.400213,264.642388 291.400213,264.200773 C291.400213,262.876729 290.323377,261.800693 289.000133,261.800693 C288.558519,261.800693 288.200107,261.442281 288.200107,261.000667 L288.200107,248.20024 C288.200107,247.758625 288.558519,247.400213 289.000133,247.400213 C290.323377,247.400213 291.400213,246.324177 291.400213,245.000133 C291.400213,244.558519 291.757825,244.200107 292.20024,244.200107 L325.79976,244.200107 C326.241375,244.200107 326.599787,244.558519 326.599787,245.000133 C326.599787,246.324177 327.676623,247.400213 328.999867,247.400213 C329.441481,247.400213 329.799893,247.758625 329.799893,248.20024 L329.799893,261.000667 C329.799893,261.442281 329.441481,261.800693 328.999867,261.800693 C327.676623,261.800693 326.599787,262.876729 326.599787,264.200773 C326.599787,264.642388 326.241375,265.0008 325.79976,265.0008 L324.199707,265.0008 C323.758092,265.0008 323.39968,264.642388 323.39968,264.200773 C323.39968,263.758359 323.758092,263.400747 324.199707,263.400747 L325.080536,263.400747 C325.398947,261.835895 326.634988,260.599853 328.19984,260.280643 L328.19984,248.920264 C326.634988,248.601053 325.398947,247.365012 325.080536,245.80016 L313.244141,245.80016 C315.495417,247.642621 316.999467,250.89313 316.999467,254.600453 C316.999467,255.750892 316.849062,256.90053 316.551452,258.017367 C316.438648,258.443781 316.002633,258.69899 315.572219,258.583786 C315.145005,258.470182 314.891396,258.031768 315.005,257.604553 C315.267409,256.622921 315.400213,255.611687 315.400213,254.600453 C315.400213,249.748292 312.528918,245.80016 309,245.80016 C305.471082,245.80016 302.599787,249.748292 302.599787,254.600453 C302.599787,256.59892 303.099003,258.483783 303.973432,260.009434 C304.625454,259.527018 305.439081,259.039801 306.398313,258.805394 C306.396713,258.669389 306.396713,258.529384 306.396713,258.38618 C306.396713,258.292576 306.255109,258.021367 306.162305,257.842161 C305.975899,257.48615 305.748692,257.050935 305.68549,256.530918 C305.442281,255.9877 305.309477,255.450882 305.309477,255.006067 C305.309477,254.759659 305.350278,254.538851 305.431881,254.346845 C305.420681,254.276443 305.40788,254.20524 305.39668,254.134038 L305.322277,253.702823 C305.052668,252.203573 305.542285,251.097137 306.778326,250.408314 C306.780726,250.363512 306.782326,250.318711 306.784726,250.273909 C306.807127,249.827494 306.835128,249.273076 307.380746,249.057869 C307.671956,248.942665 308.066369,249.033068 308.291976,249.252275 C308.631988,249.581886 309.720824,249.857895 310.243241,249.9907 C310.482449,250.051502 310.673656,250.101903 310.784859,250.141105 C312.29851,250.678723 312.988933,251.977166 312.677723,253.702023 L312.60332,254.134038 C312.59132,254.20524 312.579319,254.276443 312.568119,254.346845 C312.649722,254.538851 312.690523,254.759659 312.690523,255.006067 C312.690523,255.450882 312.557719,255.9877 312.31451,256.530918 C312.250508,257.057335 312.020101,257.50455 311.831294,257.870962 C311.742491,258.042168 311.609687,258.300577 311.603287,258.39178 L311.601687,258.477383 C311.592886,258.914997 311.195273,259.29581 310.79366,259.29501 C310.354445,259.29021 310.001633,258.968599 310.001633,258.530184 C310.001633,258.524584 310.002433,258.448582 310.002433,258.442981 C310.003233,257.926164 310.20964,257.525351 310.408847,257.138138 C310.561652,256.842928 310.718457,256.536518 310.730458,256.284509 C310.735258,256.176506 310.762459,256.071702 310.80886,255.974099 C310.984866,255.608487 311.09047,255.246075 311.09047,255.006067 C311.09047,254.996467 311.09127,254.992466 311.09367,254.991666 C310.955265,254.81246 310.898463,254.580453 310.940865,254.355645 C310.970466,254.19804 310.997667,254.035635 311.025668,253.869229 L311.10327,253.418014 C311.323277,252.197173 310.762459,251.831561 310.249642,251.649155 C310.168039,251.620354 310.026434,251.585953 309.849628,251.541951 C309.315211,251.405947 308.774392,251.258742 308.293576,251.067536 C308.219174,251.331544 308.074369,251.561952 307.779159,251.694756 C306.964732,252.061169 306.733524,252.512384 306.89673,253.418814 L306.974332,253.869229 C307.002333,254.035635 307.029534,254.19804 307.059135,254.355645 C307.099937,254.577253 307.046335,254.80446 306.91273,254.982866 C306.916731,255.273276 307.020734,255.622087 307.19114,255.974099 C307.238341,256.071702 307.264742,256.176506 307.269542,256.284509 C307.280743,256.527718 307.426348,256.806927 307.580753,257.102137 C307.775959,257.475749 307.996767,257.899763 307.996767,258.38858 C307.995967,258.628588 307.995167,258.856595 308.004767,259.071002 C308.031168,259.672622 307.599153,260.20704 307.001533,260.312644 C306.194306,260.455849 305.467882,260.883863 304.890263,261.315077 C305.11187,261.568686 305.351078,261.807094 305.606287,262.030301 C305.939098,262.320711 305.974299,262.826328 305.683889,263.159139 C305.525484,263.339945 305.303077,263.433548 305.080669,263.433548 C305.076669,263.433548 305.072669,263.431148 305.068669,263.431148 C305.066269,263.431148 305.064669,263.432748 305.062269,263.432748 C304.875863,263.432748 304.687856,263.367946 304.536651,263.235141 C304.050235,262.810327 303.615021,262.31351 303.219007,261.775093 C303.188606,261.732691 303.151005,261.69509 303.121404,261.652688 C303.119804,261.650288 303.119004,261.647888 303.117404,261.645488 C301.771759,259.747025 300.999733,257.246942 300.999733,254.600453 C300.999733,250.89313 302.503783,247.642621 304.755859,245.80016 L292.919464,245.80016 C292.601053,247.365012 291.365012,248.601053 289.80016,248.920264 L289.80016,260.280643 C291.365012,260.599853 292.601053,261.835895 292.919464,263.400747 L297.805227,263.400747 C298.247642,263.400747 298.605254,263.758359 298.605254,264.200773 L298.605254,264.200773 Z M332.199973,268.200107 L324.199707,268.200107 C323.758092,268.200107 323.39968,267.842495 323.39968,267.40008 C323.39968,266.958465 323.758092,266.600853 324.199707,266.600853 L331.399947,266.600853 L331.399947,242.600053 L286.600053,242.600053 L286.600053,266.600853 L295.482749,266.600853 C295.925164,266.600853 296.283576,266.958465 296.283576,267.40008 C296.283576,267.842495 295.925164,268.200107 295.482749,268.200107 L285.800027,268.200107 C285.358412,268.200107 285,267.842495 285,267.40008 L285,241.800027 C285,241.358412 285.358412,241 285.800027,241 L332.199973,241 C332.641588,241 333,241.358412 333,241.800027 L333,267.40008 C333,267.842495 332.641588,268.200107 332.199973,268.200107 L332.199973,268.200107 Z" id="icon-fidyah" sketch:type="MSShapeGroup"></path>
        </g>
    </g>
</svg>