<?xml version="1.0" encoding="UTF-8" standalone="no"?>
<svg width="43px" height="32px" viewBox="0 0 43 32" version="1.1" xmlns="http://www.w3.org/2000/svg" xmlns:xlink="http://www.w3.org/1999/xlink" xmlns:sketch="http://www.bohemiancoding.com/sketch/ns">
    <!-- Generator: Sketch 3.3.2 (12043) - http://www.bohemiancoding.com/sketch -->
    <title>icon-sunnah</title>
    <desc>Created with Sketch.</desc>
    <defs></defs>
    <g id="Page-1" stroke="none" stroke-width="1" fill="none" fill-rule="evenodd" sketch:type="MSPage">
        <g id="Artboard-4" sketch:type="MSArtboardGroup" transform="translate(-74.000000, -509.000000)" fill="#FFFFFF">
            <path d="M116.050644,538.833092 C115.946777,539.107952 115.683929,539.29025 115.389285,539.29025 L112.509262,539.29025 C111.378732,540.203152 109.973343,540.703411 108.52132,540.703411 L85.9107367,540.703411 C82.4039766,540.703411 79.5515102,537.850238 79.5515102,534.344185 C79.5515102,530.838131 82.4039766,527.984958 85.9107367,527.984958 L108.52132,527.984958 C112.027374,527.984958 114.880547,530.838131 114.880547,534.344185 C114.880547,534.996359 114.777386,535.645 114.574597,536.276683 C114.865708,536.957827 115.305202,537.568313 115.856335,538.053734 C116.077494,538.247337 116.154512,538.558232 116.050644,538.833092 L116.050644,538.833092 Z M113.157903,536.050577 C113.363518,535.493792 113.467385,534.919342 113.467385,534.344185 C113.467385,531.616783 111.248722,529.39812 108.52132,529.39812 L85.9107367,529.39812 C83.1833351,529.39812 80.9646716,531.616783 80.9646716,534.344185 C80.9646716,537.071586 83.1833351,539.29025 85.9107367,539.29025 L108.52132,539.29025 C109.719681,539.29025 110.87918,538.850757 111.78431,538.053734 C111.913614,537.939974 112.079661,537.877089 112.25136,537.877089 L113.841873,537.877089 C113.56348,537.461619 113.333841,537.012234 113.158609,536.539531 C113.099963,536.381964 113.099963,536.208145 113.157903,536.050577 L113.157903,536.050577 Z M108.52132,536.463927 L85.9107367,536.463927 C85.5199976,536.463927 85.204156,536.147379 85.204156,535.757346 C85.204156,535.367314 85.5199976,535.050766 85.9107367,535.050766 L108.52132,535.050766 C108.911353,535.050766 109.227901,535.367314 109.227901,535.757346 C109.227901,536.147379 108.911353,536.463927 108.52132,536.463927 L108.52132,536.463927 Z M108.52132,533.637604 L100.042351,533.637604 C99.6516122,533.637604 99.3357706,533.321056 99.3357706,532.931023 C99.3357706,532.540991 99.6516122,532.224443 100.042351,532.224443 L108.52132,532.224443 C108.911353,532.224443 109.227901,532.540991 109.227901,532.931023 C109.227901,533.321056 108.911353,533.637604 108.52132,533.637604 L108.52132,533.637604 Z M104.281836,522.332313 L81.6712524,522.332313 C80.219229,522.332313 78.8138399,521.83276 77.6826042,520.919151 L74.8025811,520.919151 C74.5086435,520.919151 74.2457955,520.736853 74.1419281,520.461993 C74.0380608,520.187133 74.1150781,519.876238 74.3362378,519.681928 C74.8873708,519.196507 75.326864,518.586021 75.6179753,517.905584 C75.41448,517.273195 75.3120258,516.623847 75.3120258,515.973086 C75.3120258,512.467032 78.1651988,509.613859 81.6712524,509.613859 L104.281836,509.613859 C107.788596,509.613859 110.641062,512.467032 110.641062,515.973086 C110.641062,519.47914 107.788596,522.332313 104.281836,522.332313 L104.281836,522.332313 Z M104.281836,511.027021 L81.6712524,511.027021 C78.9438508,511.027021 76.7251873,513.245684 76.7251873,515.973086 C76.7251873,516.547536 76.8290546,517.121986 77.0339631,517.679478 C77.0919027,517.837753 77.0919027,518.010865 77.0339631,518.168432 C76.858731,518.640428 76.6290923,519.089814 76.3514061,519.50599 L77.9412127,519.50599 C78.1129118,519.50599 78.2789583,519.568875 78.4082626,519.681928 C79.3133925,520.479658 80.4721849,520.919151 81.6712524,520.919151 L104.281836,520.919151 C107.009237,520.919151 109.227901,518.700488 109.227901,515.973086 C109.227901,513.245684 107.009237,511.027021 104.281836,511.027021 L104.281836,511.027021 Z M104.281836,518.092828 L81.6712524,518.092828 C81.2812198,518.092828 80.9646716,517.77628 80.9646716,517.386247 C80.9646716,516.996215 81.2812198,516.679667 81.6712524,516.679667 L104.281836,516.679667 C104.671868,516.679667 104.988416,516.996215 104.988416,517.386247 C104.988416,517.77628 104.671868,518.092828 104.281836,518.092828 L104.281836,518.092828 Z M90.1502211,515.266505 L81.6712524,515.266505 C81.2812198,515.266505 80.9646716,514.949957 80.9646716,514.559925 C80.9646716,514.169892 81.2812198,513.853344 81.6712524,513.853344 L90.1502211,513.853344 C90.5402537,513.853344 90.8568018,514.169892 90.8568018,514.559925 C90.8568018,514.949957 90.5402537,515.266505 90.1502211,515.266505 L90.1502211,515.266505 Z" id="icon-sunnah" sketch:type="MSShapeGroup"></path>
        </g>
    </g>
</svg>