<?xml version="1.0" encoding="UTF-8" standalone="no"?>
<svg width="48px" height="44px" viewBox="0 0 48 44" version="1.1" xmlns="http://www.w3.org/2000/svg" xmlns:xlink="http://www.w3.org/1999/xlink" xmlns:sketch="http://www.bohemiancoding.com/sketch/ns">
    <!-- Generator: Sketch 3.3.2 (12043) - http://www.bohemiancoding.com/sketch -->
    <title>icon-rakaat</title>
    <desc>Created with Sketch.</desc>
    <defs></defs>
    <g id="Page-1" stroke="none" stroke-width="1" fill="none" fill-rule="evenodd" sketch:type="MSPage">
        <g id="Artboard-4" sketch:type="MSArtboardGroup" transform="translate(-396.000000, -508.000000)" fill="#222222">
            <path d="M441.6,551.2 L440,551.2 C438.6768,551.2 437.6,550.1232 437.6,548.8 L437.6,544.8 L434.4,544.8 L434.4,545.6 C434.4,546.9232 433.324,548 432,548 L430.4,548 C429.0768,548 428,546.9232 428,545.6 L428,544.8 L426.4,544.8 L426.4,545.6 C426.4,546.9232 425.324,548 424,548 L422.4,548 C421.0768,548 420,546.9232 420,545.6 L420,544.8 L418.4,544.8 L418.4,545.6 C418.4,546.9232 417.324,548 416,548 L414.4,548 C413.0768,548 412,546.9232 412,545.6 L412,544.8 L402.4,544.8 L402.4,548.8 C402.4,550.1232 401.324,551.2 400,551.2 L398.4,551.2 C397.0768,551.2 396,550.1232 396,548.8 L396,510.4 C396,509.0768 397.0768,508 398.4,508 L400,508 C401.324,508 402.4,509.0768 402.4,510.4 L402.4,514.4 L405.6,514.4 L405.6,513.6 C405.6,512.2768 406.6768,511.2 408,511.2 L409.6,511.2 C410.924,511.2 412,512.2768 412,513.6 L412,514.4 L420,514.4 L420,513.6 C420,512.2768 421.0768,511.2 422.4,511.2 L424,511.2 C425.324,511.2 426.4,512.2768 426.4,513.6 L426.4,514.4 L428,514.4 L428,513.6 C428,512.2768 429.0768,511.2 430.4,511.2 L432,511.2 C433.324,511.2 434.4,512.2768 434.4,513.6 L434.4,514.4 L437.6,514.4 L437.6,510.4 C437.6,509.0768 438.6768,508 440,508 L441.6,508 C442.924,508 444,509.0768 444,510.4 L444,548.8 C444,550.1232 442.924,551.2 441.6,551.2 L441.6,551.2 Z M400.8,510.4 C400.8,509.9592 400.4416,509.6 400,509.6 L398.4,509.6 C397.9592,509.6 397.6,509.9592 397.6,510.4 L397.6,548.8 C397.6,549.2408 397.9592,549.6 398.4,549.6 L400,549.6 C400.4416,549.6 400.8,549.2408 400.8,548.8 L400.8,510.4 L400.8,510.4 Z M429.6,545.6 C429.6,546.0408 429.9592,546.4 430.4,546.4 L432,546.4 C432.4416,546.4 432.8,546.0408 432.8,545.6 L432.8,542.4 C432.8,541.9592 432.4416,541.6 432,541.6 L430.4,541.6 C429.9592,541.6 429.6,541.9592 429.6,542.4 L429.6,545.6 L429.6,545.6 Z M421.6,545.6 C421.6,546.0408 421.9592,546.4 422.4,546.4 L424,546.4 C424.4416,546.4 424.8,546.0408 424.8,545.6 L424.8,542.4 C424.8,541.9592 424.4416,541.6 424,541.6 L422.4,541.6 C421.9592,541.6 421.6,541.9592 421.6,542.4 L421.6,545.6 L421.6,545.6 Z M413.6,545.6 C413.6,546.0408 413.9592,546.4 414.4,546.4 L416,546.4 C416.4416,546.4 416.8,546.0408 416.8,545.6 L416.8,542.4 C416.8,541.9592 416.4416,541.6 416,541.6 L414.4,541.6 C413.9592,541.6 413.6,541.9592 413.6,542.4 L413.6,545.6 L413.6,545.6 Z M410.4,513.6 C410.4,513.1592 410.0416,512.8 409.6,512.8 L408,512.8 C407.5592,512.8 407.2,513.1592 407.2,513.6 L407.2,516.8 C407.2,517.2408 407.5592,517.6 408,517.6 L409.6,517.6 C410.0416,517.6 410.4,517.2408 410.4,516.8 L410.4,513.6 L410.4,513.6 Z M424.8,513.6 C424.8,513.1592 424.4416,512.8 424,512.8 L422.4,512.8 C421.9592,512.8 421.6,513.1592 421.6,513.6 L421.6,516.8 C421.6,517.2408 421.9592,517.6 422.4,517.6 L424,517.6 C424.4416,517.6 424.8,517.2408 424.8,516.8 L424.8,513.6 L424.8,513.6 Z M432.8,513.6 C432.8,513.1592 432.4416,512.8 432,512.8 L430.4,512.8 C429.9592,512.8 429.6,513.1592 429.6,513.6 L429.6,516.8 C429.6,517.2408 429.9592,517.6 430.4,517.6 L432,517.6 C432.4416,517.6 432.8,517.2408 432.8,516.8 L432.8,513.6 L432.8,513.6 Z M437.6,516 L434.4,516 L434.4,516.8 C434.4,518.1232 433.324,519.2 432,519.2 L430.4,519.2 C429.0768,519.2 428,518.1232 428,516.8 L428,516 L426.4,516 L426.4,516.8 C426.4,518.1232 425.324,519.2 424,519.2 L422.4,519.2 C421.0768,519.2 420,518.1232 420,516.8 L420,516 L412,516 L412,516.8 C412,518.1232 410.924,519.2 409.6,519.2 L408,519.2 C406.6768,519.2 405.6,518.1232 405.6,516.8 L405.6,516 L402.4,516 L402.4,524 L405.6,524 L405.6,523.2 C405.6,521.8768 406.6768,520.8 408,520.8 L409.6,520.8 C410.924,520.8 412,521.8768 412,523.2 L412,524 L413.6,524 L413.6,523.2 C413.6,521.8768 414.6768,520.8 416,520.8 L417.6,520.8 C418.924,520.8 420,521.8768 420,523.2 L420,524 L428,524 L428,523.2 C428,521.8768 429.0768,520.8 430.4,520.8 L432,520.8 C433.324,520.8 434.4,521.8768 434.4,523.2 L434.4,524 L437.6,524 L437.6,516 L437.6,516 Z M407.2,523.2 L407.2,526.4 C407.2,526.8408 407.5592,527.2 408,527.2 L409.6,527.2 C410.0416,527.2 410.4,526.8408 410.4,526.4 L410.4,523.2 C410.4,522.7592 410.0416,522.4 409.6,522.4 L408,522.4 C407.5592,522.4 407.2,522.7592 407.2,523.2 L407.2,523.2 Z M415.2,523.2 L415.2,526.4 C415.2,526.8408 415.5592,527.2 416,527.2 L417.6,527.2 C418.0416,527.2 418.4,526.8408 418.4,526.4 L418.4,523.2 C418.4,522.7592 418.0416,522.4 417.6,522.4 L416,522.4 C415.5592,522.4 415.2,522.7592 415.2,523.2 L415.2,523.2 Z M429.6,523.2 L429.6,526.4 C429.6,526.8408 429.9592,527.2 430.4,527.2 L432,527.2 C432.4416,527.2 432.8,526.8408 432.8,526.4 L432.8,523.2 C432.8,522.7592 432.4416,522.4 432,522.4 L430.4,522.4 C429.9592,522.4 429.6,522.7592 429.6,523.2 L429.6,523.2 Z M437.6,525.6 L434.4,525.6 L434.4,526.4 C434.4,527.7232 433.324,528.8 432,528.8 L430.4,528.8 C429.0768,528.8 428,527.7232 428,526.4 L428,525.6 L420,525.6 L420,526.4 C420,527.7232 418.924,528.8 417.6,528.8 L416,528.8 C414.6768,528.8 413.6,527.7232 413.6,526.4 L413.6,525.6 L412,525.6 L412,526.4 C412,527.7232 410.924,528.8 409.6,528.8 L408,528.8 C406.6768,528.8 405.6,527.7232 405.6,526.4 L405.6,525.6 L402.4,525.6 L402.4,533.6 L405.6,533.6 L405.6,532.8 C405.6,531.4768 406.6768,530.4 408,530.4 L409.6,530.4 C410.924,530.4 412,531.4768 412,532.8 L412,533.6 L413.6,533.6 L413.6,532.8 C413.6,531.4768 414.6768,530.4 416,530.4 L417.6,530.4 C418.924,530.4 420,531.4768 420,532.8 L420,533.6 L421.6,533.6 L421.6,532.8 C421.6,531.4768 422.6768,530.4 424,530.4 L425.6,530.4 C426.924,530.4 428,531.4768 428,532.8 L428,533.6 L437.6,533.6 L437.6,525.6 L437.6,525.6 Z M407.2,532.8 L407.2,536 C407.2,536.4408 407.5592,536.8 408,536.8 L409.6,536.8 C410.0416,536.8 410.4,536.4408 410.4,536 L410.4,532.8 C410.4,532.3592 410.0416,532 409.6,532 L408,532 C407.5592,532 407.2,532.3592 407.2,532.8 L407.2,532.8 Z M415.2,532.8 L415.2,536 C415.2,536.4408 415.5592,536.8 416,536.8 L417.6,536.8 C418.0416,536.8 418.4,536.4408 418.4,536 L418.4,532.8 C418.4,532.3592 418.0416,532 417.6,532 L416,532 C415.5592,532 415.2,532.3592 415.2,532.8 L415.2,532.8 Z M423.2,532.8 L423.2,536 C423.2,536.4408 423.5592,536.8 424,536.8 L425.6,536.8 C426.0416,536.8 426.4,536.4408 426.4,536 L426.4,532.8 C426.4,532.3592 426.0416,532 425.6,532 L424,532 C423.5592,532 423.2,532.3592 423.2,532.8 L423.2,532.8 Z M437.6,535.2 L428,535.2 L428,536 C428,537.3232 426.924,538.4 425.6,538.4 L424,538.4 C422.6768,538.4 421.6,537.3232 421.6,536 L421.6,535.2 L420,535.2 L420,536 C420,537.3232 418.924,538.4 417.6,538.4 L416,538.4 C414.6768,538.4 413.6,537.3232 413.6,536 L413.6,535.2 L412,535.2 L412,536 C412,537.3232 410.924,538.4 409.6,538.4 L408,538.4 C406.6768,538.4 405.6,537.3232 405.6,536 L405.6,535.2 L402.4,535.2 L402.4,543.2 L412,543.2 L412,542.4 C412,541.0768 413.0768,540 414.4,540 L416,540 C417.324,540 418.4,541.0768 418.4,542.4 L418.4,543.2 L420,543.2 L420,542.4 C420,541.0768 421.0768,540 422.4,540 L424,540 C425.324,540 426.4,541.0768 426.4,542.4 L426.4,543.2 L428,543.2 L428,542.4 C428,541.0768 429.0768,540 430.4,540 L432,540 C433.324,540 434.4,541.0768 434.4,542.4 L434.4,543.2 L437.6,543.2 L437.6,535.2 L437.6,535.2 Z M442.4,510.4 C442.4,509.9592 442.0416,509.6 441.6,509.6 L440,509.6 C439.5592,509.6 439.2,509.9592 439.2,510.4 L439.2,548.8 C439.2,549.2408 439.5592,549.6 440,549.6 L441.6,549.6 C442.0416,549.6 442.4,549.2408 442.4,548.8 L442.4,510.4 L442.4,510.4 Z" id="icon-rakaat" sketch:type="MSShapeGroup"></path>
        </g>
    </g>
</svg>