<?xml version="1.0" encoding="UTF-8" standalone="no"?>
<svg width="48px" height="48px" viewBox="0 0 48 48" version="1.1" xmlns="http://www.w3.org/2000/svg" xmlns:xlink="http://www.w3.org/1999/xlink" xmlns:sketch="http://www.bohemiancoding.com/sketch/ns">
    <!-- Generator: Sketch 3.3.2 (12043) - http://www.bohemiancoding.com/sketch -->
    <title>Shape</title>
    <desc>Created with Sketch.</desc>
    <defs></defs>
    <g id="Page-1" stroke="none" stroke-width="1" fill="none" fill-rule="evenodd" sketch:type="MSPage">
        <g id="Artboard-4" sketch:type="MSArtboardGroup" transform="translate(-430.000000, -402.000000)" fill="#222222">
            <path d="M474.571306,408.857388 C474.492446,408.857388 474.417872,408.839387 474.339869,408.833387 L469.574842,423.127612 C470.516018,423.739634 471.142612,424.796528 471.142612,426 C471.142612,427.890925 469.604843,429.428694 467.713918,429.428694 C465.823851,429.428694 464.286082,427.890925 464.286082,426 C464.286082,425.164256 464.598093,424.407372 465.096968,423.811636 L460.369656,417.191685 C459.987357,417.339119 459.576771,417.428265 459.143041,417.428265 C459.039323,417.428265 458.940748,417.406836 458.839601,417.398264 L452.494803,435.164042 C453.40255,435.782064 454,436.821815 454,438.000429 C454,439.890496 452.462231,441.429122 450.571306,441.429122 C448.681239,441.429122 447.142612,439.890496 447.142612,438.000429 C447.142612,437.163827 447.455481,436.406943 447.954356,435.811208 L443.227044,429.192114 C442.844744,429.339548 442.433301,429.428694 442.000429,429.428694 C441.812708,429.428694 441.631844,429.402122 441.452695,429.372978 L433.885567,446.571306 L477.142827,446.571306 C477.615986,446.571306 478,446.95532 478,447.42848 C478,447.902497 477.615986,448.285653 477.142827,448.285653 L474.571306,448.285653 L474.571306,449.142827 C474.571306,449.615986 474.187292,450 473.714133,450 C473.240973,450 472.856959,449.615986 472.856959,449.142827 L472.856959,448.285653 L469.428265,448.285653 L469.428265,449.142827 C469.428265,449.615986 469.045109,450 468.571092,450 C468.097932,450 467.713918,449.615986 467.713918,449.142827 L467.713918,448.285653 L464.286082,448.285653 L464.286082,449.142827 C464.286082,449.615986 463.902068,450 463.428051,450 C462.954891,450 462.570878,449.615986 462.570878,449.142827 L462.570878,448.285653 L459.143041,448.285653 L459.143041,449.142827 C459.143041,449.615986 458.759027,450 458.285867,450 C457.812708,450 457.428694,449.615986 457.428694,449.142827 L457.428694,448.285653 L454,448.285653 L454,449.142827 C454,449.615986 453.615986,450 453.142827,450 C452.669667,450 452.285653,449.615986 452.285653,449.142827 L452.285653,448.285653 L448.856959,448.285653 L448.856959,449.142827 C448.856959,449.615986 448.472945,450 447.999786,450 C447.526626,450 447.142612,449.615986 447.142612,449.142827 L447.142612,448.285653 L443.713918,448.285653 L443.713918,449.142827 C443.713918,449.615986 443.330762,450 442.856745,450 C442.383585,450 442.000429,449.615986 442.000429,449.142827 L442.000429,448.285653 L438.570878,448.285653 L438.570878,449.142827 C438.570878,449.615986 438.187721,450 437.714561,450 C437.241401,450 436.857388,449.615986 436.857388,449.142827 L436.857388,448.285653 L433.428694,448.285653 L433.428694,449.142827 C433.428694,449.615986 433.04468,450 432.57152,450 C432.098361,450 431.714347,449.615986 431.714347,449.142827 L431.714347,448.285653 L430.857173,448.285653 C430.384014,448.285653 430,447.902497 430,447.42848 C430,446.95532 430.384014,446.571306 430.857173,446.571306 L431.714347,446.571306 L431.714347,443.143469 L430.857173,443.143469 C430.384014,443.143469 430,442.759456 430,442.286296 C430,441.812279 430.384014,441.429122 430.857173,441.429122 L431.714347,441.429122 L431.714347,438.000429 L430.857173,438.000429 C430.384014,438.000429 430,437.616415 430,437.143255 C430,436.670095 430.384014,436.286082 430.857173,436.286082 L431.714347,436.286082 L431.714347,432.857388 L430.857173,432.857388 C430.384014,432.857388 430,432.473374 430,432.000214 C430,431.527055 430.384014,431.143041 430.857173,431.143041 L431.714347,431.143041 L431.714347,427.714347 L430.857173,427.714347 C430.384014,427.714347 430,427.330333 430,426.857173 C430,426.384014 430.384014,426 430.857173,426 L431.714347,426 L431.714347,422.571306 L430.857173,422.571306 C430.384014,422.571306 430,422.187292 430,421.714133 C430,421.240973 430.384014,420.856959 430.857173,420.856959 L431.714347,420.856959 L431.714347,417.428265 L430.857173,417.428265 C430.384014,417.428265 430,417.045109 430,416.571092 C430,416.097932 430.384014,415.713918 430.857173,415.713918 L431.714347,415.713918 L431.714347,412.286082 L430.857173,412.286082 C430.384014,412.286082 430,411.902068 430,411.428908 C430,410.954891 430.384014,410.571735 430.857173,410.571735 L431.714347,410.571735 L431.714347,407.143041 L430.857173,407.143041 C430.384014,407.143041 430,406.759027 430,406.285867 C430,405.812708 430.384014,405.428694 430.857173,405.428694 L431.714347,405.428694 L431.714347,402.857173 C431.714347,402.384014 432.098361,402 432.57152,402 C433.04468,402 433.428694,402.384014 433.428694,402.857173 L433.428694,443.351763 L439.884924,428.67781 C439.091182,428.049502 438.570878,427.08861 438.570878,426 C438.570878,424.109932 440.109504,422.571306 442.000429,422.571306 C443.890496,422.571306 445.428265,424.109932 445.428265,426 C445.428265,426.835744 445.115397,427.592628 444.616522,428.188364 L449.344691,434.808315 C449.72699,434.660881 450.137576,434.571735 450.571306,434.571735 C450.675024,434.571735 450.773599,434.593164 450.874746,434.602593 L457.219544,416.835958 C456.311797,416.217936 455.714347,415.178185 455.714347,413.999571 C455.714347,412.109504 457.252116,410.571735 459.143041,410.571735 C461.033108,410.571735 462.570878,412.109504 462.570878,413.999571 C462.570878,414.836173 462.258866,415.593057 461.759991,416.188792 L466.487303,422.807886 C466.869602,422.660452 467.281046,422.571306 467.713918,422.571306 C467.793635,422.571306 467.867352,422.589307 467.945355,422.595307 L472.710383,408.300225 C471.769206,407.688203 471.142612,406.632165 471.142612,405.428694 C471.142612,403.537769 472.681239,402 474.571306,402 C476.462231,402 478,403.537769 478,405.428694 C478,407.318761 476.462231,408.857388 474.571306,408.857388 L474.571306,408.857388 Z M442.000429,424.285653 C441.054966,424.285653 440.286082,425.054538 440.286082,426 C440.286082,426.699454 440.707811,427.299475 441.30869,427.566056 C441.309547,427.566913 441.310404,427.566056 441.310404,427.566913 C441.312118,427.566913 441.312975,427.568627 441.31469,427.569485 C441.524697,427.661202 441.756134,427.714347 442.000429,427.714347 C442.369013,427.714347 442.708454,427.594343 442.98875,427.395478 C442.990464,427.394621 442.991321,427.39205 442.993893,427.390335 C442.99475,427.389478 442.995607,427.389478 442.997321,427.388621 C443.429337,427.077467 443.713918,426.572592 443.713918,426 C443.713918,425.054538 442.945034,424.285653 442.000429,424.285653 L442.000429,424.285653 Z M451.168756,436.399229 C451.161041,436.396657 451.15247,436.398371 451.144755,436.394943 C451.140469,436.393228 451.137898,436.3898 451.133612,436.388085 C450.956177,436.326369 450.769313,436.286082 450.571306,436.286082 C450.202722,436.286082 449.862424,436.405229 449.582985,436.604093 C449.580414,436.605807 449.579556,436.608379 449.577842,436.610093 C449.576128,436.61095 449.575271,436.61095 449.573556,436.611808 C449.141541,436.922962 448.856959,437.427837 448.856959,438.000429 C448.856959,438.945891 449.625844,439.714776 450.571306,439.714776 C451.516768,439.714776 452.285653,438.945891 452.285653,438.000429 C452.285653,437.265831 451.819351,436.643523 451.168756,436.399229 L451.168756,436.399229 Z M459.143041,412.286082 C458.197578,412.286082 457.428694,413.054966 457.428694,413.999571 C457.428694,414.735883 457.896711,415.359906 458.549877,415.602486 C458.555877,415.6042 458.562734,415.602486 458.569592,415.605057 C458.573878,415.606772 458.576449,415.6102 458.580735,415.611915 C458.75817,415.673631 458.945034,415.713918 459.143041,415.713918 C459.511625,415.713918 459.851066,415.594771 460.130505,415.396764 C460.133076,415.39505 460.133933,415.392478 460.136505,415.390764 C460.137362,415.389907 460.139076,415.389907 460.139934,415.38905 C460.572806,415.077038 460.857388,414.57302 460.857388,413.999571 C460.857388,413.054966 460.088503,412.286082 459.143041,412.286082 L459.143041,412.286082 Z M466.720454,424.609665 C466.719597,424.610522 466.717883,424.610522 466.717026,424.611379 C466.284153,424.92339 466.000429,425.427408 466.000429,426 C466.000429,426.945462 466.768456,427.714347 467.713918,427.714347 C468.659381,427.714347 469.428265,426.945462 469.428265,426 C469.428265,425.253402 468.945677,424.623379 468.277938,424.388514 C468.269367,424.385942 468.260795,424.387657 468.252223,424.384228 C468.24708,424.382514 468.243652,424.378228 468.238509,424.376513 C468.072217,424.322512 467.898211,424.285653 467.713918,424.285653 C467.345334,424.285653 467.005036,424.405657 466.725597,424.604522 C466.723883,424.606236 466.723026,424.60795 466.720454,424.609665 L466.720454,424.609665 Z M474.571306,403.714347 C473.625844,403.714347 472.856959,404.483232 472.856959,405.428694 C472.856959,406.177006 473.342119,406.808743 474.012429,407.041894 C474.019286,407.043609 474.026144,407.041894 474.033001,407.044466 C474.039001,407.04618 474.04243,407.050466 474.047573,407.05218 C474.213865,407.106182 474.387871,407.143041 474.571306,407.143041 C475.516768,407.143041 476.285653,406.374156 476.285653,405.428694 C476.285653,404.483232 475.516768,403.714347 474.571306,403.714347 L474.571306,403.714347 Z" id="Shape" sketch:type="MSShapeGroup"></path>
        </g>
    </g>
</svg>