<?xml version="1.0" encoding="UTF-8" standalone="no"?>
<svg width="54px" height="40px" viewBox="0 0 54 40" version="1.1" xmlns="http://www.w3.org/2000/svg" xmlns:xlink="http://www.w3.org/1999/xlink" xmlns:sketch="http://www.bohemiancoding.com/sketch/ns">
    <!-- Generator: Sketch 3.3.2 (12043) - http://www.bohemiancoding.com/sketch -->
    <title>icon-lafaz</title>
    <desc>Created with Sketch.</desc>
    <defs></defs>
    <g id="Page-1" stroke="none" stroke-width="1" fill="none" fill-rule="evenodd" sketch:type="MSPage">
        <g id="Artboard-4" sketch:type="MSArtboardGroup" transform="translate(-500.000000, -311.000000)" fill="#222222">
            <path d="M553.941318,348.567585 C553.807774,348.920976 553.469826,349.155359 553.090998,349.155359 L549.388111,349.155359 C547.934574,350.329091 546.127645,350.972281 544.260758,350.972281 L515.190008,350.972281 C510.681316,350.972281 507.013859,347.303916 507.013859,342.796133 C507.013859,338.28835 510.681316,334.619984 515.190008,334.619984 L544.260758,334.619984 C548.768541,334.619984 552.436906,338.28835 552.436906,342.796133 C552.436906,343.634642 552.304271,344.468609 552.043543,345.280773 C552.417829,346.15653 552.982891,346.94144 553.691491,347.565553 C553.975839,347.814471 554.074861,348.214194 553.941318,348.567585 L553.941318,348.567585 Z M550.222078,344.990066 C550.486441,344.274199 550.619984,343.53562 550.619984,342.796133 C550.619984,339.289474 547.767417,336.436906 544.260758,336.436906 L515.190008,336.436906 C511.683349,336.436906 508.830781,339.289474 508.830781,342.796133 C508.830781,346.302792 511.683349,349.155359 515.190008,349.155359 L544.260758,349.155359 C545.801508,349.155359 547.292292,348.590297 548.45603,347.565553 C548.622279,347.41929 548.835767,347.338437 549.056523,347.338437 L551.101469,347.338437 C550.743535,346.804262 550.448285,346.226481 550.222987,345.618721 C550.147585,345.416134 550.147585,345.192653 550.222078,344.990066 L550.222078,344.990066 Z M544.260758,345.521516 L515.190008,345.521516 C514.687629,345.521516 514.281547,345.114525 514.281547,344.613055 C514.281547,344.111584 514.687629,343.704594 515.190008,343.704594 L544.260758,343.704594 C544.762228,343.704594 545.169219,344.111584 545.169219,344.613055 C545.169219,345.114525 544.762228,345.521516 544.260758,345.521516 L544.260758,345.521516 Z M544.260758,341.887672 L533.359227,341.887672 C532.856848,341.887672 532.450766,341.480681 532.450766,340.979211 C532.450766,340.47774 532.856848,340.07075 533.359227,340.07075 L544.260758,340.07075 C544.762228,340.07075 545.169219,340.47774 545.169219,340.979211 C545.169219,341.480681 544.762228,341.887672 544.260758,341.887672 L544.260758,341.887672 Z M538.809992,327.352297 L509.739242,327.352297 C507.872355,327.352297 506.065426,326.710015 504.61098,325.535375 L500.908093,325.535375 C500.530174,325.535375 500.192226,325.300992 500.058682,324.947601 C499.925139,324.594209 500.024161,324.194487 500.308509,323.94466 C501.017109,323.320547 501.582171,322.535637 501.956457,321.660789 C501.694821,320.847717 501.563094,320.012841 501.563094,319.176148 C501.563094,314.668365 505.231459,311 509.739242,311 L538.809992,311 C543.318684,311 546.986141,314.668365 546.986141,319.176148 C546.986141,323.683932 543.318684,327.352297 538.809992,327.352297 L538.809992,327.352297 Z M538.809992,312.816922 L509.739242,312.816922 C506.232583,312.816922 503.380016,315.669489 503.380016,319.176148 C503.380016,319.914727 503.513559,320.653306 503.777013,321.370082 C503.851507,321.573577 503.851507,321.79615 503.777013,321.998737 C503.551715,322.605588 503.256465,323.18337 502.89944,323.718453 L504.943477,323.718453 C505.164233,323.718453 505.377721,323.799306 505.54397,323.94466 C506.707708,324.970312 508.197584,325.535375 509.739242,325.535375 L538.809992,325.535375 C542.316651,325.535375 545.169219,322.682808 545.169219,319.176148 C545.169219,315.669489 542.316651,312.816922 538.809992,312.816922 L538.809992,312.816922 Z M538.809992,321.901531 L509.739242,321.901531 C509.237772,321.901531 508.830781,321.494541 508.830781,320.99307 C508.830781,320.4916 509.237772,320.084609 509.739242,320.084609 L538.809992,320.084609 C539.311463,320.084609 539.718453,320.4916 539.718453,320.99307 C539.718453,321.494541 539.311463,321.901531 538.809992,321.901531 L538.809992,321.901531 Z M520.640773,318.267687 L509.739242,318.267687 C509.237772,318.267687 508.830781,317.860697 508.830781,317.359227 C508.830781,316.857756 509.237772,316.450766 509.739242,316.450766 L520.640773,316.450766 C521.142244,316.450766 521.549234,316.857756 521.549234,317.359227 C521.549234,317.860697 521.142244,318.267687 520.640773,318.267687 L520.640773,318.267687 Z" id="icon-lafaz" sketch:type="MSShapeGroup"></path>
        </g>
    </g>
</svg>