<?xml version="1.0" encoding="UTF-8" standalone="no"?>
<svg width="48px" height="36px" viewBox="0 0 48 36" version="1.1" xmlns="http://www.w3.org/2000/svg" xmlns:xlink="http://www.w3.org/1999/xlink" xmlns:sketch="http://www.bohemiancoding.com/sketch/ns">
    <!-- Generator: Sketch 3.3.2 (12043) - http://www.bohemiancoding.com/sketch -->
    <title>icon-sunat</title>
    <desc>Created with Sketch.</desc>
    <defs></defs>
    <g id="Page-1" stroke="none" stroke-width="1" fill="none" fill-rule="evenodd" sketch:type="MSPage">
        <g id="Artboard-4" sketch:type="MSArtboardGroup" transform="translate(-90.000000, -306.000000)" fill="#222222">
            <path d="M137.2,341.2 L90.8,341.2 C90.3584,341.2 90,340.8416 90,340.4 L90,306.8 C90,306.3576 90.3584,306 90.8,306 L137.2,306 C137.6416,306 138,306.3576 138,306.8 L138,340.4 C138,340.8416 137.6416,341.2 137.2,341.2 L137.2,341.2 Z M94.8,307.6 L91.6,307.6 L91.6,315.6 L94.8,315.6 L94.8,307.6 L94.8,307.6 Z M131.6,310.8 L129.2,310.8 C128.7584,310.8 128.4,310.4416 128.4,310 C128.4,309.5576 128.7584,309.2 129.2,309.2 L131.6,309.2 L131.6,307.6 L96.4,307.6 L96.4,312.4 L102,312.4 C102.4416,312.4 102.8,312.7576 102.8,313.2 C102.8,313.6416 102.4416,314 102,314 L96.4,314 L96.4,315.6 L110,315.6 L118,315.6 L131.6,315.6 L131.6,310.8 L131.6,310.8 Z M103.6,331.5992 L96.4,331.5992 L96.4,334.8 L131.6,334.8 L131.6,326.8 L126,326.8 C125.5584,326.8 125.2,326.4416 125.2,326 C125.2,325.5576 125.5584,325.2 126,325.2 L131.6,325.2 L131.6,322 L118.8,322 C118.8,324.6464 116.6464,326.8 114,326.8 C111.3528,326.8 109.2,324.6464 109.2,322 L96.4,322 L96.4,330 L103.6,330 C104.0416,330 104.4,330.3576 104.4,330.8 C104.4,331.2416 104.0416,331.5992 103.6,331.5992 L103.6,331.5992 Z M117.2,322 L117.2,321.2 L117.2,317.2 L110.8,317.2 L110.8,321.2 L110.8,322 C110.8,323.764 112.2352,325.2 114,325.2 C115.764,325.2 117.2,323.764 117.2,322 L117.2,322 Z M136.4,307.6 L133.2,307.6 L133.2,315.6 L136.4,315.6 L136.4,307.6 L136.4,307.6 Z M136.4,317.2 L118.8,317.2 L118.8,320.4 L132.4,320.4 C132.8416,320.4 133.2,320.7576 133.2,321.2 L133.2,335.5992 C133.2,336.0416 132.8416,336.4 132.4,336.4 L95.6,336.4 C95.1584,336.4 94.8,336.0416 94.8,335.5992 L94.8,321.2 C94.8,320.7576 95.1584,320.4 95.6,320.4 L109.2,320.4 L109.2,317.2 L91.6,317.2 L91.6,339.5992 L136.4,339.5992 L136.4,317.2 L136.4,317.2 Z M114.8,321.7768 L114.8,322.8 C114.8,323.2416 114.4416,323.6 114,323.6 C113.5584,323.6 113.2,323.2416 113.2,322.8 L113.2,321.7768 C112.724,321.5 112.4,320.9896 112.4,320.4 C112.4,319.5176 113.1176,318.8 114,318.8 C114.8824,318.8 115.6,319.5176 115.6,320.4 C115.6,320.9896 115.276,321.4992 114.8,321.7768 L114.8,321.7768 Z M101.2,326 C101.2,325.5576 101.5584,325.2 102,325.2 L106.8,325.2 C107.2416,325.2 107.6,325.5576 107.6,326 C107.6,326.4416 107.2416,326.8 106.8,326.8 L102,326.8 C101.5584,326.8 101.2,326.4416 101.2,326 L101.2,326 Z M98.8,326.8 C98.584,326.8 98.384,326.7112 98.232,326.568 C98.088,326.416 98,326.2072 98,326 C98,325.7912 98.088,325.584 98.232,325.432 C98.52,325.1352 99.0632,325.1352 99.368,325.432 C99.512,325.584 99.6,325.7912 99.6,326 C99.6,326.2072 99.512,326.416 99.368,326.568 C99.216,326.7112 99.008,326.8 98.8,326.8 L98.8,326.8 Z M113.768,330.232 C113.9112,330.384 114,330.5912 114,330.8 C114,331.0072 113.9112,331.216 113.768,331.368 C113.616,331.5112 113.408,331.5992 113.2,331.5992 C112.9912,331.5992 112.784,331.5112 112.632,331.368 C112.488,331.216 112.4,331.016 112.4,330.8 C112.4,330.584 112.488,330.384 112.632,330.232 C112.9272,329.9352 113.472,329.9352 113.768,330.232 L113.768,330.232 Z M116.4,330 L122.8,330 C123.2416,330 123.6,330.3576 123.6,330.8 C123.6,331.2416 123.2416,331.5992 122.8,331.5992 L116.4,331.5992 C115.9584,331.5992 115.6,331.2416 115.6,330.8 C115.6,330.3576 115.9584,330 116.4,330 L116.4,330 Z M114,313.2 C114,312.7576 114.3584,312.4 114.8,312.4 L122.8,312.4 C123.2416,312.4 123.6,312.7576 123.6,313.2 C123.6,313.6416 123.2416,314 122.8,314 L114.8,314 C114.3584,314 114,313.6416 114,313.2 L114,313.2 Z M126.568,309.432 C126.7112,309.584 126.8,309.7912 126.8,310 C126.8,310.2072 126.7112,310.416 126.568,310.568 C126.416,310.7112 126.208,310.8 126,310.8 C125.7912,310.8 125.584,310.7112 125.432,310.568 C125.288,310.416 125.2,310.2072 125.2,310 C125.2,309.7912 125.288,309.584 125.432,309.432 C125.7272,309.136 126.2632,309.136 126.568,309.432 L126.568,309.432 Z M108.4,310.8 L102,310.8 C101.5584,310.8 101.2,310.4416 101.2,310 C101.2,309.5576 101.5584,309.2 102,309.2 L108.4,309.2 C108.8416,309.2 109.2,309.5576 109.2,310 C109.2,310.4416 108.8416,310.8 108.4,310.8 L108.4,310.8 Z M105.768,312.632 C105.9112,312.784 106,312.9912 106,313.2 C106,313.4072 105.9112,313.616 105.768,313.768 C105.616,313.9112 105.416,314 105.2,314 C104.992,314 104.784,313.9112 104.632,313.768 C104.488,313.616 104.4,313.4072 104.4,313.2 C104.4,312.9912 104.488,312.784 104.632,312.632 C104.936,312.3352 105.4712,312.3352 105.768,312.632 L105.768,312.632 Z" id="icon-sunat" sketch:type="MSShapeGroup"></path>
        </g>
    </g>
</svg>