<?xml version="1.0" encoding="UTF-8" standalone="no"?>
<svg width="48px" height="45px" viewBox="0 0 48 45" version="1.1" xmlns="http://www.w3.org/2000/svg" xmlns:xlink="http://www.w3.org/1999/xlink" xmlns:sketch="http://www.bohemiancoding.com/sketch/ns">
    <!-- Generator: Sketch 3.3.2 (12043) - http://www.bohemiancoding.com/sketch -->
    <title>icon-waktu</title>
    <desc>Created with Sketch.</desc>
    <defs></defs>
    <g id="Page-1" stroke="none" stroke-width="1" fill="none" fill-rule="evenodd" sketch:type="MSPage">
        <g id="Artboard-4" sketch:type="MSArtboardGroup" transform="translate(-170.000000, -396.000000)" fill="#222222">
            <path d="M207.241565,440.688885 C201.308702,440.688885 196.48313,435.862485 196.48313,429.930449 C196.48313,423.998414 201.308702,419.172014 207.241565,419.172014 C213.1736,419.172014 218,423.998414 218,429.930449 C218,435.862485 213.1736,440.688885 207.241565,440.688885 L207.241565,440.688885 Z M207.241565,420.827158 C202.221513,420.827158 198.138273,424.911226 198.138273,429.930449 C198.138273,434.950501 202.221513,439.033741 207.241565,439.033741 C212.260789,439.033741 216.344856,434.950501 216.344856,429.930449 C216.344856,424.911226 212.260789,420.827158 207.241565,420.827158 L207.241565,420.827158 Z M212.206996,430.758021 L207.241565,430.758021 C206.783918,430.758021 206.413993,430.388097 206.413993,429.930449 L206.413993,424.965018 C206.413993,424.507371 206.783918,424.137446 207.241565,424.137446 C207.698385,424.137446 208.069137,424.507371 208.069137,424.965018 L208.069137,429.102878 L212.206996,429.102878 C212.663816,429.102878 213.034568,429.472802 213.034568,429.930449 C213.034568,430.388097 212.663816,430.758021 212.206996,430.758021 L212.206996,430.758021 Z M206.173997,412.791435 C206.322132,412.948673 206.413993,413.163842 206.413993,413.379011 C206.413993,413.594179 206.322132,413.809348 206.173997,413.966587 C206.016758,414.11555 205.800762,414.206583 205.586421,414.206583 C205.370425,414.206583 205.156084,414.11555 204.998845,413.966587 C204.849054,413.809348 204.758021,413.594179 204.758021,413.379011 C204.758021,413.163842 204.849054,412.948673 204.998845,412.791435 C205.312495,412.485233 205.858692,412.485233 206.173997,412.791435 L206.173997,412.791435 Z M201.208565,412.791435 C201.356701,412.948673 201.448561,413.163842 201.448561,413.379011 C201.448561,413.594179 201.356701,413.809348 201.208565,413.966587 C201.051327,414.11555 200.83533,414.206583 200.620989,414.206583 C200.404993,414.206583 200.190652,414.11555 200.033413,413.966587 C199.883623,413.809348 199.793417,413.594179 199.793417,413.379011 C199.793417,413.163842 199.883623,412.948673 200.033413,412.791435 C200.347891,412.485233 200.89326,412.485233 201.208565,412.791435 L201.208565,412.791435 Z M176.38058,428.862882 C176.223341,429.02012 176.008172,429.102878 175.793004,429.102878 C175.577835,429.102878 175.362666,429.02012 175.205427,428.862882 C175.056465,428.705643 174.965432,428.490474 174.965432,428.275306 C174.965432,428.060137 175.056465,427.844968 175.205427,427.68773 C175.519905,427.381528 176.066102,427.381528 176.38058,427.68773 C176.529543,427.844968 176.620576,428.060137 176.620576,428.275306 C176.620576,428.490474 176.529543,428.705643 176.38058,428.862882 L176.38058,428.862882 Z M175.793004,419.172014 C175.577835,419.172014 175.362666,419.080981 175.205427,418.932018 C175.056465,418.77478 174.965432,418.559611 174.965432,418.344442 C174.965432,418.129274 175.056465,417.914105 175.205427,417.756866 C175.511629,417.450665 176.066102,417.450665 176.38058,417.756866 C176.529543,417.914105 176.620576,418.129274 176.620576,418.344442 C176.620576,418.559611 176.529543,418.77478 176.38058,418.932018 C176.223341,419.080981 176.008172,419.172014 175.793004,419.172014 L175.793004,419.172014 Z M176.38058,423.89745 C176.223341,424.046413 176.008172,424.137446 175.793004,424.137446 C175.577835,424.137446 175.362666,424.046413 175.205427,423.89745 C175.056465,423.740211 174.965432,423.525043 174.965432,423.309874 C174.965432,423.08643 175.056465,422.879537 175.205427,422.722298 C175.511629,422.416096 176.074378,422.416096 176.38058,422.722298 C176.529543,422.879537 176.620576,423.08643 176.620576,423.309874 C176.620576,423.525043 176.529543,423.740211 176.38058,423.89745 L176.38058,423.89745 Z M181.346011,428.862882 C181.188773,429.02012 180.973604,429.102878 180.758435,429.102878 C180.543266,429.102878 180.328098,429.02012 180.170859,428.862882 C180.021896,428.705643 179.930863,428.490474 179.930863,428.275306 C179.930863,428.060137 180.021896,427.844968 180.170859,427.68773 C180.485336,427.381528 181.03981,427.381528 181.346011,427.68773 C181.494974,427.844968 181.586835,428.060137 181.586835,428.275306 C181.586835,428.490474 181.494974,428.705643 181.346011,428.862882 L181.346011,428.862882 Z M180.758435,419.172014 C180.543266,419.172014 180.328098,419.080981 180.170859,418.932018 C180.021896,418.77478 179.930863,418.559611 179.930863,418.344442 C179.930863,418.129274 180.021896,417.914105 180.170859,417.756866 C180.477061,417.450665 181.03981,417.450665 181.346011,417.756866 C181.494974,417.914105 181.586835,418.120998 181.586835,418.344442 C181.586835,418.567887 181.494974,418.77478 181.337736,418.932018 C181.188773,419.080981 180.973604,419.172014 180.758435,419.172014 L180.758435,419.172014 Z M181.346011,423.89745 C181.188773,424.046413 180.973604,424.137446 180.758435,424.137446 C180.543266,424.137446 180.328098,424.046413 180.170859,423.89745 C180.021896,423.740211 179.930863,423.525043 179.930863,423.309874 C179.930863,423.08643 180.021896,422.879537 180.170859,422.722298 C180.477061,422.416096 181.03981,422.416096 181.346011,422.722298 C181.494974,422.879537 181.586835,423.094705 181.586835,423.309874 C181.586835,423.525043 181.494974,423.740211 181.346011,423.89745 L181.346011,423.89745 Z M186.311443,428.862882 C186.154204,429.02012 185.939036,429.102878 185.723867,429.102878 C185.508698,429.102878 185.293529,429.02012 185.144566,428.862882 C184.987328,428.705643 184.896295,428.490474 184.896295,428.275306 C184.896295,428.060137 184.987328,427.844968 185.136291,427.68773 C185.450768,427.381528 186.005241,427.381528 186.311443,427.68773 C186.460406,427.844968 186.552266,428.060137 186.552266,428.275306 C186.552266,428.490474 186.460406,428.705643 186.311443,428.862882 L186.311443,428.862882 Z M185.723867,419.172014 C185.508698,419.172014 185.293529,419.080981 185.136291,418.932018 C184.987328,418.77478 184.896295,418.567887 184.896295,418.344442 C184.896295,418.120998 184.987328,417.905829 185.144566,417.756866 C185.442492,417.450665 186.005241,417.450665 186.311443,417.756866 C186.460406,417.914105 186.552266,418.129274 186.552266,418.344442 C186.552266,418.559611 186.460406,418.77478 186.311443,418.932018 C186.154204,419.080981 185.939036,419.172014 185.723867,419.172014 L185.723867,419.172014 Z M186.311443,423.89745 C186.154204,424.046413 185.939036,424.137446 185.723867,424.137446 C185.508698,424.137446 185.293529,424.046413 185.136291,423.89745 C184.987328,423.740211 184.896295,423.525043 184.896295,423.309874 C184.896295,423.08643 184.987328,422.879537 185.136291,422.722298 C185.442492,422.416096 186.005241,422.416096 186.311443,422.722298 C186.460406,422.879537 186.552266,423.08643 186.552266,423.309874 C186.552266,423.525043 186.460406,423.740211 186.311443,423.89745 L186.311443,423.89745 Z M191.276875,428.862882 C191.120463,429.02012 190.904467,429.102878 190.689298,429.102878 C190.47413,429.102878 190.258961,429.02012 190.101722,428.862882 C189.952759,428.705643 189.861727,428.490474 189.861727,428.275306 C189.861727,428.060137 189.952759,427.844968 190.101722,427.68773 C190.407924,427.381528 190.962397,427.381528 191.276875,427.68773 C191.425837,427.844968 191.51687,428.060137 191.51687,428.275306 C191.51687,428.490474 191.425837,428.705643 191.276875,428.862882 L191.276875,428.862882 Z M191.276875,423.89745 C191.120463,424.046413 190.904467,424.137446 190.689298,424.137446 C190.47413,424.137446 190.258961,424.046413 190.101722,423.89745 C189.952759,423.740211 189.861727,423.525043 189.861727,423.309874 C189.861727,423.08643 189.952759,422.879537 190.101722,422.722298 C190.407924,422.416096 190.970673,422.416096 191.276875,422.722298 C191.425837,422.879537 191.51687,423.08643 191.51687,423.309874 C191.51687,423.525043 191.425837,423.740211 191.276875,423.89745 L191.276875,423.89745 Z M190.689298,414.206583 C190.47413,414.206583 190.258961,414.11555 190.101722,413.966587 C189.952759,413.809348 189.861727,413.594179 189.861727,413.379011 C189.861727,413.163842 189.952759,412.948673 190.101722,412.791435 C190.407924,412.493509 190.962397,412.485233 191.276875,412.791435 C191.425837,412.948673 191.51687,413.163842 191.51687,413.379011 C191.51687,413.594179 191.425837,413.809348 191.276875,413.966587 C191.120463,414.123825 190.904467,414.206583 190.689298,414.206583 L190.689298,414.206583 Z M191.276875,418.932018 C191.120463,419.080981 190.904467,419.172014 190.689298,419.172014 C190.47413,419.172014 190.258961,419.080981 190.101722,418.932018 C189.952759,418.77478 189.861727,418.559611 189.861727,418.344442 C189.861727,418.129274 189.952759,417.914105 190.101722,417.756866 C190.4162,417.450665 190.970673,417.450665 191.276875,417.756866 C191.425837,417.914105 191.51687,418.129274 191.51687,418.344442 C191.51687,418.559611 191.425837,418.77478 191.276875,418.932018 L191.276875,418.932018 Z M210.551853,417.51687 C210.095033,417.51687 209.724281,417.146946 209.724281,416.689298 L209.724281,409.241151 L171.655144,409.241151 L171.655144,431.585593 C171.655144,432.042413 172.026724,432.413165 172.482716,432.413165 L194.000414,432.413165 C194.457233,432.413165 194.827986,432.78309 194.827986,433.240737 C194.827986,433.698385 194.457233,434.068309 194.000414,434.068309 L172.482716,434.068309 C171.113912,434.068309 170,432.954397 170,431.585593 L170,401.793004 C170,400.4242 171.113912,399.310288 172.482716,399.310288 L179.930863,399.310288 L179.930863,398.482716 C179.930863,397.113912 181.044775,396 182.413579,396 C183.783211,396 184.896295,397.113912 184.896295,398.482716 L184.896295,399.310288 L196.48313,399.310288 L196.48313,398.482716 C196.48313,397.113912 197.596214,396 198.965845,396 C200.334649,396 201.448561,397.113912 201.448561,398.482716 L201.448561,399.310288 L208.896709,399.310288 C210.265513,399.310288 211.379424,400.4242 211.379424,401.793004 L211.379424,416.689298 C211.379424,417.146946 211.008672,417.51687 210.551853,417.51687 L210.551853,417.51687 Z M183.241151,398.482716 C183.241151,398.025896 182.870399,397.655144 182.413579,397.655144 C181.957587,397.655144 181.586835,398.025896 181.586835,398.482716 L181.586835,401.793004 C181.586835,402.249823 181.957587,402.620576 182.413579,402.620576 C182.870399,402.620576 183.241151,402.249823 183.241151,401.793004 L183.241151,398.482716 L183.241151,398.482716 Z M199.793417,398.482716 C199.793417,398.025896 199.421838,397.655144 198.965845,397.655144 C198.509026,397.655144 198.138273,398.025896 198.138273,398.482716 L198.138273,401.793004 C198.138273,402.249823 198.509026,402.620576 198.965845,402.620576 C199.421838,402.620576 199.793417,402.249823 199.793417,401.793004 L199.793417,398.482716 L199.793417,398.482716 Z M209.724281,401.793004 C209.724281,401.336184 209.352701,400.965432 208.896709,400.965432 L201.448561,400.965432 L201.448561,401.793004 C201.448561,403.162635 200.334649,404.275719 198.965845,404.275719 C197.596214,404.275719 196.48313,403.162635 196.48313,401.793004 L196.48313,400.965432 L184.896295,400.965432 L184.896295,401.793004 C184.896295,403.162635 183.783211,404.275719 182.413579,404.275719 C181.044775,404.275719 179.930863,403.162635 179.930863,401.793004 L179.930863,400.965432 L172.482716,400.965432 C172.026724,400.965432 171.655144,401.336184 171.655144,401.793004 L171.655144,407.586007 L209.724281,407.586007 L209.724281,401.793004 L209.724281,401.793004 Z M195.655558,414.206583 C195.439561,414.206583 195.224393,414.11555 195.067982,413.966587 C194.919019,413.809348 194.827986,413.594179 194.827986,413.379011 C194.827986,413.163842 194.919019,412.948673 195.067982,412.791435 C195.382459,412.485233 195.927829,412.485233 196.242306,412.791435 C196.391269,412.948673 196.48313,413.163842 196.48313,413.379011 C196.48313,413.594179 196.391269,413.809348 196.242306,413.966587 C196.085895,414.11555 195.869899,414.206583 195.655558,414.206583 L195.655558,414.206583 Z M195.067982,417.756866 C195.382459,417.450665 195.936105,417.450665 196.242306,417.756866 C196.391269,417.914105 196.48313,418.129274 196.48313,418.344442 C196.48313,418.559611 196.391269,418.77478 196.242306,418.932018 C196.085895,419.080981 195.869899,419.172014 195.655558,419.172014 C195.439561,419.172014 195.224393,419.080981 195.067982,418.932018 C194.919019,418.77478 194.827986,418.559611 194.827986,418.344442 C194.827986,418.129274 194.919019,417.914105 195.067982,417.756866 L195.067982,417.756866 Z" id="icon-waktu" sketch:type="MSShapeGroup"></path>
        </g>
    </g>
</svg>