<?xml version="1.0" encoding="UTF-8" standalone="no"?>
<svg width="40px" height="37px" viewBox="0 0 40 37" version="1.1" xmlns="http://www.w3.org/2000/svg" xmlns:xlink="http://www.w3.org/1999/xlink" xmlns:sketch="http://www.bohemiancoding.com/sketch/ns">
    <!-- Generator: Sketch 3.3.2 (12043) - http://www.bohemiancoding.com/sketch -->
    <title>icon-definisi-2</title>
    <desc>Created with Sketch.</desc>
    <defs></defs>
    <g id="Page-1" stroke="none" stroke-width="1" fill="none" fill-rule="evenodd" sketch:type="MSPage">
        <g id="Artboard-4" sketch:type="MSArtboardGroup" transform="translate(-270.000000, -360.000000)" fill="#FFFFFF">
            <path d="M306.428635,389.999464 L299.285906,389.999464 L299.285906,395.713648 C299.285906,396.002214 299.111623,396.262924 298.845199,396.373636 C298.756629,396.410064 298.663774,396.427921 298.571633,396.427921 C298.385922,396.427921 298.203068,396.355065 298.066642,396.218639 L291.847467,389.999464 L273.572079,389.999464 C271.602829,389.999464 270,388.39735 270,386.428099 L270,363.571365 C270,361.602114 271.602829,360 273.572079,360 L306.428635,360 C308.397886,360 310,361.602114 310,363.571365 L310,386.428099 C310,388.39735 308.397886,389.999464 306.428635,389.999464 L306.428635,389.999464 Z M308.571454,363.571365 C308.571454,362.389957 307.610043,361.428546 306.428635,361.428546 L273.572079,361.428546 C272.389957,361.428546 271.42926,362.389957 271.42926,363.571365 L271.42926,386.428099 C271.42926,387.609507 272.389957,388.570918 273.572079,388.570918 L292.143176,388.570918 C292.332458,388.570918 292.513884,388.645917 292.648167,388.7802 L297.85736,393.989393 L297.85736,389.285191 C297.85736,388.890913 298.177354,388.570918 298.571633,388.570918 L306.428635,388.570918 C307.610043,388.570918 308.571454,387.609507 308.571454,386.428099 L308.571454,363.571365 L308.571454,363.571365 Z M299.285906,374.285459 L280.714809,374.285459 C280.32053,374.285459 280.000536,373.965465 280.000536,373.571186 C280.000536,373.176908 280.32053,372.856913 280.714809,372.856913 L299.285906,372.856913 C299.680184,372.856913 300.000179,373.176908 300.000179,373.571186 C300.000179,373.965465 299.680184,374.285459 299.285906,374.285459 L299.285906,374.285459 Z M299.285906,369.999821 L280.714809,369.999821 C280.32053,369.999821 280.000536,369.679827 280.000536,369.285548 C280.000536,368.89127 280.32053,368.571276 280.714809,368.571276 L299.285906,368.571276 C299.680184,368.571276 300.000179,368.89127 300.000179,369.285548 C300.000179,369.679827 299.680184,369.999821 299.285906,369.999821 L299.285906,369.999821 Z M280.714809,377.142551 L289.286084,377.142551 C289.680363,377.142551 290.000357,377.462545 290.000357,377.856824 C290.000357,378.251103 289.680363,378.571097 289.286084,378.571097 L280.714809,378.571097 C280.32053,378.571097 280.000536,378.251103 280.000536,377.856824 C280.000536,377.462545 280.32053,377.142551 280.714809,377.142551 L280.714809,377.142551 Z" id="icon-definisi-2" sketch:type="MSShapeGroup"></path>
        </g>
    </g>
</svg>