<?xml version="1.0" encoding="UTF-8" standalone="no"?>
<svg width="45px" height="49px" viewBox="0 0 45 49" version="1.1" xmlns="http://www.w3.org/2000/svg" xmlns:xlink="http://www.w3.org/1999/xlink" xmlns:sketch="http://www.bohemiancoding.com/sketch/ns">
    <!-- Generator: Sketch 3.3.2 (12043) - http://www.bohemiancoding.com/sketch -->
    <title>icon-makruh</title>
    <desc>Created with Sketch.</desc>
    <defs></defs>
    <g id="Page-1" stroke="none" stroke-width="1" fill="none" fill-rule="evenodd" sketch:type="MSPage">
        <g id="Artboard-4" sketch:type="MSArtboardGroup" transform="translate(-277.000000, -134.000000)" fill="#222222">
            <path d="M320.68125,151.269975 L310.882842,160.613983 C310.310042,161.161183 309.658041,161.617184 308.945241,161.969984 L300.747634,166.025987 C300.040434,166.376387 299.397233,166.834788 298.835633,167.390788 L284.761222,181.331599 C283.998821,182.086 282.98842,182.502 281.916419,182.502 C280.647618,182.502 279.475618,181.922 278.701217,180.912399 C277.413216,179.230797 277.702816,176.774796 279.359617,175.320394 L294.071629,162.415584 C294.93083,161.661984 295.91403,161.085983 296.992431,160.705183 L305.554838,157.681181 C306.308439,157.41478 306.995639,157.01238 307.59644,156.48438 L308.20844,155.947579 L307.75564,155.431579 C307.353239,154.972378 307.153239,154.383578 307.193239,153.773977 C307.214839,153.442777 307.311639,153.129177 307.46444,152.844377 L305.442038,150.538775 C305.150838,150.206775 305.184438,149.701174 305.516438,149.409974 C305.848438,149.117974 306.354039,149.151574 306.645239,149.484374 L308.56844,151.676376 L309.600441,150.771575 L307.67724,148.578773 C307.386039,148.246773 307.418839,147.741173 307.75164,147.449972 C308.08364,147.157972 308.58924,147.191572 308.880441,147.523573 L310.803642,149.716374 L311.835643,148.810774 L309.912441,146.617972 C309.621241,146.285172 309.654841,145.780371 309.986841,145.488371 C310.318842,145.197171 310.824442,145.230771 311.115642,145.562771 L313.038844,147.754773 L314.071645,146.849972 L312.148443,144.65717 C311.856443,144.32517 311.890043,143.81957 312.222043,143.528369 C312.553243,143.236369 313.059644,143.269969 313.351644,143.601969 L315.274046,145.794771 L316.306846,144.88917 L314.383645,142.696369 C314.091645,142.364368 314.125245,141.858768 314.457245,141.566768 C314.789245,141.275568 315.295646,141.309168 315.586846,141.641168 L317.617247,143.95717 C318.479648,143.654769 319.518849,143.86997 320.135649,144.57237 L320.93805,145.488371 C322.421251,147.177972 322.307651,149.717974 320.68125,151.269975 L320.68125,151.269975 Z M319.734849,146.543572 L318.932449,145.627571 C318.802048,145.478771 318.614048,145.393971 318.415648,145.393971 C318.298048,145.393971 318.124448,145.423571 317.963648,145.564371 L315.728446,147.525173 L315.727646,147.525173 L313.493244,149.485174 L313.493244,149.485974 C313.492444,149.485974 313.492444,149.485974 313.492444,149.486774 L309.022041,153.407577 C308.884441,153.528377 308.802041,153.695577 308.789241,153.878778 C308.778041,154.061978 308.838041,154.237978 308.958841,154.376378 L309.938841,155.493979 C310.230042,155.825979 310.197242,156.331579 309.865241,156.62278 L308.65164,157.687581 C307.89724,158.349181 307.034839,158.854781 306.088438,159.189182 L297.525232,162.213984 C296.639631,162.526784 295.83243,162.999585 295.12683,163.618785 L280.415618,176.523595 C279.388417,177.423596 279.193217,178.924397 279.971618,179.938798 C280.439618,180.550798 281.149219,180.901999 281.916419,180.901999 C282.56442,180.901999 283.17482,180.650799 283.635621,180.194798 L297.710032,166.253987 C298.393232,165.577187 299.177233,165.017986 300.038034,164.591586 L308.23564,160.535583 C308.802841,160.254783 309.322041,159.891582 309.778841,159.456382 L319.576449,150.112375 C320.58125,149.153974 320.65085,147.585973 319.734849,146.543572 L319.734849,146.543572 Z M309.617241,143.85237 L309.586041,143.85237 C309.298841,146.166771 307.240439,147.924373 304.854837,147.765173 L304.214037,147.725973 C303.868437,147.725973 303.603636,147.834773 303.378836,148.067573 C302.889236,148.577173 302.626836,149.654774 302.676436,150.950775 C302.688436,151.249175 302.533236,151.529176 302.274035,151.677176 C302.150835,151.747576 302.014035,151.781976 301.877235,151.781976 C301.726035,151.781976 301.575635,151.739576 301.443635,151.653976 C299.086833,150.133975 298.818833,147.170772 299.202833,145.660371 C299.827634,143.207569 301.574835,141.621968 303.654837,141.621968 L303.675637,141.621968 C303.950837,139.402766 305.852438,137.700365 308.11484,137.700365 L308.17324,137.700365 L308.21884,137.297165 C308.32364,135.681163 309.759641,134.400362 311.436443,134.508362 C312.244443,134.561162 312.982844,134.925163 313.516444,135.533963 C314.050845,136.141964 314.315645,136.921964 314.262045,137.729965 L314.080445,139.690766 C313.928445,142.014768 311.967643,143.85237 309.617241,143.85237 L309.617241,143.85237 Z M312.314043,136.589164 C312.062043,136.301964 311.713243,136.129964 311.332443,136.105164 L311.237242,136.101964 C310.486842,136.101964 309.861241,136.689164 309.812441,137.438765 L309.679641,138.631566 C309.632441,139.057166 309.260441,139.377966 308.832441,139.341166 L308.30364,139.306766 C306.714039,139.193166 305.349238,140.418767 305.247638,141.988368 L305.211638,142.517169 C305.182838,142.957969 304.795637,143.294769 304.361237,143.262769 L303.833237,143.228369 C303.773237,143.224369 303.713237,143.221969 303.654837,143.221969 C302.047635,143.221969 301.102035,144.68517 300.753234,146.054771 C300.643634,146.487572 300.518834,147.922773 301.205235,149.136374 C301.354035,148.357973 301.653235,147.553973 302.225235,146.958772 C302.797236,146.364372 303.543636,146.075571 304.430037,146.133171 L304.958838,146.168371 C306.517239,146.268372 307.91244,145.055571 308.01484,143.485969 L308.04924,142.957969 C308.07884,142.517169 308.47084,142.181968 308.900441,142.211568 L309.429241,142.246768 C311.007642,142.347568 312.382843,141.133968 312.485243,139.564366 L312.667644,137.603565 C312.690844,137.243564 312.566044,136.875564 312.314043,136.589164 L312.314043,136.589164 Z" id="icon-makruh" sketch:type="MSShapeGroup"></path>
        </g>
    </g>
</svg>