<?xml version="1.0" encoding="UTF-8" standalone="no"?>
<svg width="48px" height="42px" viewBox="0 0 48 42" version="1.1" xmlns="http://www.w3.org/2000/svg" xmlns:xlink="http://www.w3.org/1999/xlink" xmlns:sketch="http://www.bohemiancoding.com/sketch/ns">
    <!-- Generator: Sketch 3.3.2 (12043) - http://www.bohemiancoding.com/sketch -->
    <title>icon-bacaan</title>
    <desc>Created with Sketch.</desc>
    <defs></defs>
    <g id="Page-1" stroke="none" stroke-width="1" fill="none" fill-rule="evenodd" sketch:type="MSPage">
        <g id="Artboard-4" sketch:type="MSArtboardGroup" transform="translate(-542.000000, -505.000000)" fill="#222222">
            <path d="M589.142872,539.285102 L572.857449,539.285102 C569.548937,539.285102 566.857556,541.976483 566.857556,545.284995 C566.857556,545.758129 566.473563,546.142122 566.000429,546.142122 C565.526437,546.142122 565.143301,545.758129 565.143301,545.284995 C565.143301,541.976483 562.451063,539.285102 559.143408,539.285102 L542.857128,539.285102 C542.383993,539.285102 542,538.901109 542,538.427975 L542,505.857128 C542,505.383993 542.383993,505 542.857128,505 L561.714791,505 C563.501045,505 565.078159,505.915412 566.000429,507.302245 C566.921841,505.915412 568.498955,505 570.286066,505 L589.142872,505 C589.616007,505 590,505.383993 590,505.857128 L590,538.427975 C590,538.901109 589.616007,539.285102 589.142872,539.285102 L589.142872,539.285102 Z M561.714791,506.714255 L543.714255,506.714255 L543.714255,537.570847 L559.143408,537.570847 C561.571651,537.570847 563.728183,538.709969 565.143301,540.469652 L565.143301,510.142765 C565.143301,508.251942 563.604757,506.714255 561.714791,506.714255 L561.714791,506.714255 Z M588.285745,506.714255 L570.286066,506.714255 C568.395243,506.714255 566.857556,508.251942 566.857556,510.142765 L566.857556,540.469652 C568.272674,538.709969 570.429207,537.570847 572.857449,537.570847 L588.285745,537.570847 L588.285745,506.714255 L588.285745,506.714255 Z" id="icon-bacaan" sketch:type="MSShapeGroup"></path>
        </g>
    </g>
</svg>