<?xml version="1.0" encoding="UTF-8" standalone="no"?>
<svg width="36px" height="48px" viewBox="0 0 36 48" version="1.1" xmlns="http://www.w3.org/2000/svg" xmlns:xlink="http://www.w3.org/1999/xlink" xmlns:sketch="http://www.bohemiancoding.com/sketch/ns">
    <!-- Generator: Sketch 3.3.2 (12043) - http://www.bohemiancoding.com/sketch -->
    <title>icon-syarat-wajib</title>
    <desc>Created with Sketch.</desc>
    <defs></defs>
    <g id="Page-1" stroke="none" stroke-width="1" fill="none" fill-rule="evenodd" sketch:type="MSPage">
        <g id="Artboard-4" sketch:type="MSArtboardGroup" transform="translate(-177.000000, -39.000000)" fill="#222222">
            <path d="M211.4,87 L177.8,87 C177.3576,87 177,86.6416 177,86.2 L177,46.2 C177,45.7576 177.3576,45.4 177.8,45.4 L185.1472,45.4 C185.4784,44.4712 186.3584,43.8 187.4,43.8 L189.8,43.8 C189.8,41.1528 191.9536,39 194.6,39 C197.2472,39 199.4,41.1528 199.4,43.8 L201.8,43.8 C202.8416,43.8 203.7216,44.4712 204.0528,45.4 L211.4,45.4 C211.8416,45.4 212.2,45.7576 212.2,46.2 L212.2,86.2 C212.2,86.6416 211.8416,87 211.4,87 L211.4,87 Z M194.6,40.6 C192.8352,40.6 191.4,42.0352 191.4,43.8 L197.8,43.8 C197.8,42.0352 196.3648,40.6 194.6,40.6 L194.6,40.6 Z M202.6,49.4 L202.6,46.2 C202.6,45.7584 202.2408,45.4 201.8,45.4 L198.6,45.4 L190.6,45.4 L187.4,45.4 C186.9592,45.4 186.6,45.7584 186.6,46.2 L186.6,49.4 L186.6,50.2 L202.6,50.2 L202.6,49.4 L202.6,49.4 Z M203.4,51.8 L185.8,51.8 C185.3584,51.8 185,51.4424 185,51 L185,50.2 L181.8,50.2 L181.8,82.2 L207.4,82.2 L207.4,50.2 L204.2,50.2 L204.2,51 C204.2,51.4424 203.8416,51.8 203.4,51.8 L203.4,51.8 Z M210.6,47 L204.2,47 L204.2,48.6 L208.2,48.6 C208.6416,48.6 209,48.9576 209,49.4 L209,83 C209,83.4424 208.6416,83.8 208.2,83.8 L181,83.8 C180.5584,83.8 180.2,83.4424 180.2,83 L180.2,49.4 C180.2,48.9576 180.5584,48.6 181,48.6 L185,48.6 L185,47 L178.6,47 L178.6,85.4 L210.6,85.4 L210.6,47 L210.6,47 Z M203.4,59.8 L193.8,59.8 C193.3584,59.8 193,59.4424 193,59 C193,58.5576 193.3584,58.2 193.8,58.2 L203.4,58.2 C203.8416,58.2 204.2,58.5576 204.2,59 C204.2,59.4424 203.8416,59.8 203.4,59.8 L203.4,59.8 Z M188.0856,77.0112 C187.9592,77.2224 187.7424,77.364 187.4976,77.3936 C187.4656,77.3976 187.4328,77.4 187.4,77.4 C187.1888,77.4 186.9848,77.316 186.8344,77.1656 L185.2344,75.5656 C184.9216,75.2528 184.9216,74.7472 185.2344,74.4344 C185.5472,74.1216 186.0528,74.1216 186.3656,74.4344 L187.2408,75.3104 L189.1144,72.188 C189.3416,71.8088 189.832,71.6856 190.2112,71.9144 C190.5904,72.1416 190.7136,72.6328 190.4856,73.012 L188.0856,77.0112 L188.0856,77.0112 Z M188.0856,69.012 C187.9592,69.2224 187.7424,69.364 187.4976,69.3936 C187.4656,69.3976 187.4328,69.4 187.4,69.4 C187.1888,69.4 186.9848,69.316 186.8344,69.1656 L185.2344,67.5656 C184.9216,67.2528 184.9216,66.7472 185.2344,66.4344 C185.5472,66.1216 186.0528,66.1216 186.3656,66.4344 L187.2408,67.3104 L189.1144,64.188 C189.3416,63.8096 189.832,63.6856 190.2112,63.9144 C190.5904,64.1416 190.7136,64.6328 190.4856,65.012 L188.0856,69.012 L188.0856,69.012 Z M188.0856,61.012 C187.9592,61.2224 187.7424,61.364 187.4976,61.3936 C187.4656,61.3976 187.4328,61.4 187.4,61.4 C187.1888,61.4 186.9848,61.316 186.8344,61.1656 L185.2344,59.5656 C184.9216,59.2528 184.9216,58.7472 185.2344,58.4344 C185.5472,58.1216 186.0528,58.1216 186.3656,58.4344 L187.2408,59.3104 L189.1144,56.188 C189.3416,55.8088 189.832,55.6856 190.2112,55.9144 C190.5904,56.1416 190.7136,56.6328 190.4856,57.012 L188.0856,61.012 L188.0856,61.012 Z M193.8,66.2 L203.4,66.2 C203.8416,66.2 204.2,66.5576 204.2,67 C204.2,67.4424 203.8416,67.8 203.4,67.8 L193.8,67.8 C193.3584,67.8 193,67.4424 193,67 C193,66.5576 193.3584,66.2 193.8,66.2 L193.8,66.2 Z M193.8,74.2 L203.4,74.2 C203.8416,74.2 204.2,74.5576 204.2,75 C204.2,75.4424 203.8416,75.8 203.4,75.8 L193.8,75.8 C193.3584,75.8 193,75.4424 193,75 C193,74.5576 193.3584,74.2 193.8,74.2 L193.8,74.2 Z M195.168,41.632 C195.312,41.784 195.4,41.992 195.4,42.2 C195.4,42.408 195.312,42.616 195.168,42.768 C195.016,42.912 194.808,43 194.6,43 C194.392,43 194.184,42.912 194.032,42.768 C193.888,42.616 193.8,42.408 193.8,42.2 C193.8,41.992 193.888,41.784 194.032,41.632 C194.328,41.336 194.864,41.336 195.168,41.632 L195.168,41.632 Z" id="icon-syarat-wajib" sketch:type="MSShapeGroup"></path>
        </g>
    </g>
</svg>