<?xml version="1.0" encoding="UTF-8" standalone="no"?>
<svg width="48px" height="44px" viewBox="0 0 48 44" version="1.1" xmlns="http://www.w3.org/2000/svg" xmlns:xlink="http://www.w3.org/1999/xlink" xmlns:sketch="http://www.bohemiancoding.com/sketch/ns">
    <!-- Generator: Sketch 3.3.2 (12043) - http://www.bohemiancoding.com/sketch -->
    <title>icon-definisi</title>
    <desc>Created with Sketch.</desc>
    <defs></defs>
    <g id="Page-1" stroke="none" stroke-width="1" fill="none" fill-rule="evenodd" sketch:type="MSPage">
        <g id="Artboard-4" sketch:type="MSArtboardGroup" transform="translate(-270.000000, -360.000000)" fill="#222222">
            <path d="M313.714362,395.999357 L305.143087,395.999357 L305.143087,402.856378 C305.143087,403.202657 304.933948,403.515509 304.614239,403.648363 C304.507955,403.692077 304.396529,403.713505 304.285959,403.713505 C304.063106,403.713505 303.843681,403.626078 303.67997,403.462367 L296.21696,395.999357 L274.286495,395.999357 C271.923394,395.999357 270,394.07682 270,391.713719 L270,364.285638 C270,361.922537 271.923394,360 274.286495,360 L313.714362,360 C316.077463,360 318,361.922537 318,364.285638 L318,391.713719 C318,394.07682 316.077463,395.999357 313.714362,395.999357 L313.714362,395.999357 Z M316.285745,364.285638 C316.285745,362.867949 315.132051,361.714255 313.714362,361.714255 L274.286495,361.714255 C272.867949,361.714255 271.715112,362.867949 271.715112,364.285638 L271.715112,391.713719 C271.715112,393.131408 272.867949,394.285102 274.286495,394.285102 L296.571811,394.285102 C296.79895,394.285102 297.01666,394.3751 297.1778,394.53624 L303.428832,400.787272 L303.428832,395.14223 C303.428832,394.669095 303.812825,394.285102 304.285959,394.285102 L313.714362,394.285102 C315.132051,394.285102 316.285745,393.131408 316.285745,391.713719 L316.285745,364.285638 L316.285745,364.285638 Z M305.143087,377.142551 L282.85777,377.142551 C282.384636,377.142551 282.000643,376.758558 282.000643,376.285423 C282.000643,375.812289 282.384636,375.428296 282.85777,375.428296 L305.143087,375.428296 C305.616221,375.428296 306.000214,375.812289 306.000214,376.285423 C306.000214,376.758558 305.616221,377.142551 305.143087,377.142551 L305.143087,377.142551 Z M305.143087,371.999786 L282.85777,371.999786 C282.384636,371.999786 282.000643,371.615793 282.000643,371.142658 C282.000643,370.669524 282.384636,370.285531 282.85777,370.285531 L305.143087,370.285531 C305.616221,370.285531 306.000214,370.669524 306.000214,371.142658 C306.000214,371.615793 305.616221,371.999786 305.143087,371.999786 L305.143087,371.999786 Z M282.85777,380.571061 L293.143301,380.571061 C293.616435,380.571061 294.000429,380.955054 294.000429,381.428189 C294.000429,381.901323 293.616435,382.285316 293.143301,382.285316 L282.85777,382.285316 C282.384636,382.285316 282.000643,381.901323 282.000643,381.428189 C282.000643,380.955054 282.384636,380.571061 282.85777,380.571061 L282.85777,380.571061 Z" id="icon-definisi" sketch:type="MSShapeGroup"></path>
        </g>
    </g>
</svg>