<?xml version="1.0" encoding="UTF-8" standalone="no"?>
<svg width="48px" height="42px" viewBox="0 0 48 42" version="1.1" xmlns="http://www.w3.org/2000/svg" xmlns:xlink="http://www.w3.org/1999/xlink" xmlns:sketch="http://www.bohemiancoding.com/sketch/ns">
    <!-- Generator: Sketch 3.3.2 (12043) - http://www.bohemiancoding.com/sketch -->
    <title>icon-sunat</title>
    <desc>Created with Sketch.</desc>
    <defs></defs>
    <g id="Page-1" stroke="none" stroke-width="1" fill="none" fill-rule="evenodd" sketch:type="MSPage">
        <g id="Artboard-4" sketch:type="MSArtboardGroup" transform="translate(-563.000000, -97.000000)" fill="#222222">
            <path d="M610.143133,138.12878 C610.137991,138.127923 610.131993,138.127923 610.125995,138.12878 L594.720376,138.12878 C594.715234,138.127923 594.709236,138.127923 594.703238,138.12878 L579.297619,138.12878 C579.291621,138.127923 579.285622,138.127923 579.280481,138.12878 L563.856867,138.12878 C563.586954,138.12878 563.330751,138.00025 563.16966,137.783462 C563.007712,137.565818 562.95887,137.284766 563.035988,137.025992 L565.606591,128.457317 C565.715413,128.094862 566.049591,127.846371 566.42747,127.846371 L570.931165,127.846371 L573.318398,119.888643 C573.42722,119.526188 573.760541,119.277696 574.139277,119.277696 L578.642972,119.277696 L581.030205,111.319969 C581.13817,110.957514 581.472348,110.709879 581.851084,110.709879 L592.132636,110.709879 C592.510514,110.709879 592.844693,110.957514 592.953515,111.319969 L595.340748,119.277696 L599.844443,119.277696 C600.222321,119.277696 600.5565,119.526188 600.665322,119.888643 L603.052555,127.846371 L607.555393,127.846371 C607.934128,127.846371 608.268307,128.094862 608.376272,128.457317 L610.900603,136.870042 C610.964012,136.989146 611,137.126245 611,137.271913 C611,137.744903 610.616123,138.12878 610.143133,138.12878 L610.143133,138.12878 Z M596.122211,129.560106 L593.284266,129.560106 L594.703238,134.290014 L596.122211,129.560106 L596.122211,129.560106 Z M593.551608,136.415045 L591.495127,129.560106 L587.008569,129.560106 C587.002571,129.559249 586.997429,129.559249 586.991431,129.560106 L582.487736,129.560106 L580.432111,136.415045 L593.551608,136.415045 L593.551608,136.415045 Z M588.410404,120.991431 L585.572459,120.991431 L586.991431,125.72134 L588.410404,120.991431 L588.410404,120.991431 Z M579.280481,134.289157 L580.698597,129.560106 L577.861509,129.560106 L579.280481,134.289157 L579.280481,134.289157 Z M567.064979,129.560106 L565.008497,136.415045 L578.127995,136.415045 L576.07237,129.560106 L571.568674,129.560106 L567.064979,129.560106 L567.064979,129.560106 Z M574.776786,120.991431 L572.720304,127.846371 L576.709879,127.846371 L581.851084,127.846371 L585.839801,127.846371 L583.78332,120.991431 L579.280481,120.991431 L574.776786,120.991431 L574.776786,120.991431 Z M591.495127,112.423614 L582.487736,112.423614 L580.432111,119.277696 L584.420829,119.277696 L589.562034,119.277696 L593.551608,119.277696 L591.495127,112.423614 L591.495127,112.423614 Z M599.206933,120.991431 L594.720376,120.991431 L594.703238,120.991431 L590.199543,120.991431 L588.143061,127.846371 L592.132636,127.846371 L597.273841,127.846371 L601.262558,127.846371 L599.206933,120.991431 L599.206933,120.991431 Z M606.917884,129.560106 L602.432183,129.560106 C602.425328,129.559249 602.420186,129.559249 602.414188,129.560106 L597.91135,129.560106 L595.854868,136.415045 L608.974365,136.415045 L606.917884,129.560106 L606.917884,129.560106 Z M599.023564,131.884787 C599.132386,131.522332 599.465707,131.273841 599.844443,131.273841 L601.558178,131.273841 C602.031169,131.273841 602.414188,131.657717 602.414188,132.130708 C602.414188,132.603699 602.031169,132.987575 601.558178,132.987575 L600.481952,132.987575 L600.164911,134.04495 C600.053519,134.415973 599.712485,134.655896 599.344032,134.655896 C599.26263,134.655896 599.179514,134.6439 599.098111,134.619908 C598.643972,134.483666 598.386911,134.005534 598.523153,133.553108 L599.023564,131.884787 L599.023564,131.884787 Z M593.846371,124.418901 L592.770145,124.418901 L592.453104,125.476275 C592.341712,125.848156 592.001535,126.087222 591.633082,126.087222 C591.550823,126.087222 591.468564,126.076083 591.386304,126.051234 C590.933022,125.914992 590.675104,125.437716 590.811346,124.984434 L591.311757,123.316113 C591.420579,122.953658 591.754757,122.705166 592.132636,122.705166 L593.846371,122.705166 C594.319362,122.705166 594.703238,123.089043 594.703238,123.562034 C594.703238,124.035024 594.319362,124.418901 593.846371,124.418901 L593.846371,124.418901 Z M586.134564,115.851084 L585.058338,115.851084 L584.742154,116.907601 C584.629905,117.279482 584.289728,117.519404 583.921275,117.519404 C583.839873,117.519404 583.756757,117.507408 583.674497,117.482559 C583.221215,117.347174 582.964154,116.869042 583.100396,116.415759 L583.59995,114.747438 C583.708772,114.384983 584.04295,114.137349 584.420829,114.137349 L586.134564,114.137349 C586.607555,114.137349 586.991431,114.520368 586.991431,114.993359 C586.991431,115.467207 586.607555,115.851084 586.134564,115.851084 L586.134564,115.851084 Z M578.423614,124.418901 L577.347388,124.418901 L577.030347,125.476275 C576.918955,125.848156 576.577921,126.087222 576.209468,126.087222 C576.128066,126.087222 576.04495,126.076083 575.962691,126.051234 C575.509408,125.914992 575.252347,125.437716 575.388589,124.984434 L575.889,123.316113 C575.997822,122.953658 576.331144,122.705166 576.709879,122.705166 L578.423614,122.705166 C578.896605,122.705166 579.280481,123.089043 579.280481,123.562034 C579.280481,124.035024 578.896605,124.418901 578.423614,124.418901 L578.423614,124.418901 Z M570.711807,132.987575 L569.635581,132.987575 L569.31854,134.04495 C569.207148,134.415973 568.866971,134.655896 568.497661,134.655896 C568.416259,134.655896 568.334,134.6439 568.251741,134.619908 C567.798458,134.483666 567.540541,134.005534 567.676782,133.553108 L568.177193,131.884787 C568.286015,131.522332 568.620194,131.273841 568.998072,131.273841 L570.711807,131.273841 C571.184798,131.273841 571.568674,131.657717 571.568674,132.130708 C571.568674,132.603699 571.184798,132.987575 570.711807,132.987575 L570.711807,132.987575 Z M583.59995,131.884787 C583.708772,131.522332 584.04295,131.273841 584.420829,131.273841 L586.134564,131.273841 C586.607555,131.273841 586.991431,131.657717 586.991431,132.130708 C586.991431,132.603699 586.607555,132.987575 586.134564,132.987575 L585.058338,132.987575 L584.742154,134.04495 C584.629905,134.415973 584.289728,134.655896 583.921275,134.655896 C583.839873,134.655896 583.756757,134.6439 583.674497,134.619908 C583.221215,134.483666 582.964154,134.005534 583.100396,133.553108 L583.59995,131.884787 L583.59995,131.884787 Z M603.449284,103.836088 C600.961798,104.363919 599.496555,105.829162 598.968724,108.316648 C598.884751,108.712521 598.535149,108.996144 598.130708,108.996144 C597.726267,108.996144 597.375808,108.712521 597.292692,108.316648 C596.764861,105.829162 595.298761,104.363919 592.811275,103.836088 C592.416259,103.752115 592.132636,103.402513 592.132636,102.998072 C592.132636,102.593631 592.416259,102.244029 592.811275,102.160056 C595.298761,101.632225 596.764861,100.166125 597.292692,97.6794959 C597.375808,97.2836231 597.726267,97 598.130708,97 C598.535149,97 598.884751,97.2836231 598.968724,97.6794959 C599.496555,100.166125 600.961798,101.632225 603.449284,102.160056 C603.845157,102.244029 604.127923,102.593631 604.127923,102.998072 C604.127923,103.402513 603.845157,103.752115 603.449284,103.836088 L603.449284,103.836088 Z M598.130708,100.364062 C597.510336,101.497697 596.630333,102.3777 595.496697,102.998072 C596.630333,103.618444 597.510336,104.49759 598.130708,105.632083 C598.75108,104.49759 599.630226,103.618444 600.764718,102.998072 C599.630226,102.3777 598.75108,101.497697 598.130708,100.364062 L598.130708,100.364062 Z M572.602913,114.975365 C570.591845,115.402085 569.406798,116.587133 568.979221,118.599057 C568.896105,118.99493 568.545646,119.277696 568.141205,119.277696 C567.736763,119.277696 567.387161,118.99493 567.303188,118.599057 C566.876468,116.587133 565.690564,115.402085 563.679496,114.975365 C563.283623,114.891392 563,114.54179 563,114.137349 C563,113.73205 563.283623,113.382448 563.679496,113.299332 C565.690564,112.871756 566.876468,111.686708 567.303188,109.674783 C567.387161,109.27891 567.736763,108.996144 568.141205,108.996144 C568.545646,108.996144 568.896105,109.27891 568.979221,109.674783 C569.406798,111.686708 570.591845,112.871756 572.602913,113.299332 C572.998786,113.382448 573.282409,113.73205 573.282409,114.137349 C573.282409,114.54179 572.998786,114.891392 572.602913,114.975365 L572.602913,114.975365 Z M568.141205,112.210254 C567.657931,113.007997 567.011853,113.653219 566.21411,114.137349 C567.011853,114.620622 567.657931,115.265843 568.141205,116.063587 C568.625335,115.265843 569.270556,114.620622 570.068299,114.137349 C569.270556,113.653219 568.625335,113.007997 568.141205,112.210254 L568.141205,112.210254 Z" id="icon-sunat" sketch:type="MSShapeGroup"></path>
        </g>
    </g>
</svg>