<?xml version="1.0" encoding="UTF-8" standalone="no"?>
<svg width="40px" height="36px" viewBox="0 0 40 36" version="1.1" xmlns="http://www.w3.org/2000/svg" xmlns:xlink="http://www.w3.org/1999/xlink" xmlns:sketch="http://www.bohemiancoding.com/sketch/ns">
    <!-- Generator: Sketch 3.3.2 (12043) - http://www.bohemiancoding.com/sketch -->
    <title>icon-quran</title>
    <desc>Created with Sketch.</desc>
    <defs></defs>
    <g id="Page-1" stroke="none" stroke-width="1" fill="none" fill-rule="evenodd" sketch:type="MSPage">
        <g id="Artboard-4" sketch:type="MSArtboardGroup" transform="translate(-177.000000, -509.000000)" fill="#FFFFFF">
            <path d="M216.285727,538.499857 L202.714541,538.499857 C199.957447,538.499857 197.71463,540.742674 197.71463,543.499768 C197.71463,543.894047 197.394636,544.214041 197.000357,544.214041 C196.605364,544.214041 196.286084,543.894047 196.286084,543.499768 C196.286084,540.742674 194.042553,538.499857 191.286173,538.499857 L177.714273,538.499857 C177.319994,538.499857 177,538.179863 177,537.785584 L177,510.643212 C177,510.248933 177.319994,509.928939 177.714273,509.928939 L193.428992,509.928939 C194.917537,509.928939 196.231799,510.691782 197.000357,511.847476 C197.768201,510.691782 199.082463,509.928939 200.571722,509.928939 L216.285727,509.928939 C216.680006,509.928939 217,510.248933 217,510.643212 L217,537.785584 C217,538.179863 216.680006,538.499857 216.285727,538.499857 L216.285727,538.499857 Z M193.428992,511.357485 L178.428546,511.357485 L178.428546,537.071311 L191.286173,537.071311 C193.309709,537.071311 195.10682,538.02058 196.286084,539.486982 L196.286084,514.214577 C196.286084,512.63889 195.003964,511.357485 193.428992,511.357485 L193.428992,511.357485 Z M215.571454,511.357485 L200.571722,511.357485 C198.996036,511.357485 197.71463,512.63889 197.71463,514.214577 L197.71463,539.486982 C198.893895,538.02058 200.691006,537.071311 202.714541,537.071311 L215.571454,537.071311 L215.571454,511.357485 L215.571454,511.357485 Z" id="icon-quran" sketch:type="MSShapeGroup"></path>
        </g>
    </g>
</svg>