<?xml version="1.0" encoding="UTF-8" standalone="no"?>
<svg width="38px" height="8px" viewBox="0 0 38 8" version="1.1" xmlns="http://www.w3.org/2000/svg" xmlns:xlink="http://www.w3.org/1999/xlink" xmlns:sketch="http://www.bohemiancoding.com/sketch/ns">
    <!-- Generator: Sketch 3.3.2 (12043) - http://www.bohemiancoding.com/sketch -->
    <title>icon-witir</title>
    <desc>Created with Sketch.</desc>
    <defs></defs>
    <g id="Page-1" stroke="none" stroke-width="1" fill="none" fill-rule="evenodd" sketch:type="MSPage">
        <g id="Artboard-4" sketch:type="MSArtboardGroup" transform="translate(-499.000000, -211.000000)" fill="#222222">
            <path d="M533.2,218.6 C531.10468,218.6 529.4,216.89532 529.4,214.8 C529.4,212.70468 531.10468,211 533.2,211 C535.29532,211 537,212.70468 537,214.8 C537,216.89532 535.29532,218.6 533.2,218.6 L533.2,218.6 Z M533.2,212.52 C531.94296,212.52 530.92,213.54296 530.92,214.8 C530.92,216.05704 531.94296,217.08 533.2,217.08 C534.45704,217.08 535.48,216.05704 535.48,214.8 C535.48,213.54296 534.45704,212.52 533.2,212.52 L533.2,212.52 Z M518,218.6 C515.90468,218.6 514.2,216.89532 514.2,214.8 C514.2,212.70468 515.90468,211 518,211 C520.09532,211 521.8,212.70468 521.8,214.8 C521.8,216.89532 520.09532,218.6 518,218.6 L518,218.6 Z M518,212.52 C516.74296,212.52 515.72,213.54296 515.72,214.8 C515.72,216.05704 516.74296,217.08 518,217.08 C519.25704,217.08 520.28,216.05704 520.28,214.8 C520.28,213.54296 519.25704,212.52 518,212.52 L518,212.52 Z M502.8,218.6 C500.70468,218.6 499,216.89532 499,214.8 C499,212.70468 500.70468,211 502.8,211 C504.89532,211 506.6,212.70468 506.6,214.8 C506.6,216.89532 504.89532,218.6 502.8,218.6 L502.8,218.6 Z M502.8,212.52 C501.54296,212.52 500.52,213.54296 500.52,214.8 C500.52,216.05704 501.54296,217.08 502.8,217.08 C504.05704,217.08 505.08,216.05704 505.08,214.8 C505.08,213.54296 504.05704,212.52 502.8,212.52 L502.8,212.52 Z" id="icon-witir" sketch:type="MSShapeGroup"></path>
        </g>
    </g>
</svg>