<?xml version="1.0" encoding="UTF-8" standalone="no"?>
<svg width="42px" height="45px" viewBox="0 0 42 45" version="1.1" xmlns="http://www.w3.org/2000/svg" xmlns:xlink="http://www.w3.org/1999/xlink" xmlns:sketch="http://www.bohemiancoding.com/sketch/ns">
    <!-- Generator: Sketch 3.3.2 (12043) - http://www.bohemiancoding.com/sketch -->
    <title>icon-qadha</title>
    <desc>Created with Sketch.</desc>
    <defs></defs>
    <g id="Page-1" stroke="none" stroke-width="1" fill="none" fill-rule="evenodd" sketch:type="MSPage">
        <g id="Artboard-4" sketch:type="MSArtboardGroup" transform="translate(-173.000000, -235.000000)" fill="#222222">
            <path d="M211.400085,279.798999 C209.635254,279.798999 208.200028,278.362974 208.200028,276.598942 C208.200028,274.834111 209.635254,273.398885 211.400085,273.398885 C213.164917,273.398885 214.600142,274.834111 214.600142,276.598942 C214.600142,278.362974 213.164917,279.798999 211.400085,279.798999 L211.400085,279.798999 Z M211.400085,274.998914 C210.517669,274.998914 209.800056,275.716526 209.800056,276.598942 C209.800056,277.481358 210.517669,278.198971 211.400085,278.198971 C212.282501,278.198971 213.000114,277.481358 213.000114,276.598942 C213.000114,275.716526 212.282501,274.998914 211.400085,274.998914 L211.400085,274.998914 Z M211.165681,257.164995 C211.009678,257.320998 210.804874,257.3994 210.600071,257.3994 C210.395267,257.3994 210.190463,257.320998 210.034461,257.164995 L208.200028,255.330563 L206.365595,257.164995 C206.209592,257.320998 206.004789,257.3994 205.799985,257.3994 C205.595181,257.3994 205.390378,257.320998 205.234375,257.164995 C204.922369,256.85219 204.922369,256.345781 205.234375,256.033775 L207.068808,254.199343 L205.234375,252.36491 C204.922369,252.052104 204.922369,251.545695 205.234375,251.23369 C205.547181,250.920884 206.05359,250.920884 206.365595,251.23369 L208.200028,253.068122 L210.034461,251.23369 C210.347266,250.920884 210.852875,250.920884 211.165681,251.23369 C211.478486,251.545695 211.478486,252.052104 211.165681,252.36491 L209.331248,254.199343 L211.165681,256.033775 C211.478486,256.345781 211.478486,256.85219 211.165681,257.164995 L211.165681,257.164995 Z M209.800056,244.599171 C209.358449,244.599171 209.000042,244.240765 209.000042,243.799157 L209.000042,237.730249 L201.395107,245.335184 C197.013428,249.717663 194.600585,255.543367 194.600585,261.740277 L194.600585,270.279629 C196.865426,270.663636 198.600657,272.626071 198.600657,274.998914 C198.600657,277.645361 196.447018,279.798999 193.800571,279.798999 C191.153324,279.798999 189.000485,277.645361 189.000485,274.998914 C189.000485,272.626071 190.734916,270.663636 193.000557,270.279629 L193.000557,261.740277 C193.000557,255.116159 195.579803,248.888048 200.263886,244.203964 L207.868822,236.599029 L201.799914,236.599029 C201.358306,236.599029 200.9999,236.240622 200.9999,235.799014 C200.9999,235.357406 201.358306,234.999 201.799914,234.999 L209.800056,234.999 C209.800857,234.999 209.800857,234.9998 209.801657,234.9998 C209.904858,234.9998 210.00806,235.0206 210.105662,235.060601 C210.301665,235.142203 210.456868,235.298205 210.53847,235.493409 C210.57927,235.591011 210.600071,235.695012 210.600071,235.799814 L210.600071,243.799157 C210.600071,244.240765 210.241664,244.599171 209.800056,244.599171 L209.800056,244.599171 Z M190.600514,274.998914 C190.600514,276.762945 192.03574,278.198971 193.800571,278.198971 C195.564603,278.198971 196.999828,276.762945 196.999828,274.998914 C196.999828,273.234082 195.564603,271.798857 193.800571,271.798857 C192.03574,271.798857 190.600514,273.234082 190.600514,274.998914 L190.600514,274.998914 Z M185.566024,244.364767 C185.410021,244.52077 185.205218,244.599171 185.000414,244.599171 C184.79561,244.599171 184.590807,244.52077 184.434804,244.364767 L182.600371,242.530334 L180.765939,244.364767 C180.609936,244.52077 180.405132,244.599171 180.200328,244.599171 C179.996325,244.599171 179.791521,244.52077 179.634718,244.364767 C179.322713,244.051962 179.322713,243.546352 179.634718,243.233547 L181.469151,241.399114 L179.634718,239.564681 C179.322713,239.251876 179.322713,238.746267 179.634718,238.433461 C179.947524,238.120656 180.453933,238.120656 180.765939,238.433461 L182.600371,240.267894 L184.434804,238.433461 C184.74761,238.120656 185.254019,238.120656 185.566024,238.433461 C185.87883,238.746267 185.87883,239.251876 185.566024,239.564681 L183.731591,241.399114 L185.566024,243.233547 C185.87883,243.546352 185.87883,244.051962 185.566024,244.364767 L185.566024,244.364767 Z M180.744338,253.542531 C180.736338,253.983339 180.384332,254.326545 179.952324,254.326545 L179.936324,254.326545 C179.488316,254.319345 179.136309,253.951338 179.15231,253.51053 C179.16031,253.070522 179.520316,252.719316 179.968324,252.726516 C180.408332,252.735316 180.752338,253.103323 180.744338,253.542531 L180.744338,253.542531 Z M179.224311,269.454815 C179.064308,269.630818 178.848304,269.72682 178.6243,269.72682 C178.432297,269.72682 178.248294,269.662818 178.096291,269.526816 C177.760285,269.230811 177.736284,268.726802 178.02429,268.398796 C178.321095,268.06279 178.824304,268.030789 179.15231,268.326795 C179.480316,268.6148 179.520316,269.126809 179.224311,269.454815 L179.224311,269.454815 Z M176.649065,271.662854 C176.512263,271.758856 176.35226,271.798857 176.200257,271.798857 C175.944253,271.798857 175.688248,271.670854 175.536245,271.44685 C175.289041,271.078844 175.392243,270.574835 175.760249,270.33483 C176.121056,270.086826 176.624265,270.190828 176.864269,270.558834 C177.112273,270.918841 177.008271,271.41485 176.649065,271.662854 L176.649065,271.662854 Z M179.400314,276.598942 C179.400314,278.362974 177.965089,279.798999 176.200257,279.798999 C174.436226,279.798999 173.001,278.362974 173.001,276.598942 C173.001,274.834111 174.436226,273.398885 176.200257,273.398885 C177.965089,273.398885 179.400314,274.834111 179.400314,276.598942 L179.400314,276.598942 Z M174.601029,276.598942 C174.601029,277.481358 175.318641,278.198971 176.200257,278.198971 C177.083473,278.198971 177.800286,277.481358 177.800286,276.598942 C177.800286,275.716526 177.083473,274.998914 176.200257,274.998914 C175.318641,274.998914 174.601029,275.716526 174.601029,276.598942 L174.601029,276.598942 Z M180.552335,265.454743 C180.960342,265.606746 181.176346,266.070754 181.024343,266.486762 C180.904341,266.806767 180.600336,267.006771 180.27233,267.006771 C180.176328,267.006771 180.088326,266.990771 179.992325,266.95877 C179.576317,266.798767 179.368314,266.342759 179.520316,265.926752 C179.672319,265.510744 180.136327,265.302741 180.552335,265.454743 L180.552335,265.454743 Z M180.184328,257.518602 C179.784321,257.518602 179.440315,257.222596 179.392314,256.822589 C179.328313,256.382581 179.632318,255.983374 180.072326,255.926573 C180.512334,255.862572 180.912341,256.167378 180.976342,256.606585 C181.032343,257.047393 180.728338,257.4474 180.28833,257.510602 C180.256329,257.510602 180.216329,257.518602 180.184328,257.518602 L180.184328,257.518602 Z M180.520334,251.199289 C180.424332,251.199289 180.328331,251.183289 180.232329,251.142488 C179.816322,250.983285 179.616318,250.519277 179.776321,250.11047 C179.936324,249.694462 180.400332,249.494459 180.808339,249.654461 C181.224347,249.815264 181.42435,250.278473 181.264347,250.68728 C181.144345,251.007286 180.84034,251.199289 180.520334,251.199289 L180.520334,251.199289 Z M180.744338,260.678658 C180.712338,260.678658 180.672337,260.686658 180.640336,260.686658 C180.248329,260.686658 179.904323,260.390653 179.848322,259.982646 C179.792321,259.550638 180.104327,259.150631 180.536334,259.08663 C180.976342,259.030629 181.376349,259.342634 181.440351,259.782642 C181.496352,260.21465 181.184346,260.622657 180.744338,260.678658 L180.744338,260.678658 Z M180.82434,263.870715 C180.376332,263.862715 180.032325,263.486708 180.048326,263.0467 C180.064326,262.606693 180.432333,262.262686 180.87234,262.270687 C181.312348,262.286687 181.656354,262.654693 181.648354,263.094701 C181.632354,263.534709 181.280348,263.870715 180.84914,263.870715 L180.82434,263.870715 L180.82434,263.870715 Z M181.696355,247.183217 C182.008361,246.871212 182.51237,246.862412 182.832375,247.175217 C183.144381,247.487223 183.144381,247.991232 182.840376,248.303237 L182.832375,248.303237 C182.680373,248.46244 182.472369,248.543242 182.264365,248.543242 C182.064362,248.543242 181.864358,248.47124 181.704355,248.310437 C181.39235,248.007232 181.38435,247.494423 181.696355,247.183217 L181.696355,247.183217 Z M206.920005,265.230739 C207.368013,265.222739 207.72802,265.574745 207.73602,266.022753 C207.73602,266.462761 207.384013,266.822768 206.944006,266.830768 L206.936005,266.830768 C206.495998,266.830768 206.135991,266.478762 206.135991,266.038754 C206.127991,265.598746 206.479997,265.238739 206.920005,265.230739 L206.920005,265.230739 Z M208.096026,263.0467 C208.008025,263.414707 207.680019,263.670712 207.312012,263.670712 C207.256011,263.670712 207.20001,263.662711 207.136009,263.646711 C206.704001,263.550709 206.431996,263.126702 206.535998,262.694694 C206.632,262.262686 207.064008,261.990682 207.488015,262.086683 C207.920023,262.190685 208.192028,262.614693 208.096026,263.0467 L208.096026,263.0467 Z M209.879258,271.342848 C210.152063,271.686855 210.096062,272.190864 209.752056,272.462868 C209.600053,272.582871 209.42405,272.638871 209.248047,272.638871 C209.016043,272.638871 208.784038,272.53487 208.624036,272.334866 C208.352031,271.99086 208.408032,271.486851 208.752038,271.214846 C209.096044,270.934841 209.600053,270.990842 209.879258,271.342848 L209.879258,271.342848 Z M207.632018,260.366653 C207.488015,260.21465 207.400014,260.006646 207.400014,259.798642 C207.400014,259.590639 207.488015,259.382635 207.632018,259.230632 C207.928023,258.934627 208.472033,258.934627 208.768038,259.230632 C208.912041,259.382635 209.000042,259.590639 209.000042,259.798642 C209.000042,260.006646 208.912041,260.21465 208.768038,260.366653 C208.616035,260.510655 208.408032,260.598657 208.200028,260.598657 C207.992024,260.598657 207.784021,260.510655 207.632018,260.366653 L207.632018,260.366653 Z M207.264011,268.398796 C207.672019,268.222793 208.144027,268.414796 208.31203,268.822803 C208.488033,269.230811 208.29603,269.694819 207.888022,269.870822 C207.784021,269.910823 207.680019,269.934823 207.576017,269.934823 C207.264011,269.934823 206.968006,269.75082 206.840004,269.446815 C206.664001,269.038807 206.856004,268.574799 207.264011,268.398796 L207.264011,268.398796 Z" id="icon-qadha" sketch:type="MSShapeGroup"></path>
        </g>
    </g>
</svg>