<?xml version="1.0" encoding="UTF-8" standalone="no"?>
<svg width="48px" height="48px" viewBox="0 0 48 48" version="1.1" xmlns="http://www.w3.org/2000/svg" xmlns:xlink="http://www.w3.org/1999/xlink" xmlns:sketch="http://www.bohemiancoding.com/sketch/ns">
    <!-- Generator: Sketch 3.3.2 (12043) - http://www.bohemiancoding.com/sketch -->
    <title>icon-batal</title>
    <desc>Created with Sketch.</desc>
    <defs></defs>
    <g id="Page-1" stroke="none" stroke-width="1" fill="none" fill-rule="evenodd" sketch:type="MSPage">
        <g id="Artboard-4" sketch:type="MSArtboardGroup" transform="translate(-402.000000, -202.000000)" fill="#222222">
            <path d="M425.999077,250 C412.765846,250 402,239.233231 402,226 C402,212.766769 412.765846,202 425.999077,202 C439.233231,202 449.999077,212.766769 449.999077,226 C449.999077,239.233231 439.233231,250 425.999077,250 L425.999077,250 Z M425.999077,203.846154 C413.784,203.846154 403.846154,213.784923 403.846154,226 C403.846154,238.215077 413.784,248.153846 425.999077,248.153846 C438.215077,248.153846 448.152923,238.215077 448.152923,226 C448.152923,213.784923 438.215077,203.846154 425.999077,203.846154 L425.999077,203.846154 Z M434.959385,234.960308 C434.779385,235.140308 434.543077,235.230769 434.306769,235.230769 C434.070462,235.230769 433.835077,235.140308 433.654154,234.960308 L426,227.305231 L418.344923,234.960308 C418.164,235.140308 417.928615,235.230769 417.692308,235.230769 C417.456,235.230769 417.219692,235.140308 417.039692,234.960308 C416.678769,234.599385 416.678769,234.016 417.039692,233.655077 L424.694769,226 L417.039692,218.344923 C416.678769,217.984 416.678769,217.400615 417.039692,217.039692 C417.399692,216.678769 417.984,216.678769 418.344923,217.039692 L426,224.694769 L433.654154,217.039692 C434.015077,216.678769 434.599385,216.678769 434.959385,217.039692 C435.320308,217.400615 435.320308,217.984 434.959385,218.344923 L427.305231,226 L434.959385,233.655077 C435.320308,234.016 435.320308,234.599385 434.959385,234.960308 L434.959385,234.960308 Z" id="icon-batal" sketch:type="MSShapeGroup"></path>
        </g>
    </g>
</svg>