<?xml version="1.0" encoding="UTF-8" standalone="no"?>
<svg width="48px" height="43px" viewBox="0 0 48 43" version="1.1" xmlns="http://www.w3.org/2000/svg" xmlns:xlink="http://www.w3.org/1999/xlink" xmlns:sketch="http://www.bohemiancoding.com/sketch/ns">
    <!-- Generator: Sketch 3.3.2 (12043) - http://www.bohemiancoding.com/sketch -->
    <title>icon-niat</title>
    <desc>Created with Sketch.</desc>
    <defs></defs>
    <g id="Page-1" stroke="none" stroke-width="1" fill="none" fill-rule="evenodd" sketch:type="MSPage">
        <g id="Artboard-4" sketch:type="MSArtboardGroup" transform="translate(-208.000000, -284.000000)" fill="#222222">
            <path d="M255.97583,298.148142 C255.523826,306.096221 249.146962,310.935469 242.9805,315.615516 C238.506056,319.01155 234.281213,322.218782 232.756398,326.326823 C232.640397,326.640426 232.341194,326.848429 232.006791,326.848429 L232.003591,326.848429 C231.667587,326.847629 231.368384,326.636426 231.254783,326.321223 C229.716368,322.069181 225.478725,318.877949 220.99228,315.499515 C214.91702,310.924269 208.635357,306.193822 208.038551,298.162542 C207.761748,294.435304 208.98256,290.904069 211.475385,288.219242 C213.96581,285.537615 217.421845,284 220.95948,284 C225.553926,284 229.526766,286.567226 232.043591,291.100071 C234.796418,286.580026 238.850859,284.02 243.347704,284.02 C246.698938,284.02 249.99097,285.470415 252.379794,287.99924 C254.91742,290.685667 256.195032,294.289703 255.97583,298.148142 L255.97583,298.148142 Z M251.217383,289.098451 C249.128562,286.888029 246.260533,285.620016 243.347704,285.620016 C238.98206,285.620016 235.207623,288.301643 232.719598,293.171292 C232.578796,293.444894 232.279593,293.629696 231.98839,293.606496 C231.681187,293.599296 231.405185,293.416894 231.277983,293.137691 C229.105962,288.347243 225.345124,285.600016 220.95948,285.600016 C217.865849,285.600016 214.836219,286.95123 212.648197,289.308053 C210.460975,291.663277 209.390564,294.765708 209.633767,298.04414 C210.176972,305.351414 216.165032,309.861059 221.95549,314.221102 C226.064331,317.315533 229.97237,320.259563 232.017191,324.110001 C234.054811,320.381964 237.93485,317.436334 242.013291,314.341903 C247.890949,309.880259 253.96781,305.268213 254.378214,298.057741 C254.571816,294.643306 253.449405,291.460875 251.217383,289.098451 L251.217383,289.098451 Z M243.348504,288.820048 C241.211683,288.820048 239.206063,289.806458 237.547646,291.672877 C237.389244,291.850479 237.169242,291.941679 236.94924,291.941679 C236.759638,291.941679 236.570036,291.875279 236.418035,291.739277 C236.087631,291.445674 236.058031,290.940069 236.351634,290.609666 C238.322054,288.392844 240.742078,287.220032 243.348504,287.220032 C243.790108,287.220032 244.148512,287.578436 244.148512,288.02004 C244.148512,288.462445 243.790108,288.820048 243.348504,288.820048 L243.348504,288.820048 Z M236.104432,293.657697 C235.91883,293.9673 235.740428,294.290503 235.567626,294.627306 C235.426825,294.904109 235.146022,295.063311 234.854819,295.063311 C234.732418,295.063311 234.608417,295.03451 234.491615,294.97531 C234.098011,294.773708 233.94281,294.292103 234.143612,293.898499 C234.332414,293.529695 234.528416,293.175292 234.732418,292.835288 C234.95962,292.456885 235.450025,292.333683 235.830029,292.560086 C236.208433,292.787288 236.331634,293.279293 236.104432,293.657697 L236.104432,293.657697 Z M240.078871,311.792278 C241.020481,311.077071 241.95249,310.369864 242.853299,309.660257 C243.200503,309.387454 243.703708,309.445855 243.97651,309.793058 C244.250913,310.139461 244.190912,310.642666 243.843709,310.916269 C242.9349,311.632276 241.99649,312.345884 241.048481,313.065091 C239.132462,314.519505 237.153242,316.02112 235.391624,317.614736 C235.238823,317.753138 235.046821,317.821138 234.855619,317.821138 C234.637217,317.821138 234.419615,317.732337 234.262013,317.557936 C233.96521,317.229932 233.99081,316.724327 234.318014,316.428324 C236.130832,314.788308 238.137252,313.265093 240.078871,311.792278 L240.078871,311.792278 Z M220.95948,288.800048 C218.785058,288.800048 216.554636,289.804058 214.99382,291.484875 C214.717818,291.782478 214.461815,292.101681 214.233813,292.434484 C214.045011,292.709687 213.871409,293.00009 213.717008,293.298493 C213.575406,293.572896 213.296203,293.731297 213.005801,293.731297 C212.882599,293.731297 212.756998,293.702497 212.639397,293.641696 C212.247393,293.438494 212.092991,292.95609 212.296193,292.564086 C212.480195,292.207282 212.688197,291.859279 212.9146,291.529675 C213.186602,291.132071 213.491405,290.751268 213.821009,290.396864 C215.679427,288.395244 218.348254,287.200032 220.95948,287.200032 C221.401884,287.200032 221.759488,287.558436 221.759488,288.00004 C221.759488,288.441644 221.401884,288.800048 220.95948,288.800048 L220.95948,288.800048 Z M212.874599,296.00092 C212.796998,296.590526 212.780198,297.198532 212.824999,297.806538 C212.857799,298.247342 212.527396,298.631346 212.087391,298.664147 C212.066591,298.664947 212.046591,298.665747 212.026591,298.665747 C211.612187,298.665747 211.260983,298.345743 211.229783,297.925739 C211.176182,297.208132 211.196182,296.490525 211.287383,295.792118 C211.345784,295.353714 211.741788,295.049711 212.185792,295.103311 C212.623397,295.160912 212.9322,295.562516 212.874599,296.00092 L212.874599,296.00092 Z" id="icon-niat" sketch:type="MSShapeGroup"></path>
        </g>
    </g>
</svg>