<?xml version="1.0" encoding="UTF-8" standalone="no"?>
<svg width="48px" height="48px" viewBox="0 0 48 48" version="1.1" xmlns="http://www.w3.org/2000/svg" xmlns:xlink="http://www.w3.org/1999/xlink" xmlns:sketch="http://www.bohemiancoding.com/sketch/ns">
    <!-- Generator: Sketch 3.3.2 (12043) - http://www.bohemiancoding.com/sketch -->
    <title>icon-haram</title>
    <desc>Created with Sketch.</desc>
    <defs></defs>
    <g id="Page-1" stroke="none" stroke-width="1" fill="none" fill-rule="evenodd" sketch:type="MSPage">
        <g id="Artboard-4" sketch:type="MSArtboardGroup" transform="translate(-253.000000, -409.000000)" fill="#222222">
            <path d="M276.999077,457 C263.765846,457 253,446.233231 253,433 C253,419.766769 263.765846,409 276.999077,409 C290.233231,409 300.999077,419.766769 300.999077,433 C300.999077,446.233231 290.233231,457 276.999077,457 L276.999077,457 Z M276.999077,410.846154 C264.784,410.846154 254.846154,420.784923 254.846154,433 C254.846154,445.215077 264.784,455.153846 276.999077,455.153846 C289.215077,455.153846 299.152923,445.215077 299.152923,433 C299.152923,420.784923 289.215077,410.846154 276.999077,410.846154 L276.999077,410.846154 Z M291.938154,443.817538 C291.925231,443.836 291.904,443.842462 291.890154,443.859077 C291.871692,443.881231 291.864308,443.908 291.844,443.928308 C291.795077,443.977231 291.735077,444.002154 291.678769,444.037231 C291.641846,444.061231 291.611385,444.090769 291.571692,444.109231 C291.449846,444.164615 291.322462,444.198769 291.191385,444.198769 L291.190462,444.198769 L291.190462,444.198769 C291.083385,444.198769 290.977231,444.174769 290.874769,444.136923 C290.842462,444.124923 290.814769,444.106462 290.783385,444.090769 C290.738154,444.068615 290.691077,444.053846 290.648615,444.022462 C290.627385,444.007692 290.617231,443.984615 290.598769,443.968 C290.579385,443.952308 290.556308,443.945846 290.538769,443.928308 L266.071692,419.460308 C266.053231,419.442769 266.047692,419.419692 266.031077,419.400308 C266.014462,419.380923 265.992308,419.370769 265.976615,419.350462 C265.954462,419.319077 265.948923,419.282154 265.930462,419.248923 C265.9,419.193538 265.872308,419.140923 265.853846,419.081846 C265.836308,419.024615 265.827077,418.969231 265.820615,418.911077 C265.814154,418.852 265.810462,418.795692 265.815077,418.736615 C265.819692,418.676615 265.832615,418.622154 265.848308,418.564923 C265.864,418.507692 265.881538,418.455077 265.907385,418.401538 C265.935077,418.346154 265.971077,418.297231 266.010769,418.247385 C266.033846,418.217846 266.044,418.182769 266.071692,418.156 C266.089231,418.137538 266.113231,418.132 266.131692,418.115385 C266.151077,418.098769 266.161231,418.075692 266.181538,418.060923 C269.358769,415.756 273.099077,414.538462 276.999077,414.538462 C287.178769,414.538462 295.460615,422.820308 295.460615,433 C295.460615,436.900923 294.243077,440.641231 291.938154,443.817538 L291.938154,443.817538 Z M276.999077,416.384615 C273.853231,416.384615 270.825538,417.272615 268.171692,418.950769 L291.048308,441.828308 C292.726462,439.173538 293.614462,436.145846 293.614462,433 C293.614462,423.838462 286.160615,416.384615 276.999077,416.384615 L276.999077,416.384615 Z M287.927385,446.538769 C287.944923,446.557231 287.951385,446.580308 287.967077,446.598769 C287.983692,446.618154 288.006769,446.628308 288.022462,446.649538 C288.045538,446.680923 288.051077,446.718769 288.068615,446.752 C288.099077,446.806462 288.126769,446.86 288.144308,446.918154 C288.162769,446.975385 288.171077,447.030769 288.177538,447.088923 C288.184923,447.148 288.188615,447.204308 288.184,447.264308 C288.179385,447.323385 288.166462,447.377846 288.150769,447.435077 C288.135077,447.491385 288.117538,447.544923 288.090769,447.598462 C288.063077,447.653846 288.028,447.702769 287.988308,447.752615 C287.965231,447.782154 287.955077,447.817231 287.927385,447.844923 C287.909846,447.862462 287.885846,447.868923 287.867385,447.884615 C287.848,447.901231 287.837846,447.924308 287.816615,447.939077 C284.640308,450.244 280.9,451.461538 276.999077,451.461538 C266.820308,451.461538 258.538462,443.179692 258.538462,433 C258.538462,429.099077 259.756,425.358769 262.060923,422.182462 C262.075692,422.161231 262.098769,422.151077 262.115385,422.132615 C262.131077,422.113231 262.137538,422.089231 262.155077,422.071692 C262.182769,422.044 262.218769,422.032923 262.248308,422.009846 C262.297231,421.972 262.345231,421.936 262.399692,421.909231 C262.455077,421.881538 262.509538,421.864 262.567692,421.848308 C262.623077,421.832615 262.676615,421.820615 262.733846,421.816 C262.794769,421.810462 262.852923,421.815077 262.912923,421.821538 C262.970154,421.828 263.024615,421.837231 263.080923,421.854769 C263.14,421.873231 263.192615,421.9 263.248,421.930462 C263.281231,421.948923 263.318154,421.954462 263.349538,421.977538 C263.370769,421.992308 263.380923,422.015385 263.400308,422.032 C263.418769,422.047692 263.442769,422.054154 263.460308,422.071692 L287.927385,446.538769 L287.927385,446.538769 Z M276.999077,449.615385 C280.144923,449.615385 283.173538,448.727385 285.827385,447.049231 L262.949846,424.171692 C261.272615,426.826462 260.384615,429.854154 260.384615,433 C260.384615,442.161538 267.837538,449.615385 276.999077,449.615385 L276.999077,449.615385 Z" id="icon-haram" sketch:type="MSShapeGroup"></path>
        </g>
    </g>
</svg>