<?xml version="1.0" encoding="UTF-8" standalone="no"?>
<svg width="55px" height="56px" viewBox="0 0 55 56" version="1.1" xmlns="http://www.w3.org/2000/svg" xmlns:xlink="http://www.w3.org/1999/xlink" xmlns:sketch="http://www.bohemiancoding.com/sketch/ns">
    <!-- Generator: Sketch 3.3.2 (12043) - http://www.bohemiancoding.com/sketch -->
    <title>present</title>
    <desc>Created with Sketch.</desc>
    <defs></defs>
    <g id="Page-1" stroke="none" stroke-width="1" fill="none" fill-rule="evenodd" sketch:type="MSPage">
        <g id="Artboard-3" sketch:type="MSArtboardGroup" transform="translate(-119.000000, -457.000000)">
            <g id="present" sketch:type="MSLayerGroup" transform="translate(119.000000, 456.000000)">
                <path d="M45.414,5.15688235 C44.3597647,2.99211765 42.1642941,1.70076471 39.5491765,1.70076471 C33.5888235,1.70076471 29.3616471,8.14047059 27.2872941,12.2038824 C25.2078235,8.14388235 20.9874706,1.74170588 15.0390588,1.74170588 C11.2656471,1.74170588 8.52941176,4.43017647 8.52941176,8.07564706 C8.52941176,14.5409412 14.6961765,18.7595882 27.0928235,18.7595882 C39.4894706,18.7595882 46.0571176,13.3382941 46.0571176,8.12852941 C46.0554118,7.09476471 45.8660588,6.07976471 45.414,5.15688235 L45.414,5.15688235 Z M16.0898824,11.5744118 C14.2850588,10.4962941 13.6419412,9.28852941 13.6419412,8.51405882 C13.6419412,7.52464706 14.6944706,6.80817647 16.1444706,6.80817647 C19.6381176,6.80817647 24.1075294,12.5467647 25.6104118,15.3546471 C21.5845294,15.0544118 17.4648235,12.3966471 16.0898824,11.5744118 L16.0898824,11.5744118 Z M40.6972353,9.43352941 C39.7914118,11.2622353 35.0012941,14.906 29.0170588,15.3529412 C30.5267647,12.5450588 35.0047059,6.80647059 38.4437647,6.80647059 C39.7743529,6.80647059 40.5385882,7.38305882 40.8047059,7.92211765 C41.0162353,8.352 40.9804118,8.86205882 40.6972353,9.43352941 L40.6972353,9.43352941 Z" id="Shape" fill="#BF392C" sketch:type="MSShapeGroup"></path>
                <path d="M54.5882353,18.7681176 L0,18.7681176 L0,32.4185882 L1.70588235,32.4185882 L1.70588235,56.2975294 L52.8823529,56.2975294 L52.8823529,32.4185882 L54.5882353,32.4185882 L54.5882353,18.7681176 L54.5882353,18.7681176 Z" id="Shape" fill="#EFC75E" sketch:type="MSShapeGroup"></path>
                <path d="M1.70588235,32.4168824 L52.8823529,32.4168824 L52.8823529,35.8286471 L1.70588235,35.8286471 L1.70588235,32.4168824 L1.70588235,32.4168824 Z" id="Shape" fill="#D7B354" sketch:type="MSShapeGroup"></path>
                <path d="M23.8823529,18.7681176 L30.7058824,18.7681176 L30.7058824,56.2975294 L23.8823529,56.2975294 L23.8823529,18.7681176 L23.8823529,18.7681176 Z" id="Shape" fill="#BF392C" sketch:type="MSShapeGroup"></path>
                <rect id="Rectangle-path" fill="#AC3327" sketch:type="MSShapeGroup" x="23.8823529" y="32.4168824" width="6.82352941" height="3.41176471"></rect>
            </g>
        </g>
    </g>
</svg>