<?xml version="1.0" encoding="UTF-8" standalone="no"?>
<svg width="600px" height="600px" viewBox="0 0 600 600" version="1.1" xmlns="http://www.w3.org/2000/svg" xmlns:xlink="http://www.w3.org/1999/xlink" xmlns:sketch="http://www.bohemiancoding.com/sketch/ns">
    <!-- Generator: Sketch 3.3.2 (12043) - http://www.bohemiancoding.com/sketch -->
    <title>logo</title>
    <desc>Created with Sketch.</desc>
    <defs></defs>
    <g id="Page-1" stroke="none" stroke-width="1" fill="none" fill-rule="evenodd" sketch:type="MSPage">
        <g id="Artboard-15" sketch:type="MSArtboardGroup" transform="translate(-321.000000, -285.000000)" fill="#FFFFFF">
            <g id="Group" sketch:type="MSLayerGroup" transform="translate(-805.000000, 285.000000)">
                <g id="logo" transform="translate(1126.000000, 0.000000)" sketch:type="MSShapeGroup">
                    <path d="M280,281.25 L520.3125,281.25 L520.3125,240.625 L79.6875,240.625 L79.6875,281.25 L239.375,281.25 L239.375,319.6875 L160,319.6875 L160,360.3125 L259.6875,360.3125 L280,360.3125 L280,281.25 Z M79.6875,480.625 L0,480.625 L0,521.25 L520.3125,521.25 L520.3125,480.625 L359.6875,480.625 L359.6875,400.625 L319.0625,400.625 L319.0625,480.625 L319.0625,480.625 L200.625,480.625 L200.625,480.625 L200.625,400.625 L160,400.625 L160,480.625 L120.3125,480.625 L120.3125,400.625 L79.6875,400.625 L79.6875,480.625 L79.6875,480.625 Z M0,559.375 L600,559.375 L600,600 L0,600 L0,559.375 Z M160,0 L600,0 L600,40.625 L160,40.625 L160,0 Z M160,80 L440,80 L440,120.625 L160,120.625 L160,80 Z M160,160.625 L440,160.625 L440,201.25 L160,201.25 L160,160.625 Z M119.6875,160.625 L0,160.625 L0,201.25 L119.6875,201.25 L119.6875,160.625 Z M119.6875,0 L0,0 L0,40.625 L119.6875,40.625 L119.6875,0 Z M400.3125,400.625 L520.3125,400.625 L520.3125,441.25 L400.3125,441.25 L400.3125,400.625 Z M480,80 L600,80 L600,120.625 L480,120.625 L480,80 Z M79.6875,80 L120.3125,80 L120.3125,120.625 L79.6875,120.625 L79.6875,80 Z M399.375,319.6875 L440,319.6875 L440,360.3125 L399.375,360.3125 L399.375,319.6875 Z M319.0625,319.6875 L359.6875,319.6875 L359.6875,360.3125 L319.0625,360.3125 L319.0625,319.6875 Z" id="Rectangle-167"></path>
                    <path d="M79.6875,240.625 L120.3125,240.625 L120.3125,360.3125 L79.6875,360.3125 L79.6875,240.625 Z M160,240.625 L200.625,240.625 L200.625,360.3125 L160,360.3125 L160,240.625 Z M160,0.9375 L200.625,0.9375 L200.625,120.625 L160,120.625 L160,0.9375 Z M400.3125,400.625 L440.9375,400.625 L440.9375,520.3125 L400.3125,520.3125 L400.3125,400.625 Z M479.6875,400.625 L520.3125,400.625 L520.3125,520.3125 L479.6875,520.3125 L479.6875,400.625 Z M479.6875,160.625 L520.3125,160.625 L520.3125,280.3125 L479.6875,280.3125 L479.6875,160.625 Z M400.3125,81.5625 L440.9375,81.5625 L440.9375,201.25 L400.3125,201.25 L400.3125,81.5625 Z M479.6875,319.6875 L520.3125,319.6875 L520.3125,360.3125 L479.6875,360.3125 L479.6875,319.6875 Z M160,400.625 L359.6875,400.625 L359.6875,441.25 L160,441.25 L160,400.625 Z M559.375,400.625 L600,400.625 L600,560 L559.375,560 L559.375,400.625 Z M0,240.625 L40.625,240.625 L40.625,496 L0,496 L0,240.625 Z M0,0 L40.625,0 L40.625,201.25 L0,201.25 L0,0 Z M559.375,0 L600,0 L600,360.3125 L559.375,360.3125 L559.375,0 Z" id="Rectangle-167-Copy-15"></path>
                </g>
            </g>
        </g>
    </g>
</svg>