<?xml version="1.0" encoding="UTF-8" standalone="no"?>
<svg width="2837px" height="976px" viewBox="0 0 2837 976" version="1.1" xmlns="http://www.w3.org/2000/svg" xmlns:xlink="http://www.w3.org/1999/xlink" xmlns:sketch="http://www.bohemiancoding.com/sketch/ns">
    <!-- Generator: Sketch 3.3.2 (12043) - http://www.bohemiancoding.com/sketch -->
    <title>modal-bg</title>
    <desc>Created with Sketch.</desc>
    <defs></defs>
    <g id="Page-1" stroke="none" stroke-width="1" fill="none" fill-rule="evenodd" sketch:type="MSPage">
        <g id="Artboard-25" sketch:type="MSArtboardGroup" transform="translate(-491.000000, -914.000000)" fill-opacity="0.2" fill="#000000">
            <g id="modal-bg" sketch:type="MSLayerGroup" transform="translate(491.000000, 914.000000)">
                <path d="M1135.21344,601.269649 L1135.21344,580.612153 C1135.21344,572.16513 1140.85115,564.049954 1143.51172,554.765771 C1145.92357,564.049954 1151.80246,572.16513 1151.80246,580.612153 L1151.80246,601.269649 L1135.21344,601.269649 M1176.09433,601.269649 L1176.09433,580.612153 C1176.09433,572.16513 1181.73204,564.049954 1184.39261,554.765771 C1186.80446,564.049954 1192.69089,572.16513 1192.69089,580.612153 L1192.69089,601.269649 L1176.09433,601.269649 M1215.58087,601.269649 L1215.58087,580.612153 C1215.58087,572.16513 1221.21857,564.049954 1223.87915,554.765771 C1226.28346,564.049954 1232.17743,572.16513 1232.17743,580.612153 L1232.17743,601.269649 L1215.58087,601.269649 M1255.07494,601.269649 L1255.07494,580.612153 C1255.07494,572.16513 1260.71265,564.049954 1263.36569,554.765771 C1265.77754,564.049954 1271.66396,572.16513 1271.66396,580.612153 L1271.66396,601.269649 L1255.07494,601.269649 M1294.55394,601.269649 L1294.55394,580.612153 C1294.55394,572.16513 1300.19919,564.049954 1302.85222,554.765771 C1305.26407,564.049954 1311.1505,572.16513 1311.1505,580.612153 L1311.1505,601.269649 L1294.55394,601.269649 M1334.04048,601.269649 L1334.04048,580.612153 C1334.04048,572.16513 1339.67819,564.049954 1342.33876,554.765771 C1344.75061,564.049954 1350.6295,572.16513 1350.6295,580.612153 L1350.6295,601.269649 L1334.04048,601.269649 M1373.52702,601.269649 L1373.52702,580.612153 C1373.52702,572.16513 1379.16472,564.049954 1381.8253,554.765771 C1384.22961,564.049954 1390.12357,572.16513 1390.12357,580.612153 L1390.12357,601.269649 L1373.52702,601.269649 M1413.02109,601.269649 L1413.02109,580.612153 C1413.02109,572.16513 1418.6588,564.049954 1421.31183,554.765771 C1423.72369,564.049954 1429.61011,572.16513 1429.61011,580.612153 L1429.61011,601.269649 L1413.02109,601.269649 M1452.50009,601.269649 L1452.50009,580.612153 C1452.50009,572.16513 1458.1378,564.049954 1460.79837,554.765771 C1463.21022,564.049954 1469.09665,572.16513 1469.09665,580.612153 L1469.09665,601.269649 L1452.50009,601.269649 M1491.98663,601.269649 L1491.98663,580.612153 C1491.98663,572.16513 1497.62433,564.049954 1500.28491,554.765771 C1502.69676,564.049954 1508.57565,572.16513 1508.57565,580.612153 L1508.57565,601.269649 L1491.98663,601.269649 M1531.47317,601.269649 L1531.47317,580.612153 C1531.47317,572.16513 1537.11841,564.049954 1539.77144,554.765771 C1542.17576,564.049954 1548.06972,572.16513 1548.06972,580.612153 L1548.06972,601.269649 L1531.47317,601.269649 M1570.9597,601.269649 L1570.9597,580.612153 C1570.9597,572.16513 1576.60494,564.049954 1579.25798,554.765771 C1581.66983,564.049954 1587.55626,572.16513 1587.55626,580.612153 L1587.55626,601.269649 L1570.9597,601.269649 M1610.44624,601.269649 L1610.44624,580.612153 C1610.44624,572.16513 1616.08394,564.049954 1618.74452,554.765771 C1621.15637,564.049954 1627.0428,572.16513 1627.0428,580.612153 L1627.0428,601.269649 L1610.44624,601.269649 M1649.93278,601.269649 L1649.93278,580.612153 C1649.93278,572.16513 1655.57048,564.049954 1658.23106,554.765771 C1660.63537,564.049954 1666.5218,572.16513 1666.5218,580.612153 L1666.5218,601.269649 L1649.93278,601.269649 M1689.41931,601.269649 L1689.41931,580.612153 C1689.41931,572.16513 1695.06456,564.049954 1697.71759,554.765771 C1700.12944,564.049954 1706.01587,572.16513 1706.01587,580.612153 L1706.01587,601.269649 L1689.41931,601.269649 M523.748704,468.213954 L523.748704,459.276702 C523.748704,455.61884 526.296222,452.111817 527.34387,448.099481 C528.4895,452.111817 530.923963,455.61884 530.923963,459.276702 L530.923963,468.213954 L523.748704,468.213954 M874.680685,468.213954 L874.680685,459.276702 C874.680685,455.61884 877.228204,452.111817 878.268315,448.099481 C879.421481,452.111817 881.855944,455.61884 881.855944,459.276702 L881.855944,468.213954 L874.680685,468.213954 M1954.86622,468.213954 L1954.86622,459.276702 C1954.86622,455.61884 1957.30069,452.111817 1958.45385,448.099481 C1959.49396,452.111817 1962.04148,455.61884 1962.04148,459.276702 L1962.04148,468.213954 L1954.86622,468.213954 M2305.7982,468.213954 L2305.7982,459.276702 C2305.7982,455.61884 2308.23267,452.111817 2309.3783,448.099481 C2310.42594,452.111817 2312.97346,455.61884 2312.97346,459.276702 L2312.97346,468.213954 L2305.7982,468.213954 M524.713444,431.86913 L524.713444,425.345313 C524.713444,422.667908 526.575093,420.118718 527.34387,417.177344 C528.180481,420.118718 529.966759,422.667908 529.966759,425.345313 L529.966759,431.86913 L524.713444,431.86913 M875.645426,431.86913 L875.645426,425.345313 C875.645426,422.667908 877.507074,420.118718 878.268315,417.177344 C879.112463,420.118718 880.891204,422.667908 880.891204,425.345313 L880.891204,431.86913 L875.645426,431.86913 M1955.83096,431.86913 L1955.83096,425.345313 C1955.83096,422.667908 1957.6097,420.118718 1958.45385,417.177344 C1959.21509,420.118718 1961.08428,422.667908 1961.08428,425.345313 L1961.08428,431.86913 L1955.83096,431.86913 M2306.76294,431.86913 L2306.76294,425.345313 C2306.76294,422.667908 2308.54169,420.118718 2309.3783,417.177344 C2310.14707,420.118718 2312.00872,422.667908 2312.00872,425.345313 L2312.00872,431.86913 L2306.76294,431.86913 M525.534981,404.846198 L525.534981,400.343634 C525.534981,398.495847 526.831352,396.731023 527.34387,394.702229 C527.924222,396.731023 529.145222,398.495847 529.145222,400.343634 L529.145222,404.846198 L525.534981,404.846198 M876.459426,404.846198 L876.459426,400.343634 C876.459426,398.495847 877.755796,396.731023 878.268315,394.702229 C878.856204,396.731023 880.077204,398.495847 880.077204,400.343634 L880.077204,404.846198 L876.459426,404.846198 M1956.6525,404.846198 L1956.6525,400.343634 C1956.6525,398.495847 1957.8735,396.731023 1958.45385,394.702229 C1958.96637,396.731023 1960.26274,398.495847 1960.26274,400.343634 L1960.26274,404.846198 L1956.6525,404.846198 M2307.57694,404.846198 L2307.57694,400.343634 C2307.57694,398.495847 2308.79794,396.731023 2309.3783,394.702229 C2309.89835,396.731023 2311.19472,398.495847 2311.19472,400.343634 L2311.19472,404.846198 L2307.57694,404.846198 M1097.22678,214.644885 L1097.22678,202.336366 C1097.22678,197.298321 1100.5883,192.456366 1102.17861,186.92055 C1103.61065,192.456366 1107.12291,197.298321 1107.12291,202.336366 L1107.12291,214.644885 L1097.22678,214.644885 M1729.39576,214.644885 L1729.39576,202.336366 C1729.39576,197.298321 1732.75728,192.456366 1734.34006,186.92055 C1735.77963,192.456366 1739.29189,197.298321 1739.29189,202.336366 L1739.29189,214.644885 L1729.39576,214.644885 M1098.56083,164.573649 L1098.56083,155.576061 C1098.56083,151.888031 1101.01791,148.365924 1102.17861,144.32342 C1103.21872,148.365924 1105.78885,151.888031 1105.78885,155.576061 L1105.78885,164.573649 L1098.56083,164.573649 M1730.72981,164.573649 L1730.72981,155.576061 C1730.72981,151.888031 1733.18689,148.365924 1734.34006,144.32342 C1735.3877,148.365924 1737.95783,151.888031 1737.95783,155.576061 L1737.95783,164.573649 L1730.72981,164.573649 M1099.68385,127.331328 L1099.68385,121.124275 C1099.68385,118.582626 1101.37215,116.154107 1102.17861,113.363573 C1102.88709,116.154107 1104.66583,118.582626 1104.66583,121.124275 L1104.66583,127.331328 L1099.68385,127.331328 M1731.85283,127.331328 L1731.85283,121.124275 C1731.85283,118.582626 1733.54113,116.154107 1734.34006,113.363573 C1735.05607,116.154107 1736.83481,118.582626 1736.83481,121.124275 L1736.83481,127.331328 L1731.85283,127.331328 M1734.37774,0 L1734.34006,0 C1732.85526,0.0150839695 1731.65687,1.22934351 1731.65687,2.7151145 C1731.65687,4.04250382 1732.62915,5.08329771 1733.8803,5.33218321 C1733.5562,8.56769466 1733.2095,11.3959389 1732.85526,13.8018321 C1730.5037,19.3150229 1726.20006,29.7757557 1726.20006,33.0489771 C1726.20006,36.8803053 1728.83048,40.0630229 1732.37289,40.9605191 L1715.82156,106.409863 L1715.82156,129.903145 C1713.28911,130.959023 1711.71387,132.31658 1711.71387,133.990901 C1711.71387,137.475298 1713.24389,140.703267 1715.82156,143.342962 L1715.82156,166.564733 C1710.72652,167.914748 1707.31978,169.936 1707.31978,172.628489 C1707.31978,178.202015 1710.59839,183.224977 1715.82156,186.777252 L1715.82156,216.500214 C1709.81454,217.918107 1705.68424,220.142992 1705.68424,223.189954 C1705.68424,229.502595 1709.62611,235.144 1715.82156,238.922534 L1715.82156,521.045557 C1715.09046,520.977679 1714.37444,520.82684 1713.6132,520.82684 C1709.01561,520.82684 1704.80994,522.372947 1701.36552,524.914595 C1699.02904,521.181313 1696.6398,517.772336 1694.30331,515.087389 C1691.60506,518.141893 1688.83143,522.018473 1686.19346,526.385282 C1682.50031,522.961221 1677.5937,520.82684 1672.1595,520.82684 C1667.56191,520.82684 1663.35624,522.372947 1659.91181,524.914595 C1657.57533,521.181313 1655.18609,517.772336 1652.84961,515.087389 C1650.15135,518.141893 1647.37772,522.018473 1644.73976,526.385282 C1641.04661,522.961221 1636.14,520.82684 1630.7058,520.82684 C1626.1082,520.82684 1621.90254,522.372947 1618.45811,524.914595 C1616.12163,521.181313 1613.73239,517.772336 1611.39591,515.087389 L1611.39591,506.715786 L1556.35293,506.715786 C1564.22913,488.486809 1568.60815,468.417588 1568.60815,447.300031 C1568.60815,368.37316 1477.76424,329.373557 1426.128,276.315695 C1429.51213,273.985221 1431.72802,270.078473 1431.72802,265.651328 C1431.72802,260.145679 1428.29113,255.469649 1423.44481,253.591695 L1423.44481,228.710687 C1426.6782,227.01374 1428.9167,223.665099 1428.9167,219.743267 C1428.9167,215.844061 1426.6782,212.487878 1423.44481,210.806015 L1423.44481,186.483115 C1425.36676,185.050137 1426.63298,182.772458 1426.63298,180.178015 C1426.63298,177.591115 1425.36676,175.320977 1423.44481,173.880458 L1423.44481,171.082382 C1423.44481,169.325099 1421.74898,158.404305 1420.34709,150.598351 C1420.52044,150.605893 1420.68626,150.605893 1420.85961,150.605893 C1426.31643,150.605893 1431.74309,148.546931 1435.8357,144.32342 C1439.89817,140.137618 1441.82765,134.677221 1441.69952,129.269618 C1440.9835,132.128031 1439.56654,134.835603 1437.34311,137.052947 C1434.05696,140.348794 1429.74578,142.000489 1425.43459,142.000489 C1421.13094,142.000489 1416.81976,140.348794 1413.53361,137.052947 C1406.96131,130.483878 1406.96131,119.811969 1413.53361,113.235359 C1415.4857,111.281985 1417.80711,109.984763 1420.27172,109.185313 L1420.87469,108.861008 L1420.81439,108.861008 C1415.38019,108.861008 1409.93091,110.972763 1405.8383,115.196275 C1397.79628,123.492458 1397.99224,136.721099 1406.27544,144.768397 C1409.39578,147.785191 1413.20952,149.648061 1417.174,150.349466 C1415.76457,158.15542 1414.1215,169.302473 1414.1215,171.082382 L1414.1215,173.888 C1412.19202,175.320977 1410.93333,177.591115 1410.93333,180.178015 C1410.93333,182.772458 1412.19202,185.050137 1414.1215,186.468031 L1414.1215,210.806015 C1410.88057,212.487878 1408.64961,215.844061 1408.64961,219.743267 C1408.64961,223.665099 1410.88057,227.01374 1414.1215,228.710687 L1414.1215,253.599237 C1409.28272,255.477191 1405.8383,260.153221 1405.8383,265.651328 C1405.8383,270.040763 1408.03157,273.909802 1411.36294,276.247817 C1358.99561,329.335847 1268.95063,368.350534 1268.95063,447.300031 C1268.95063,468.417588 1273.32965,488.486809 1281.19078,506.715786 L1225.12276,506.715786 L1225.12276,534.191237 C1222.13809,526.392824 1214.64628,520.82684 1205.81287,520.82684 C1200.77813,520.82684 1196.2333,522.68971 1192.63813,525.676336 C1190.15091,521.618748 1187.58078,517.960885 1185.08602,515.087389 C1182.55357,517.945802 1179.96083,521.58858 1177.47361,525.631084 C1173.88598,522.674626 1169.36376,520.82684 1164.35163,520.82684 C1159.32443,520.82684 1154.77959,522.68971 1151.18443,525.676336 C1148.6972,521.618748 1146.12707,517.960885 1143.63231,515.087389 C1141.09987,517.945802 1138.50713,521.58858 1136.01991,525.631084 C1132.43228,522.674626 1127.91006,520.82684 1122.89793,520.82684 C1122.14422,520.82684 1121.4282,520.977679 1120.69711,521.045557 L1120.69711,238.922534 C1126.90009,235.144 1130.83443,229.502595 1130.83443,223.189954 C1130.83443,220.150534 1126.71167,217.918107 1120.69711,216.500214 L1120.69711,186.777252 C1125.92781,183.224977 1129.20643,178.202015 1129.20643,172.628489 C1129.20643,169.936 1125.79969,167.914748 1120.69711,166.564733 L1120.69711,143.342962 C1123.28231,140.695725 1124.8048,137.475298 1124.8048,133.990901 C1124.8048,132.31658 1123.24463,130.959023 1120.69711,129.903145 L1120.69711,106.409863 L1104.15331,40.983145 C1107.73341,40.1007328 1110.37891,36.8953893 1110.37891,33.0489771 C1110.37891,29.8059237 1106.14309,19.4507786 1103.76139,13.9074198 C1103.41469,11.4562748 1103.04537,8.65065649 1102.69113,5.33218321 C1103.95735,5.09838168 1104.92963,4.04250382 1104.92963,2.7151145 C1104.92963,1.21425954 1103.71617,0 1102.20876,0 L1102.17861,0 C1100.68628,0.0150839695 1099.48789,1.22934351 1099.48789,2.7151145 C1099.48789,4.04250382 1100.46017,5.08329771 1101.71131,5.33218321 C1101.38722,8.56769466 1101.04052,11.3959389 1100.68628,13.8018321 C1098.33472,19.3150229 1094.03107,29.7757557 1094.03107,33.0489771 C1094.03107,36.8803053 1096.6615,40.0630229 1100.20391,40.9605191 L1083.65257,106.409863 L1083.65257,129.903145 C1081.12013,130.959023 1079.54489,132.31658 1079.54489,133.990901 C1079.54489,137.475298 1081.07491,140.703267 1083.65257,143.342962 L1083.65257,166.564733 C1078.55754,167.914748 1075.1508,169.936 1075.1508,172.628489 C1075.1508,178.202015 1078.42941,183.224977 1083.65257,186.777252 L1083.65257,216.500214 C1077.64556,217.918107 1073.51526,220.142992 1073.51526,223.189954 C1073.51526,229.502595 1077.45713,235.144 1083.65257,238.922534 L1083.65257,601.269649 L1059.11952,601.269649 C1054.57469,587.837374 1047.06026,574.291969 1040.14126,566.335176 C1033.08659,574.291969 1025.60985,587.837374 1021.11778,601.269649 L985.1435,601.269649 C980.613741,587.837374 973.091778,574.284427 966.172778,566.327634 C959.118111,574.284427 951.64137,587.837374 947.141759,601.269649 L924.884889,601.269649 L924.884889,661.168092 L891.714389,661.168092 L891.714389,485.832031 C896.206463,483.086748 899.070537,478.998992 899.070537,474.413466 C899.070537,472.203664 896.070796,470.589679 891.714389,469.548885 L891.714389,447.993893 C895.505519,445.414534 897.887222,441.771756 897.887222,437.72171 C897.887222,435.768336 895.415074,434.297649 891.714389,433.324733 L891.714389,416.460855 C893.583574,414.545191 894.691519,412.207176 894.691519,409.673069 C894.691519,408.466351 893.553426,407.478351 891.714389,406.709069 L891.714389,389.664183 L879.700352,342.164763 C882.270481,341.508611 884.177352,339.193221 884.177352,336.417771 C884.177352,334.042046 881.057019,326.447267 879.346111,322.442473 C879.097389,320.700275 878.84113,318.648855 878.599944,316.303298 C879.511926,316.12229 880.21287,315.368092 880.21287,314.402718 C880.21287,313.316672 879.346111,312.441802 878.268315,312.426718 L878.245704,312.426718 C877.152833,312.426718 876.271,313.30913 876.271,314.402718 C876.271,315.368092 876.979481,316.137374 877.899,316.303298 C877.635204,318.709191 877.371407,320.753069 877.115148,322.525435 C875.396704,326.545313 872.306519,334.064672 872.306519,336.417771 C872.306519,339.208305 874.236,341.538779 876.828741,342.179847 L864.822241,389.664183 L864.822241,406.709069 C862.975667,407.478351 861.845111,408.466351 861.845111,409.673069 C861.845111,412.207176 862.945519,414.537649 864.822241,416.460855 L864.822241,433.324733 C861.121556,434.297649 858.649407,435.768336 858.649407,437.72171 C858.649407,441.771756 861.031111,445.414534 864.822241,447.993893 L864.822241,469.548885 C860.458296,470.589679 857.466093,472.211206 857.466093,474.413466 C857.466093,478.998992 860.330167,483.086748 864.822241,485.832031 L864.822241,661.168092 L864.792093,661.168092 L864.792093,717.016489 L843.266315,717.016489 C838.894833,702.830015 830.996019,688.153313 823.534352,679.728916 C816.208352,688.153313 808.256778,702.830015 803.840074,717.016489 L783.701111,717.016489 C788.675556,705.484794 791.449185,692.769008 791.449185,679.404611 C791.449185,629.43142 734.446574,604.73142 701.298685,571.131878 C703.409056,569.646107 704.79587,567.202504 704.79587,564.419511 C704.79587,560.935115 702.617667,557.978656 699.55763,556.787023 L699.55763,541.031817 C701.600167,539.960855 703.01713,537.841557 703.01713,535.360244 C703.01713,532.886473 701.600167,530.767176 699.55763,529.696214 L699.55763,504.558779 C699.55763,502.92971 697.364352,488.811115 696.603111,486.774779 C695.947389,488.856366 693.65613,502.92971 693.65613,504.558779 L693.65613,529.696214 C691.598519,530.767176 690.181556,532.886473 690.181556,535.360244 C690.181556,537.841557 691.598519,539.960855 693.65613,541.031817 L693.65613,556.787023 C690.581019,557.971115 688.410352,560.935115 688.410352,564.419511 C688.410352,567.217588 689.804704,569.691359 691.960296,571.169588 C659.257093,604.754046 601.757037,629.446504 601.757037,679.404611 C601.757037,692.769008 604.530667,705.484794 609.505111,717.016489 L591.031833,717.016489 C586.660352,702.830015 578.761537,688.153313 571.29987,679.728916 C563.97387,688.153313 556.029833,702.830015 551.61313,717.016489 L540.782407,717.016489 L540.782407,485.832031 C545.282019,483.086748 548.146093,478.998992 548.146093,474.413466 C548.146093,472.203664 545.138815,470.589679 540.782407,469.548885 L540.782407,447.993893 C544.573537,445.414534 546.955241,441.771756 546.955241,437.72171 C546.955241,435.768336 544.483093,434.297649 540.782407,433.324733 L540.782407,416.460855 C542.651593,414.545191 543.767074,412.207176 543.767074,409.673069 C543.767074,408.466351 542.621444,407.478351 540.782407,406.709069 L540.782407,389.664183 L528.76837,342.164763 C531.3385,341.508611 533.24537,339.193221 533.24537,336.417771 C533.24537,334.042046 530.125037,326.447267 528.41413,322.442473 C528.165407,320.700275 527.909148,318.648855 527.6755,316.303298 C528.587481,316.12229 529.288426,315.368092 529.288426,314.402718 C529.288426,313.316672 528.41413,312.441802 527.34387,312.426718 L527.313722,312.426718 C526.220852,312.426718 525.339019,313.30913 525.339019,314.402718 C525.339019,315.368092 526.0475,316.137374 526.967019,316.303298 C526.710759,318.709191 526.446963,320.753069 526.190704,322.525435 C524.464722,326.545313 521.382074,334.064672 521.382074,336.417771 C521.382074,339.208305 523.311556,341.538779 525.896759,342.179847 L513.897796,389.664183 L513.897796,406.709069 C512.051222,407.478351 510.91313,408.466351 510.91313,409.673069 C510.91313,412.207176 512.021074,414.537649 513.897796,416.460855 L513.897796,433.324733 C510.189574,434.297649 507.717426,435.768336 507.717426,437.72171 C507.717426,441.771756 510.106667,445.414534 513.897796,447.993893 L513.897796,469.548885 C509.533852,470.589679 506.534111,472.211206 506.534111,474.413466 C506.534111,478.998992 509.398185,483.086748 513.897796,485.832031 L513.897796,717.016489 L513.867648,717.016489 L513.867648,772.676336 C500.316056,756.182015 480.101722,745.366809 457.324796,744.401435 C457.015778,740.494687 455.892759,727.748733 454.031111,722.212916 C452.516167,726.587267 451.106741,740.313679 450.714815,744.401435 C425.209481,745.464855 402.899852,758.874504 389.581907,778.792885 C384.712981,744.869038 344.631019,726.632519 320.693389,702.369954 C322.321389,701.231115 323.376574,699.345618 323.376574,697.211237 C323.376574,694.52629 321.703352,692.256153 319.344259,691.336031 L319.344259,679.208519 C320.9195,678.386443 322.01237,676.749832 322.01237,674.84171 C322.01237,672.933588 320.9195,671.312061 319.344259,670.482443 L319.344259,651.137252 C319.344259,649.885282 317.6635,639.017282 317.075611,637.44855 C316.57063,639.054992 314.8145,649.885282 314.8145,651.137252 L314.8145,670.482443 C313.224185,671.312061 312.131315,672.933588 312.131315,674.84171 C312.131315,676.749832 313.224185,678.386443 314.8145,679.208519 L314.8145,691.336031 C312.440333,692.248611 310.774648,694.518748 310.774648,697.211237 C310.774648,699.360702 311.83737,701.261282 313.503056,702.400122 C295.956833,720.425466 269.15513,735.139878 254.525741,755.435359 L254.525741,646.725191 C257.849574,644.696397 259.959944,641.679603 259.959944,638.28571 C259.959944,636.664183 257.736519,635.465008 254.525741,634.703267 L254.525741,618.774595 C257.321981,616.874015 259.085648,614.181527 259.085648,611.187359 C259.085648,609.74684 257.261685,608.668336 254.525741,607.944305 L254.525741,595.492489 C255.905019,594.074595 256.726556,592.347481 256.726556,590.477069 C256.726556,589.579573 255.882407,588.855542 254.525741,588.282351 L254.525741,575.694779 L245.654648,540.609466 C247.546444,540.126779 248.95587,538.414748 248.95587,536.37087 C248.95587,534.606046 246.657074,529.002351 245.390852,526.053435 C245.202426,524.756214 245.014,523.240275 244.840648,521.51316 C245.511444,521.369863 246.0315,520.819298 246.0315,520.102809 C246.0315,519.303359 245.390852,518.654748 244.599463,518.647206 L244.569315,518.647206 C243.770389,518.647206 243.114667,519.303359 243.114667,520.102809 C243.114667,520.819298 243.642259,521.377405 244.320593,521.51316 C244.132167,523.285527 243.928667,524.793924 243.747778,526.106229 C242.474019,529.077771 240.190296,534.628672 240.190296,536.37087 C240.190296,538.429832 241.622333,540.149405 243.536741,540.617008 L234.665648,575.694779 L234.665648,588.282351 C233.301444,588.855542 232.464833,589.579573 232.464833,590.477069 C232.464833,592.347481 233.278833,594.067053 234.665648,595.492489 L234.665648,607.944305 C231.929704,608.668336 230.098204,609.74684 230.098204,611.187359 C230.098204,614.181527 231.869407,616.874015 234.665648,618.774595 L234.665648,634.703267 C231.439796,635.465008 229.223907,636.664183 229.223907,638.28571 C229.223907,641.679603 231.341815,644.696397 234.665648,646.725191 L234.665648,757.562198 C223.503296,750.427481 210.434074,746.000336 196.354889,745.404519 C196.04587,741.505313 194.922852,728.751817 193.061204,723.223542 C191.546259,727.597893 190.136833,741.316763 189.744907,745.404519 C174.836648,746.030504 161.04387,750.910168 149.474519,758.799084 L149.474519,646.725191 C152.805889,644.696397 154.916259,641.679603 154.916259,638.28571 C154.916259,636.664183 152.692833,635.465008 149.474519,634.703267 L149.474519,618.774595 C152.270759,616.874015 154.041963,614.181527 154.041963,611.187359 C154.041963,609.74684 152.210463,608.668336 149.474519,607.944305 L149.474519,595.492489 C150.861333,594.074595 151.675333,592.347481 151.675333,590.477069 C151.675333,589.579573 150.838722,588.855542 149.474519,588.282351 L149.474519,575.694779 L140.603426,540.609466 C142.495222,540.126779 143.912185,538.414748 143.912185,536.37087 C143.912185,534.606046 141.605852,529.002351 140.33963,526.053435 C140.158741,524.756214 139.962778,523.240275 139.796963,521.51316 C140.467759,521.369863 140.980278,520.819298 140.980278,520.102809 C140.980278,519.303359 140.33963,518.654748 139.555778,518.647206 L139.52563,518.647206 C138.719167,518.647206 138.063444,519.303359 138.063444,520.102809 C138.063444,520.819298 138.598574,521.377405 139.276907,521.51316 C139.080944,523.285527 138.884981,524.793924 138.696556,526.106229 C137.422796,529.077771 135.146611,534.628672 135.146611,536.37087 C135.146611,538.429832 136.571111,540.149405 138.485519,540.617008 L129.614426,575.694779 L129.614426,588.282351 C128.257759,588.855542 127.413611,589.579573 127.413611,590.477069 C127.413611,592.347481 128.235148,594.067053 129.614426,595.492489 L129.614426,607.944305 C126.878481,608.668336 125.054519,609.74684 125.054519,611.187359 C125.054519,614.181527 126.818185,616.874015 129.614426,618.774595 L129.614426,634.703267 C126.396111,635.465008 124.180222,636.664183 124.180222,638.28571 C124.180222,641.679603 126.29813,644.696397 129.614426,646.725191 L129.614426,765.609496 C116.6055,753.745954 99.5868704,746.211511 80.781963,745.404519 C80.4729444,741.505313 79.3499259,728.751817 77.4882778,723.223542 C75.9733333,727.597893 74.5639074,741.316763 74.1719815,745.404519 C32.9293148,747.139176 0,781.055481 0,822.740031 C0,830.199053 1.11548148,837.379023 3.07511111,844.196977 L0.00753703704,844.196977 L0.00753703704,975.570809 L2836.72217,975.570809 L2836.72217,844.196977 L2833.64706,844.196977 C2835.61422,837.379023 2836.72217,830.199053 2836.72217,822.740031 C2836.72217,781.055481 2803.79285,747.139176 2762.55019,745.404519 C2762.1658,741.316763 2760.74883,727.597893 2759.23389,723.223542 C2757.37224,728.751817 2756.24922,741.505313 2755.9402,745.404519 C2737.1353,746.211511 2720.11667,753.745954 2707.10774,765.609496 L2707.10774,646.725191 C2710.42404,644.696397 2712.54948,641.679603 2712.54948,638.28571 C2712.54948,636.664183 2710.33359,635.465008 2707.10774,634.703267 L2707.10774,618.774595 C2709.90398,616.874015 2711.66765,614.181527 2711.66765,611.187359 C2711.66765,609.74684 2709.84369,608.668336 2707.10774,607.944305 L2707.10774,595.492489 C2708.48702,594.067053 2709.30856,592.347481 2709.30856,590.477069 C2709.30856,589.579573 2708.47194,588.855542 2707.10774,588.282351 L2707.10774,575.694779 L2698.23665,540.617008 C2700.15106,540.149405 2701.58309,538.429832 2701.58309,536.37087 C2701.58309,534.628672 2699.29937,529.077771 2698.02561,526.106229 C2697.83719,524.793924 2697.64122,523.285527 2697.4528,521.51316 C2698.12359,521.377405 2698.65872,520.819298 2698.65872,520.102809 C2698.65872,519.303359 2698.003,518.647206 2697.19654,518.647206 L2697.17393,518.647206 C2696.38254,518.654748 2695.74189,519.303359 2695.74189,520.102809 C2695.74189,520.819298 2696.25441,521.369863 2696.9252,521.51316 C2696.75939,523.240275 2696.56343,524.756214 2696.38254,526.053435 C2695.11631,529.002351 2692.80998,534.606046 2692.80998,536.37087 C2692.80998,538.414748 2694.22694,540.126779 2696.11874,540.609466 L2687.24765,575.694779 L2687.24765,588.282351 C2685.88344,588.855542 2685.04683,589.579573 2685.04683,590.477069 C2685.04683,592.347481 2685.86837,594.074595 2687.24765,595.492489 L2687.24765,607.944305 C2684.5117,608.668336 2682.68774,609.74684 2682.68774,611.187359 C2682.68774,614.181527 2684.45141,616.874015 2687.24765,618.774595 L2687.24765,634.703267 C2684.02933,635.465008 2681.81344,636.664183 2681.81344,638.28571 C2681.81344,641.679603 2683.92381,644.696397 2687.24765,646.725191 L2687.24765,758.799084 C2675.6783,750.910168 2661.88552,746.030504 2646.97726,745.404519 C2646.59287,741.316763 2645.17591,727.597893 2643.66096,723.223542 C2641.79931,728.751817 2640.6763,741.505313 2640.36728,745.404519 C2626.28809,746.000336 2613.21887,750.427481 2602.06406,757.562198 L2602.06406,646.725191 C2605.38035,644.696397 2607.49826,641.679603 2607.49826,638.28571 C2607.49826,636.664183 2605.28237,635.465008 2602.06406,634.703267 L2602.06406,618.774595 C2604.85276,616.874015 2606.62396,614.181527 2606.62396,611.187359 C2606.62396,609.74684 2604.8,608.668336 2602.06406,607.944305 L2602.06406,595.492489 C2603.44333,594.067053 2604.25733,592.347481 2604.25733,590.477069 C2604.25733,589.579573 2603.42072,588.855542 2602.06406,588.282351 L2602.06406,575.694779 L2593.19296,540.617008 C2595.10737,540.149405 2596.53187,538.429832 2596.53187,536.37087 C2596.53187,534.628672 2594.24815,529.077771 2592.97439,526.106229 C2592.7935,524.793924 2592.59754,523.285527 2592.40157,521.51316 C2593.07991,521.377405 2593.6075,520.819298 2593.6075,520.102809 C2593.6075,519.303359 2592.95178,518.647206 2592.15285,518.647206 L2592.1227,518.647206 C2591.33885,518.654748 2590.6982,519.303359 2590.6982,520.102809 C2590.6982,520.819298 2591.21072,521.369863 2591.88152,521.51316 C2591.70817,523.240275 2591.51974,524.756214 2591.33885,526.053435 C2590.07263,529.002351 2587.7663,534.606046 2587.7663,536.37087 C2587.7663,538.414748 2589.17572,540.126779 2591.06752,540.609466 L2582.20396,575.694779 L2582.20396,588.282351 C2580.83976,588.855542 2580.00315,589.579573 2580.00315,590.477069 C2580.00315,592.347481 2580.81715,594.074595 2582.20396,595.492489 L2582.20396,607.944305 C2579.46048,608.668336 2577.63652,609.74684 2577.63652,611.187359 C2577.63652,614.181527 2579.40772,616.874015 2582.20396,618.774595 L2582.20396,634.703267 C2578.98565,635.465008 2576.76222,636.664183 2576.76222,638.28571 C2576.76222,641.679603 2578.87259,644.696397 2582.20396,646.725191 L2582.20396,755.435359 C2567.56704,735.139878 2540.77287,720.425466 2523.21911,702.400122 C2524.8848,701.261282 2525.95506,699.360702 2525.95506,697.211237 C2525.95506,694.518748 2524.28183,692.248611 2521.9152,691.336031 L2521.9152,679.208519 C2523.50552,678.386443 2524.59085,676.749832 2524.59085,674.84171 C2524.59085,672.933588 2523.50552,671.312061 2521.9152,670.482443 L2521.9152,651.137252 C2521.9152,649.885282 2520.15154,639.054992 2519.64656,637.44855 C2519.0662,639.017282 2517.37791,649.885282 2517.37791,651.137252 L2517.37791,670.482443 C2515.80267,671.312061 2514.71733,672.933588 2514.71733,674.84171 C2514.71733,676.749832 2515.80267,678.386443 2517.37791,679.208519 L2517.37791,691.336031 C2515.02635,692.256153 2513.34559,694.52629 2513.34559,697.211237 C2513.34559,699.345618 2514.40831,701.231115 2516.02878,702.369954 C2492.09869,726.632519 2452.00919,744.869038 2447.1478,778.792885 C2433.82231,758.874504 2411.51269,745.464855 2386.00735,744.401435 C2385.62296,740.313679 2384.206,726.587267 2382.69106,722.212916 C2380.82941,727.748733 2379.71393,740.494687 2379.39737,744.401435 C2356.62044,745.366809 2336.40611,756.182015 2322.85452,772.676336 L2322.85452,717.016489 L2322.83191,717.016489 L2322.83191,485.832031 C2327.32398,483.086748 2330.18806,478.998992 2330.18806,474.413466 C2330.18806,472.211206 2327.19585,470.589679 2322.83191,469.548885 L2322.83191,447.993893 C2326.62304,445.414534 2329.00474,441.771756 2329.00474,437.72171 C2329.00474,435.768336 2326.53259,434.297649 2322.83191,433.324733 L2322.83191,416.460855 C2324.70863,414.537649 2325.80904,412.207176 2325.80904,409.673069 C2325.80904,408.466351 2324.67848,407.478351 2322.83191,406.709069 L2322.83191,389.664183 L2310.82541,342.179847 C2313.41815,341.538779 2315.34009,339.208305 2315.34009,336.417771 C2315.34009,334.064672 2312.25744,326.545313 2310.539,322.525435 C2310.28274,320.753069 2310.01141,318.709191 2309.75515,316.303298 C2310.67467,316.137374 2311.38315,315.368092 2311.38315,314.402718 C2311.38315,313.30913 2310.50131,312.426718 2309.40844,312.426718 L2309.3783,312.426718 C2308.30804,312.441802 2307.44128,313.316672 2307.44128,314.402718 C2307.44128,315.368092 2308.13469,316.12229 2309.0542,316.303298 C2308.81302,318.648855 2308.55676,320.700275 2308.30804,322.442473 C2306.59713,326.447267 2303.4768,334.042046 2303.4768,336.417771 C2303.4768,339.193221 2305.38367,341.508611 2307.9538,342.164763 L2295.93976,389.664183 L2295.93976,406.709069 C2294.10072,407.478351 2292.96263,408.466351 2292.96263,409.673069 C2292.96263,412.207176 2294.07057,414.545191 2295.93976,416.460855 L2295.93976,433.324733 C2292.23907,434.297649 2289.76693,435.768336 2289.76693,437.72171 C2289.76693,441.771756 2292.14863,445.414534 2295.93976,447.993893 L2295.93976,469.548885 C2291.58335,470.589679 2288.58361,472.203664 2288.58361,474.413466 C2288.58361,478.998992 2291.44015,483.086748 2295.93976,485.832031 L2295.93976,717.016489 L2285.11657,717.016489 C2280.69987,702.830015 2272.7483,688.153313 2265.4223,679.728916 C2257.96063,688.153313 2250.06181,702.830015 2245.69033,717.016489 L2227.21706,717.016489 C2232.1915,705.484794 2234.96513,692.769008 2234.96513,679.404611 C2234.96513,629.446504 2177.46507,604.754046 2144.76941,571.169588 C2146.925,569.691359 2148.31181,567.217588 2148.31181,564.419511 C2148.31181,560.935115 2146.14115,557.971115 2143.06604,556.787023 L2143.06604,541.031817 C2145.13119,539.960855 2146.54061,537.841557 2146.54061,535.360244 C2146.54061,532.886473 2145.13119,530.767176 2143.06604,529.696214 L2143.06604,504.558779 C2143.06604,502.92971 2140.77478,488.856366 2140.11906,486.774779 C2139.36535,488.811115 2137.17207,502.92971 2137.17207,504.558779 L2137.17207,529.696214 C2135.122,530.767176 2133.71257,532.886473 2133.71257,535.360244 C2133.71257,537.841557 2135.122,539.960855 2137.17207,541.031817 L2137.17207,556.787023 C2134.1045,557.978656 2131.93383,560.935115 2131.93383,564.419511 C2131.93383,567.202504 2133.31311,569.646107 2135.42348,571.131878 C2102.27559,604.73142 2045.27298,629.43142 2045.27298,679.404611 C2045.27298,692.769008 2048.05415,705.484794 2053.02859,717.016489 L2032.88209,717.016489 C2028.46539,702.830015 2020.51381,688.153313 2013.19535,679.728916 C2005.72615,688.153313 1997.82733,702.830015 1993.45585,717.016489 L1971.93007,717.016489 L1971.93007,661.168092 L1971.89993,661.168092 L1971.89993,485.832031 C1976.39954,483.086748 1979.26361,478.998992 1979.26361,474.413466 C1979.26361,472.211206 1976.26387,470.589679 1971.89993,469.548885 L1971.89993,447.993893 C1975.69106,445.414534 1978.07276,441.771756 1978.07276,437.72171 C1978.07276,435.768336 1975.60061,434.297649 1971.89993,433.324733 L1971.89993,416.460855 C1973.77665,414.537649 1974.88459,412.207176 1974.88459,409.673069 C1974.88459,408.466351 1973.7465,407.478351 1971.89993,406.709069 L1971.89993,389.664183 L1959.89343,342.179847 C1962.48617,341.538779 1964.41565,339.208305 1964.41565,336.417771 C1964.41565,334.064672 1961.333,326.545313 1959.60702,322.525435 C1959.35076,320.753069 1959.08696,318.709191 1958.8307,316.303298 C1959.75022,316.137374 1960.45117,315.368092 1960.45117,314.402718 C1960.45117,313.30913 1959.56933,312.426718 1958.484,312.426718 L1958.45385,312.426718 C1957.37606,312.441802 1956.5093,313.316672 1956.5093,314.402718 C1956.5093,315.368092 1957.21024,316.12229 1958.12222,316.303298 C1957.88857,318.648855 1957.62478,320.700275 1957.37606,322.442473 C1955.67269,326.447267 1952.55235,334.042046 1952.55235,336.417771 C1952.55235,339.193221 1954.45922,341.508611 1957.02181,342.164763 L1945.01531,389.664183 L1945.01531,406.709069 C1943.16874,407.478351 1942.03065,408.466351 1942.03065,409.673069 C1942.03065,412.207176 1943.14613,414.545191 1945.01531,416.460855 L1945.01531,433.324733 C1941.30709,434.297649 1938.83494,435.768336 1938.83494,437.72171 C1938.83494,441.771756 1941.22419,445.414534 1945.01531,447.993893 L1945.01531,469.548885 C1940.65137,470.589679 1937.65163,472.203664 1937.65163,474.413466 C1937.65163,478.998992 1940.5157,483.086748 1945.01531,485.832031 L1945.01531,661.168092 L1911.63378,661.168092 L1911.63378,601.269649 L1886.64096,601.269649 C1882.10367,587.837374 1874.58924,574.291969 1867.67024,566.335176 C1860.61557,574.291969 1853.13883,587.837374 1848.63922,601.269649 L1812.67248,601.269649 C1808.14272,587.837374 1800.61322,574.284427 1793.69422,566.327634 C1786.64709,574.284427 1779.17035,587.837374 1774.67074,601.269649 L1752.86609,601.269649 L1752.86609,238.922534 C1759.06907,235.144 1763.00341,229.502595 1763.00341,223.189954 C1763.00341,220.150534 1758.88065,217.918107 1752.86609,216.500214 L1752.86609,186.777252 C1758.0968,183.224977 1761.37541,178.202015 1761.37541,172.628489 C1761.37541,169.936 1757.96867,167.914748 1752.86609,166.564733 L1752.86609,143.342962 C1755.4513,140.695725 1756.97378,137.475298 1756.97378,133.990901 C1756.97378,132.31658 1755.41361,130.959023 1752.86609,129.903145 L1752.86609,106.409863 L1736.3223,40.983145 C1739.90239,40.1007328 1742.54789,36.8953893 1742.54789,33.0489771 C1742.54789,29.8059237 1738.31207,19.4507786 1735.93037,13.9074198 C1735.58367,11.4562748 1735.21435,8.65065649 1734.86011,5.33218321 C1736.12633,5.09838168 1737.09861,4.04250382 1737.09861,2.7151145 C1737.09861,1.21425954 1735.88515,0 1734.37774,0" id="Imported-Layers" sketch:type="MSShapeGroup"></path>
            </g>
        </g>
    </g>
</svg>