<?xml version="1.0" encoding="UTF-8" standalone="no"?>
<svg width="156px" height="81px" viewBox="0 0 156 81" version="1.1" xmlns="http://www.w3.org/2000/svg" xmlns:xlink="http://www.w3.org/1999/xlink" xmlns:sketch="http://www.bohemiancoding.com/sketch/ns">
    <!-- Generator: Sketch 3.3.2 (12043) - http://www.bohemiancoding.com/sketch -->
    <title>solat</title>
    <desc>Created with Sketch.</desc>
    <defs></defs>
    <g id="Page-1" stroke="none" stroke-width="1" fill="none" fill-rule="evenodd" sketch:type="MSPage">
        <g id="Artboard-6" sketch:type="MSArtboardGroup" transform="translate(-226.000000, -428.000000)" fill="#FFFFFF">
            <path d="M241.259972,488.353493 C235.614274,489.093639 233.968961,490.594122 235.054522,496.107751 C236.058983,497.861826 238.414325,498.552899 239.259972,499.533694 C239.259972,502.398523 230.868615,503.18714 228.524546,501.216076 C226.180477,499.245012 224.929103,476.960133 231.524546,473.885005 C236.357295,471.931148 252.798705,480.29431 252.798705,480.29431 L252.798705,476.960134 L265.504946,479.778125 C265.504946,479.778125 247.79594,443.755067 265.504946,434.342329 C283.367359,424.918119 306.810004,429.475846 316.957213,434.37005 C338.986969,444.057617 341.666992,446.142578 359.050791,470.223912 C359.301849,470.571696 356.091431,471.207514 355.539086,471.931148 C354.79391,472.90741 378.000719,471.931148 382,488.353494 C382,493.609031 380.807935,506.738305 364.587055,505.10085 C357.659398,505.10085 343.524632,496.107751 343.524632,488.353494 C342.236811,484.530854 350.338946,486.608022 347.781868,481.913602 C341.691588,479.778123 326.439842,477.486379 321.266236,479.778123 C319.172838,480.705433 322.597541,494.686831 321.266236,496.107751 C321.00776,496.383627 320.461962,500.775941 323.596626,502.362199 C326.540636,502.362199 335.032634,502.362199 338.986968,506.738305 C338.986968,508.753341 322.414332,508.18936 318.174684,506.738305 C313.164102,503.629722 315.398396,497.861826 314.277999,497.861826 C310.399878,497.861826 309.917755,497.878134 307.810004,497.861826 C304.270639,497.834442 303.931459,485.313735 304.969142,473.885005 C302.09353,471.931148 295.380364,470.018951 295.851798,471.931147 C298.782423,483.818144 300.934065,499.533694 293.01608,506.738303 C280.530663,514.201966 244.453125,493.562496 244.453125,493.562496 C244.453125,493.562496 246.905669,487.613347 241.259972,488.353493 Z" id="solat" sketch:type="MSShapeGroup"></path>
        </g>
    </g>
</svg>